<svg
    class="fondoLetrero"
    xmlns="http://www.w3.org/2000/svg" xmlns:xlink="http://www.w3.org/1999/xlink" width="300"
    zoomAndPan="magnify" viewBox="0 0 224.87999 68.999997" height="92" preserveAspectRatio="none"
    version="1.0" fill="#fff">
    <defs>
        <clipPath id="fb40fe4ca7">
            <path
                d="M 6.894531 0.0195312 L 204.789062 0.0195312 L 204.789062 68.980469 L 6.894531 68.980469 Z M 6.894531 0.0195312 "
                clip-rule="nonzero" />
        </clipPath>
        <clipPath id="42d23947fe">
            <path d="M 197 9 L 204.789062 9 L 204.789062 64 L 197 64 Z M 197 9 " clip-rule="nonzero" />
        </clipPath>
    </defs>
    <g clip-path="url(#fb40fe4ca7)">
        <path opacity=".8"
            d="M 6.894531 10.960938 C 9.226562 9.636719 21.175781 3.300781 25.601562 0.957031 C 26.671875 0.390625 27.894531 0.183594 29.089844 0.363281 C 37.410156 1.625 72.726562 6.6875 106.910156 7.160156 C 146 7.703125 198.878906 0.105469 198.878906 0.105469 L 204.628906 2.277344 L 202.269531 5.773438 C 201.191406 7.375 200.671875 9.292969 200.792969 11.222656 L 204.054688 63.054688 L 200.460938 61.292969 C 199.007812 60.582031 197.371094 60.332031 195.769531 60.585938 C 186.597656 62.03125 153.058594 67.011719 120.707031 67.9375 C 87.691406 68.882812 39.890625 60.039062 28.042969 57.730469 C 26.339844 57.394531 24.589844 57.984375 23.429688 59.273438 L 19.542969 63.597656 Z M 6.894531 10.960938 "
            fill-opacity=".8" fill-rule="nonzero" />
    </g>
    <path class="fondo"
        d="M 26.730469 7.882812 L 25.210938 54.953125 L 22.335938 17.96875 C 22.113281 15.128906 19.914062 12.847656 17.085938 12.523438 L 11.160156 11.84375 L 23.753906 5.925781 C 25.164062 5.261719 26.78125 6.324219 26.730469 7.882812 Z M 26.730469 7.882812 "
        fill-opacity="1" fill-rule="nonzero" />
    <g clip-path="url(#42d23947fe)">
        <path class="fondo"
            d="M 200.253906 9.824219 L 197.609375 51.148438 C 197.445312 53.726562 198.289062 56.265625 199.960938 58.234375 L 204.054688 63.054688 Z M 200.253906 9.824219 "
            fill-opacity="1" fill-rule="nonzero" />
    </g>
</svg>