<svg xmlns="http://www.w3.org/2000/svg" xmlns:xlink="http://www.w3.org/1999/xlink" width="300" zoomAndPan="magnify" viewBox="0 0 224.87999 225" height="300" preserveAspectRatio="xMidYMid meet" version="1.0"><defs><clipPath id="032ead5aa1"><path d="M 0 7.007812 L 224.761719 7.007812 L 224.761719 204.902344 L 0 204.902344 Z M 0 7.007812 " clip-rule="nonzero"/></clipPath><clipPath id="17a1c13559"><path d="M 0 101 L 224.761719 101 L 224.761719 204.902344 L 0 204.902344 Z M 0 101 " clip-rule="nonzero"/></clipPath></defs><g clip-path="url(#032ead5aa1)"><rect x="-22.487999" width="269.855988" fill="#ffffff" y="-22.5" height="270" fill-opacity="1"/></g><path fill="#000000" d="M 24.695312 90.367188 L 35.90625 90.367188 L 35.90625 78.644531 C 35.90625 76.664062 35.597656 74.304688 36.792969 72.585938 C 38.984375 69.433594 44.3125 70.492188 47.628906 70.492188 L 67.503906 70.492188 C 70.15625 70.492188 74.109375 71.222656 76.585938 70.183594 C 78.433594 69.40625 79.53125 66.976562 80.585938 65.394531 C 83.113281 61.601562 85.800781 57.933594 88.386719 54.183594 C 89.613281 52.40625 90.75 49.84375 93.007812 49.246094 C 95.917969 48.480469 99.671875 49.085938 102.671875 49.085938 L 122.039062 49.085938 C 124.882812 49.085938 129.714844 48.164062 132.136719 49.902344 C 133.726562 51.042969 134.835938 53.113281 135.941406 54.691406 C 138.292969 58.058594 140.476562 61.539062 142.863281 64.882812 C 144.140625 66.679688 145.371094 69.34375 147.539062 70.183594 C 150.113281 71.179688 153.964844 70.492188 156.695312 70.492188 L 176.0625 70.492188 C 179.160156 70.492188 184.726562 69.40625 186.894531 72.195312 C 188.054688 73.6875 187.78125 75.855469 187.78125 77.625 L 187.78125 90.367188 L 198.996094 90.367188 L 198.996094 76.097656 C 198.996094 73.414062 199.269531 70.550781 198.515625 67.941406 C 197.277344 63.640625 193.519531 60.746094 189.3125 59.667969 C 186.238281 58.878906 182.777344 59.277344 179.628906 59.277344 L 162.808594 59.277344 C 160.144531 59.277344 156.078125 60.027344 153.65625 58.753906 C 151.5625 57.652344 150.316406 55.054688 149.046875 53.164062 C 146.871094 49.910156 144.632812 46.699219 142.410156 43.480469 C 141.339844 41.921875 140.292969 39.824219 138.75 38.691406 C 135.875 36.578125 129.046875 37.871094 125.605469 37.871094 L 99.101562 37.871094 C 95.339844 37.871094 90.539062 37.078125 86.890625 38.035156 C 84.617188 38.632812 83.339844 41.191406 82.070312 42.96875 C 79.292969 46.855469 76.597656 50.792969 73.835938 54.691406 C 72.78125 56.179688 71.792969 58.253906 70.003906 58.972656 C 67.601562 59.933594 63.949219 59.277344 61.390625 59.277344 L 44.0625 59.277344 C 36.296875 59.277344 28.101562 59.558594 25.316406 68.453125 C 24.585938 70.777344 24.695312 73.179688 24.695312 75.585938 L 24.695312 90.367188 M 40.011719 46.40625 C 37.417969 47.492188 36.765625 53.679688 39.550781 54.894531 C 41.25 55.636719 43.773438 55.203125 45.589844 55.203125 L 59.351562 55.203125 C 61.242188 55.203125 64.078125 55.707031 65.8125 54.824219 C 68.300781 53.554688 67.269531 47.28125 64.925781 46.335938 C 63.035156 45.570312 60.335938 46.027344 58.332031 46.027344 L 46.097656 46.027344 C 44.207031 46.027344 41.796875 45.660156 40.011719 46.40625 M 107.257812 73.765625 C 100.007812 74.804688 93.003906 76.9375 86.871094 81.066406 C 62.113281 97.734375 60.015625 132.75 81.265625 153.035156 C 85.761719 157.328125 91.207031 160.554688 97.066406 162.585938 C 104.503906 165.167969 112.273438 165.195312 120 164.175781 C 125.683594 163.425781 131.484375 161.0625 136.308594 158.035156 C 161.140625 142.441406 164.863281 105.984375 143.441406 85.824219 C 137.953125 80.660156 131.285156 77.246094 124.078125 75.226562 C 118.820312 73.757812 112.691406 72.988281 107.257812 73.765625 Z M 107.257812 73.765625 " fill-opacity="1" fill-rule="nonzero"/><path fill="#ffffff" d="M 105.730469 85 C 101.453125 85.765625 97.175781 87.480469 93.496094 89.765625 C 89.996094 91.9375 86.941406 94.746094 84.445312 98.011719 C 69.492188 117.558594 79.753906 146.285156 103.179688 152.902344 C 108.261719 154.339844 113.816406 154.28125 118.980469 153.328125 C 123.542969 152.484375 127.875 150.503906 131.722656 147.957031 C 135.570312 145.402344 138.828125 142.199219 141.289062 138.273438 C 144.414062 133.285156 146.738281 126.878906 146.992188 120.945312 C 147.921875 99.054688 127.261719 81.125 105.730469 85 Z M 105.730469 85 " fill-opacity="1" fill-rule="nonzero"/><g clip-path="url(#17a1c13559)"><path fill="#000000" d="M 112.863281 107.1875 L 111.335938 107.1875 C 106.238281 96.492188 89.398438 101.1875 87.605469 111.773438 C 85.703125 123.007812 95.648438 130.355469 102.671875 137.257812 C 104.757812 139.308594 109.128906 144.855469 112.355469 144.5625 C 114.757812 144.34375 117.285156 141.25 118.980469 139.71875 C 124.597656 134.636719 131.742188 128.917969 135.085938 121.964844 C 137.722656 116.480469 137.699219 109.265625 133.097656 104.804688 C 127.6875 99.5625 116.382812 99.796875 112.863281 107.1875 M 198.996094 153.5625 L 187.78125 153.5625 C 187.78125 157.78125 189.664062 167.539062 185.226562 169.859375 C 182.464844 171.300781 177.578125 170.382812 174.53125 170.382812 L 49.15625 170.382812 C 46.105469 170.382812 41.84375 171.136719 38.972656 170.003906 C 33.9375 168.019531 35.90625 157.886719 35.90625 153.5625 C 33.386719 153.5625 27.546875 152.476562 25.511719 154.089844 C 23.878906 155.382812 24.695312 159.867188 24.695312 161.71875 C 24.695312 169.152344 24.761719 177.207031 32.847656 180.527344 C 36.957031 182.214844 41.75 181.59375 46.097656 181.59375 L 178.609375 181.59375 C 183.234375 181.59375 188.152344 182.167969 192.371094 179.855469 C 201.550781 174.8125 198.996094 162.273438 198.996094 153.5625 M 73.621094 207.078125 L 73.621094 238.675781 L 78.71875 238.675781 L 78.71875 207.078125 L 73.621094 207.078125 M -11.925781 208.628906 C -15.480469 210.601562 -11.9375 215.667969 -8.550781 213.613281 C -5.277344 211.625 -8.90625 206.949219 -11.925781 208.628906 M 24.808594 208.625 C 21.304688 210.6875 24.746094 215.675781 28.144531 213.613281 C 31.386719 211.644531 27.847656 206.832031 24.808594 208.625 M -42.582031 208.605469 L -42.582031 238.675781 C -36.820312 238.675781 -30.066406 239.621094 -24.742188 236.953125 C -15.453125 232.304688 -14.253906 217.730469 -22.710938 211.558594 C -28.246094 207.515625 -36.144531 208.605469 -42.582031 208.605469 M 94.007812 208.605469 L 94.007812 238.675781 L 99.101562 238.675781 L 99.101562 218.800781 C 101.660156 220.917969 103.117188 224.136719 104.8125 226.953125 C 105.464844 228.042969 106.207031 229.878906 107.441406 230.433594 C 108.855469 231.0625 109.863281 229.457031 110.511719 228.472656 C 112.628906 225.261719 114.90625 221.824219 116.429688 218.289062 C 118.226562 224.367188 116.941406 232.34375 116.941406 238.675781 L 122.039062 238.675781 L 122.039062 208.605469 C 120.542969 208.605469 118.523438 208.273438 117.132812 208.914062 C 115.71875 209.566406 114.878906 211.425781 114.097656 212.683594 C 112.179688 215.777344 110.035156 218.9375 108.785156 222.367188 L 107.765625 222.367188 C 106.386719 219.167969 104.355469 216.1875 102.570312 213.195312 C 101.746094 211.820312 100.945312 209.972656 99.503906 209.132812 C 97.980469 208.238281 95.707031 208.605469 94.007812 208.605469 M 35.90625 212.175781 L 35.90625 217.78125 L 32.339844 217.78125 L 32.339844 222.367188 L 35.90625 222.367188 C 35.90625 226.628906 34.46875 234.117188 37.648438 237.480469 C 39.320312 239.25 45.496094 240.515625 47.058594 237.90625 C 47.859375 236.5625 46.710938 234.75 46.097656 233.578125 C 39.347656 236.28125 41.003906 226.394531 41.003906 222.367188 C 45.207031 222.367188 47.1875 222.484375 46.609375 217.78125 L 41.003906 217.78125 L 41.003906 212.175781 L 35.90625 212.175781 M 239.769531 212.175781 L 239.769531 217.78125 C 237.914062 217.800781 233.441406 219.386719 236.507812 221.84375 C 237.359375 222.527344 238.757812 222.355469 239.769531 222.367188 C 239.769531 226.339844 238.320312 233.867188 241.007812 237.078125 C 242.652344 239.046875 249.324219 240.769531 250.648438 237.503906 C 251.15625 236.25 250.382812 234.742188 249.960938 233.578125 C 242.765625 235.742188 244.355469 227.058594 244.355469 222.367188 L 250.46875 222.367188 L 250.46875 217.78125 L 244.355469 217.78125 L 244.355469 212.175781 Z M 239.769531 212.175781 " fill-opacity="1" fill-rule="nonzero"/></g></svg>