<svg xmlns="http://www.w3.org/2000/svg" xmlns:xlink="http://www.w3.org/1999/xlink" width="300" zoomAndPan="magnify" viewBox="0 0 224.87999 225" height="300" preserveAspectRatio="xMidYMid meet" version="1.0"><defs><g/><clipPath id="56e3db9362"><path d="M 25.019531 12.859375 L 199.675781 12.859375 L 199.675781 166.527344 L 25.019531 166.527344 Z M 25.019531 12.859375 " clip-rule="nonzero"/></clipPath><clipPath id="a8f65af9e9"><path d="M 25.019531 86 L 199.675781 86 L 199.675781 166.527344 L 25.019531 166.527344 Z M 25.019531 86 " clip-rule="nonzero"/></clipPath></defs><g clip-path="url(#56e3db9362)"></g><path fill="#000000" d="M 44.21875 77.667969 L 52.9375 77.667969 L 52.9375 68.554688 C 52.9375 67.015625 52.699219 65.179688 53.628906 63.84375 C 55.332031 61.394531 59.476562 62.214844 62.050781 62.214844 L 77.503906 62.214844 C 79.566406 62.214844 82.640625 62.785156 84.566406 61.976562 C 86.003906 61.371094 86.855469 59.484375 87.675781 58.253906 C 89.640625 55.304688 91.730469 52.453125 93.742188 49.535156 C 94.691406 48.15625 95.578125 46.164062 97.332031 45.699219 C 99.597656 45.101562 102.515625 45.574219 104.847656 45.574219 L 119.902344 45.574219 C 122.117188 45.574219 125.871094 44.859375 127.753906 46.207031 C 128.988281 47.09375 129.855469 48.703125 130.714844 49.933594 C 132.542969 52.550781 134.242188 55.253906 136.09375 57.855469 C 137.085938 59.253906 138.042969 61.324219 139.730469 61.976562 C 141.730469 62.75 144.726562 62.214844 146.847656 62.214844 L 161.90625 62.214844 C 164.3125 62.214844 168.644531 61.371094 170.328125 63.539062 C 171.230469 64.699219 171.019531 66.386719 171.019531 67.761719 L 171.019531 77.667969 L 179.738281 77.667969 L 179.738281 66.574219 C 179.738281 64.488281 179.949219 62.261719 179.363281 60.234375 C 178.398438 56.890625 175.480469 54.636719 172.207031 53.800781 C 169.820312 53.1875 167.128906 53.5 164.679688 53.5 L 151.601562 53.5 C 149.53125 53.5 146.371094 54.082031 144.488281 53.089844 C 142.859375 52.234375 141.890625 50.214844 140.902344 48.742188 C 139.210938 46.214844 137.46875 43.71875 135.742188 41.214844 C 134.910156 40.003906 134.097656 38.375 132.898438 37.492188 C 130.660156 35.847656 125.351562 36.855469 122.675781 36.855469 L 102.070312 36.855469 C 99.144531 36.855469 95.414062 36.238281 92.578125 36.980469 C 90.8125 37.445312 89.816406 39.4375 88.828125 40.820312 C 86.667969 43.839844 84.574219 46.902344 82.429688 49.933594 C 81.609375 51.089844 80.839844 52.703125 79.449219 53.257812 C 77.578125 54.007812 74.738281 53.5 72.75 53.5 L 59.277344 53.5 C 53.238281 53.5 46.867188 53.714844 44.703125 60.628906 C 44.136719 62.4375 44.21875 64.308594 44.21875 66.179688 L 44.21875 77.667969 M 56.132812 43.488281 C 54.113281 44.332031 53.605469 49.144531 55.769531 50.089844 C 57.09375 50.667969 59.054688 50.328125 60.464844 50.328125 L 71.164062 50.328125 C 72.636719 50.328125 74.839844 50.722656 76.191406 50.035156 C 78.121094 49.050781 77.324219 44.171875 75.5 43.433594 C 74.03125 42.839844 71.929688 43.195312 70.371094 43.195312 L 60.863281 43.195312 C 59.390625 43.195312 57.519531 42.910156 56.132812 43.488281 M 108.414062 64.761719 C 102.777344 65.570312 97.332031 67.226562 92.5625 70.4375 C 73.3125 83.394531 71.683594 110.621094 88.203125 126.390625 C 91.699219 129.730469 95.933594 132.238281 100.488281 133.820312 C 106.269531 135.824219 112.308594 135.847656 118.316406 135.054688 C 122.738281 134.46875 127.246094 132.632812 131 130.28125 C 150.304688 118.15625 153.199219 89.8125 136.542969 74.136719 C 132.277344 70.121094 127.09375 67.46875 121.488281 65.898438 C 117.402344 64.753906 112.636719 64.15625 108.414062 64.761719 Z M 108.414062 64.761719 " fill-opacity="1" fill-rule="nonzero"/><path fill="#ffffff" d="M 107.222656 73.496094 C 103.902344 74.09375 100.574219 75.421875 97.714844 77.199219 C 94.992188 78.890625 92.617188 81.074219 90.675781 83.613281 C 79.050781 98.808594 87.03125 121.144531 105.242188 126.289062 C 109.195312 127.40625 113.511719 127.363281 117.527344 126.621094 C 121.074219 125.964844 124.441406 124.425781 127.433594 122.445312 C 130.425781 120.460938 132.957031 117.96875 134.871094 114.917969 C 137.300781 111.035156 139.105469 106.054688 139.304688 101.445312 C 140.027344 84.421875 123.964844 70.480469 107.222656 73.496094 Z M 107.222656 73.496094 " fill-opacity="1" fill-rule="nonzero"/><g clip-path="url(#a8f65af9e9)"><path fill="#000000" d="M 112.769531 90.746094 L 111.582031 90.746094 C 107.621094 82.429688 94.527344 86.082031 93.132812 94.3125 C 91.65625 103.046875 99.386719 108.757812 104.847656 114.125 C 106.46875 115.722656 109.867188 120.035156 112.375 119.804688 C 114.242188 119.636719 116.210938 117.230469 117.527344 116.039062 C 121.894531 112.085938 127.449219 107.640625 130.046875 102.238281 C 132.097656 97.972656 132.082031 92.363281 128.5 88.894531 C 124.292969 84.816406 115.507812 85 112.769531 90.746094 M 179.738281 126.804688 L 171.019531 126.804688 C 171.019531 130.082031 172.480469 137.667969 169.03125 139.472656 C 166.882812 140.59375 163.085938 139.878906 160.714844 139.878906 L 63.238281 139.878906 C 60.867188 139.878906 57.554688 140.46875 55.320312 139.585938 C 51.410156 138.042969 52.9375 130.164062 52.9375 126.804688 C 50.980469 126.804688 46.4375 125.957031 44.855469 127.210938 C 43.585938 128.214844 44.21875 131.703125 44.21875 133.144531 C 44.21875 138.925781 44.273438 145.183594 50.558594 147.769531 C 53.753906 149.078125 57.480469 148.597656 60.863281 148.597656 L 163.886719 148.597656 C 167.484375 148.597656 171.308594 149.042969 174.585938 147.242188 C 181.722656 143.324219 179.738281 133.574219 179.738281 126.804688 M 82.261719 168.410156 L 82.261719 192.976562 L 86.222656 192.976562 L 86.222656 168.410156 L 82.261719 168.410156 M 15.75 169.617188 C 12.984375 171.152344 15.738281 175.089844 18.375 173.488281 C 20.917969 171.945312 18.097656 168.3125 15.75 169.617188 M 44.3125 169.609375 C 41.585938 171.214844 44.261719 175.09375 46.902344 173.488281 C 49.421875 171.960938 46.671875 168.21875 44.3125 169.609375 M -8.085938 169.597656 L -8.085938 192.976562 C -3.605469 192.976562 1.644531 193.710938 5.785156 191.636719 C 13.007812 188.023438 13.9375 176.691406 7.363281 171.890625 C 3.0625 168.75 -3.078125 169.597656 -8.085938 169.597656 M 98.109375 169.597656 L 98.109375 192.976562 L 102.070312 192.976562 L 102.070312 177.523438 C 104.058594 179.167969 105.191406 181.671875 106.511719 183.863281 C 107.019531 184.710938 107.59375 186.136719 108.554688 186.566406 C 109.652344 187.058594 110.4375 185.808594 110.941406 185.042969 C 112.589844 182.546875 114.359375 179.875 115.542969 177.128906 C 116.941406 181.851562 115.941406 188.054688 115.941406 192.976562 L 119.902344 192.976562 L 119.902344 169.597656 C 118.742188 169.597656 117.171875 169.339844 116.089844 169.835938 C 114.992188 170.34375 114.339844 171.792969 113.730469 172.769531 C 112.238281 175.171875 110.570312 177.628906 109.601562 180.296875 L 108.808594 180.296875 C 107.734375 177.808594 106.15625 175.492188 104.765625 173.164062 C 104.128906 172.09375 103.503906 170.660156 102.386719 170.003906 C 101.199219 169.3125 99.429688 169.597656 98.109375 169.597656 M 52.9375 172.371094 L 52.9375 176.730469 L 50.164062 176.730469 L 50.164062 180.296875 L 52.9375 180.296875 C 52.9375 183.609375 51.820312 189.433594 54.292969 192.046875 C 55.589844 193.421875 60.394531 194.40625 61.605469 192.378906 C 62.230469 191.332031 61.339844 189.925781 60.863281 189.015625 C 55.613281 191.113281 56.898438 183.425781 56.898438 180.296875 C 60.167969 180.296875 61.707031 180.386719 61.257812 176.730469 L 56.898438 176.730469 L 56.898438 172.371094 L 52.9375 172.371094 M 211.4375 172.371094 L 211.4375 176.730469 C 209.996094 176.746094 206.519531 177.980469 208.902344 179.890625 C 209.5625 180.421875 210.648438 180.289062 211.4375 180.296875 C 211.4375 183.382812 210.3125 189.238281 212.402344 191.734375 C 213.679688 193.265625 218.867188 194.601562 219.898438 192.0625 C 220.292969 191.089844 219.691406 189.917969 219.359375 189.015625 C 213.765625 190.695312 215.003906 183.945312 215.003906 180.296875 L 219.757812 180.296875 L 219.757812 176.730469 L 215.003906 176.730469 L 215.003906 172.371094 Z M 211.4375 172.371094 " fill-opacity="1" fill-rule="nonzero"/></g><g fill="#000000" fill-opacity="1"><g transform="translate(23.75002, 180.864589)"><g><path d="M 1.671875 0 L 1.671875 -16.03125 L 7.5 -16.03125 C 9.238281 -16.03125 10.695312 -15.671875 11.875 -14.953125 C 13.050781 -14.242188 13.929688 -13.28125 14.515625 -12.0625 C 15.097656 -10.851562 15.390625 -9.507812 15.390625 -8.03125 C 15.390625 -6.40625 15.066406 -4.988281 14.421875 -3.78125 C 13.773438 -2.582031 12.859375 -1.648438 11.671875 -0.984375 C 10.492188 -0.328125 9.101562 0 7.5 0 Z M 12.265625 -8.03125 C 12.265625 -9.070312 12.070312 -9.988281 11.6875 -10.78125 C 11.3125 -11.570312 10.769531 -12.1875 10.0625 -12.625 C 9.363281 -13.070312 8.507812 -13.296875 7.5 -13.296875 L 4.78125 -13.296875 L 4.78125 -2.734375 L 7.5 -2.734375 C 8.519531 -2.734375 9.382812 -2.960938 10.09375 -3.421875 C 10.800781 -3.878906 11.335938 -4.507812 11.703125 -5.3125 C 12.078125 -6.125 12.265625 -7.03125 12.265625 -8.03125 Z M 12.265625 -8.03125 "/></g></g></g><g fill="#000000" fill-opacity="1"><g transform="translate(39.910146, 180.864589)"><g><path d="M 1.375 0 L 1.375 -11.828125 L 4.40625 -11.828125 L 4.40625 0 Z M 1.375 -13.484375 L 1.375 -16.484375 L 4.40625 -16.484375 L 4.40625 -13.484375 Z M 1.375 -13.484375 "/></g></g></g><g fill="#000000" fill-opacity="1"><g transform="translate(45.665501, 180.864589)"><g><path d="M 6 0.0625 C 5.21875 0.0625 4.5 -0.0859375 3.84375 -0.390625 C 3.195312 -0.703125 2.632812 -1.132812 2.15625 -1.6875 C 1.675781 -2.25 1.304688 -2.890625 1.046875 -3.609375 C 0.796875 -4.335938 0.671875 -5.109375 0.671875 -5.921875 C 0.671875 -6.773438 0.804688 -7.570312 1.078125 -8.3125 C 1.347656 -9.050781 1.726562 -9.703125 2.21875 -10.265625 C 2.707031 -10.828125 3.285156 -11.257812 3.953125 -11.5625 C 4.628906 -11.875 5.375 -12.03125 6.1875 -12.03125 C 7.101562 -12.03125 7.90625 -11.820312 8.59375 -11.40625 C 9.289062 -11 9.863281 -10.445312 10.3125 -9.75 L 10.3125 -11.828125 L 12.953125 -11.828125 L 12.953125 -0.5625 C 12.953125 0.613281 12.671875 1.617188 12.109375 2.453125 C 11.546875 3.285156 10.765625 3.921875 9.765625 4.359375 C 8.773438 4.804688 7.648438 5.03125 6.390625 5.03125 C 5.109375 5.03125 4.023438 4.816406 3.140625 4.390625 C 2.253906 3.960938 1.492188 3.359375 0.859375 2.578125 L 2.5 0.96875 C 2.957031 1.53125 3.523438 1.96875 4.203125 2.28125 C 4.890625 2.59375 5.617188 2.75 6.390625 2.75 C 7.035156 2.75 7.625 2.628906 8.15625 2.390625 C 8.695312 2.160156 9.128906 1.800781 9.453125 1.3125 C 9.773438 0.832031 9.9375 0.207031 9.9375 -0.5625 L 9.9375 -2.046875 C 9.539062 -1.367188 8.984375 -0.847656 8.265625 -0.484375 C 7.554688 -0.117188 6.800781 0.0625 6 0.0625 Z M 7.015625 -2.34375 C 7.347656 -2.34375 7.664062 -2.394531 7.96875 -2.5 C 8.269531 -2.613281 8.546875 -2.757812 8.796875 -2.9375 C 9.054688 -3.113281 9.285156 -3.328125 9.484375 -3.578125 C 9.679688 -3.828125 9.832031 -4.078125 9.9375 -4.328125 L 9.9375 -7.15625 C 9.75 -7.625 9.492188 -8.03125 9.171875 -8.375 C 8.847656 -8.71875 8.488281 -8.984375 8.09375 -9.171875 C 7.695312 -9.359375 7.28125 -9.453125 6.84375 -9.453125 C 6.375 -9.453125 5.953125 -9.351562 5.578125 -9.15625 C 5.203125 -8.96875 4.878906 -8.695312 4.609375 -8.34375 C 4.335938 -7.988281 4.128906 -7.597656 3.984375 -7.171875 C 3.835938 -6.742188 3.765625 -6.296875 3.765625 -5.828125 C 3.765625 -5.347656 3.847656 -4.894531 4.015625 -4.46875 C 4.179688 -4.050781 4.410156 -3.679688 4.703125 -3.359375 C 4.992188 -3.046875 5.335938 -2.796875 5.734375 -2.609375 C 6.140625 -2.429688 6.566406 -2.34375 7.015625 -2.34375 Z M 7.015625 -2.34375 "/></g></g></g><g fill="#000000" fill-opacity="1"><g transform="translate(59.974892, 180.864589)"><g><path d="M 1.375 0 L 1.375 -11.828125 L 4.40625 -11.828125 L 4.40625 0 Z M 1.375 -13.484375 L 1.375 -16.484375 L 4.40625 -16.484375 L 4.40625 -13.484375 Z M 1.375 -13.484375 "/></g></g></g><g fill="#000000" fill-opacity="1"><g transform="translate(65.730247, 180.864589)"><g><path d="M 8.46875 -0.609375 C 8.207031 -0.503906 7.894531 -0.382812 7.53125 -0.25 C 7.175781 -0.113281 6.789062 -0.00390625 6.375 0.078125 C 5.957031 0.160156 5.539062 0.203125 5.125 0.203125 C 4.570312 0.203125 4.0625 0.101562 3.59375 -0.09375 C 3.125 -0.289062 2.75 -0.601562 2.46875 -1.03125 C 2.1875 -1.457031 2.046875 -2.015625 2.046875 -2.703125 L 2.046875 -9.5 L 0.5 -9.5 L 0.5 -11.828125 L 2.046875 -11.828125 L 2.046875 -15.671875 L 5.078125 -15.671875 L 5.078125 -11.828125 L 7.5625 -11.828125 L 7.5625 -9.5 L 5.078125 -9.5 L 5.078125 -3.71875 C 5.097656 -3.3125 5.210938 -3.019531 5.421875 -2.84375 C 5.628906 -2.664062 5.890625 -2.578125 6.203125 -2.578125 C 6.523438 -2.578125 6.835938 -2.628906 7.140625 -2.734375 C 7.441406 -2.835938 7.679688 -2.925781 7.859375 -3 Z M 8.46875 -0.609375 "/></g></g></g><g fill="#000000" fill-opacity="1"><g transform="translate(74.39713, 180.864589)"><g><path d="M 0.5625 -3.5 C 0.5625 -4.269531 0.773438 -4.941406 1.203125 -5.515625 C 1.628906 -6.097656 2.226562 -6.546875 3 -6.859375 C 3.769531 -7.179688 4.648438 -7.34375 5.640625 -7.34375 C 6.140625 -7.34375 6.644531 -7.300781 7.15625 -7.21875 C 7.664062 -7.144531 8.109375 -7.023438 8.484375 -6.859375 L 8.484375 -7.5 C 8.484375 -8.25 8.257812 -8.828125 7.8125 -9.234375 C 7.375 -9.640625 6.71875 -9.84375 5.84375 -9.84375 C 5.195312 -9.84375 4.578125 -9.726562 3.984375 -9.5 C 3.398438 -9.28125 2.785156 -8.953125 2.140625 -8.515625 L 1.171875 -10.5 C 1.953125 -11.007812 2.753906 -11.390625 3.578125 -11.640625 C 4.398438 -11.898438 5.257812 -12.03125 6.15625 -12.03125 C 7.84375 -12.03125 9.15625 -11.609375 10.09375 -10.765625 C 11.039062 -9.921875 11.515625 -8.71875 11.515625 -7.15625 L 11.515625 -3.390625 C 11.515625 -3.066406 11.570312 -2.835938 11.6875 -2.703125 C 11.800781 -2.566406 11.984375 -2.488281 12.234375 -2.46875 L 12.234375 0 C 11.960938 0.0390625 11.71875 0.078125 11.5 0.109375 C 11.28125 0.140625 11.097656 0.15625 10.953125 0.15625 C 10.347656 0.15625 9.890625 0.0195312 9.578125 -0.25 C 9.273438 -0.519531 9.085938 -0.847656 9.015625 -1.234375 L 8.9375 -1.84375 C 8.425781 -1.1875 7.785156 -0.675781 7.015625 -0.3125 C 6.253906 0.0390625 5.472656 0.21875 4.671875 0.21875 C 3.890625 0.21875 3.1875 0.0546875 2.5625 -0.265625 C 1.9375 -0.585938 1.445312 -1.03125 1.09375 -1.59375 C 0.738281 -2.15625 0.5625 -2.789062 0.5625 -3.5 Z M 7.921875 -2.890625 C 8.085938 -3.066406 8.222656 -3.242188 8.328125 -3.421875 C 8.429688 -3.609375 8.484375 -3.773438 8.484375 -3.921875 L 8.484375 -5.125 C 8.128906 -5.269531 7.738281 -5.382812 7.3125 -5.46875 C 6.894531 -5.550781 6.5 -5.59375 6.125 -5.59375 C 5.332031 -5.59375 4.6875 -5.421875 4.1875 -5.078125 C 3.6875 -4.742188 3.4375 -4.300781 3.4375 -3.75 C 3.4375 -3.445312 3.515625 -3.160156 3.671875 -2.890625 C 3.835938 -2.617188 4.078125 -2.398438 4.390625 -2.234375 C 4.710938 -2.066406 5.09375 -1.984375 5.53125 -1.984375 C 5.976562 -1.984375 6.421875 -2.066406 6.859375 -2.234375 C 7.296875 -2.410156 7.648438 -2.628906 7.921875 -2.890625 Z M 7.921875 -2.890625 "/></g></g></g><g fill="#000000" fill-opacity="1"><g transform="translate(87.35232, 180.864589)"><g><path d="M 1.359375 -16.484375 L 4.375 -16.484375 L 4.375 -3.796875 C 4.375 -3.253906 4.460938 -2.890625 4.640625 -2.703125 C 4.828125 -2.515625 5.078125 -2.421875 5.390625 -2.421875 C 5.628906 -2.421875 5.878906 -2.445312 6.140625 -2.5 C 6.398438 -2.5625 6.625 -2.640625 6.8125 -2.734375 L 7.21875 -0.421875 C 6.8125 -0.234375 6.335938 -0.0859375 5.796875 0.015625 C 5.253906 0.128906 4.765625 0.1875 4.328125 0.1875 C 3.378906 0.1875 2.644531 -0.0625 2.125 -0.5625 C 1.613281 -1.070312 1.359375 -1.796875 1.359375 -2.734375 Z M 1.359375 -16.484375 "/></g></g></g><g fill="#000000" fill-opacity="1"><g transform="translate(94.50701, 180.864589)"><g/></g></g><g fill="#000000" fill-opacity="1"><g transform="translate(99.923812, 180.864589)"><g><path d="M 14.75 0 L 14.75 -10.515625 L 10.640625 -2.6875 L 8.890625 -2.6875 L 4.78125 -10.515625 L 4.78125 0 L 1.671875 0 L 1.671875 -16.03125 L 5.015625 -16.03125 L 9.75 -6.90625 L 14.546875 -16.03125 L 17.859375 -16.03125 L 17.859375 0 Z M 14.75 0 "/></g></g></g><g fill="#000000" fill-opacity="1"><g transform="translate(119.446867, 180.864589)"><g><path d="M 6.84375 0.21875 C 5.875 0.21875 5.003906 0.0546875 4.234375 -0.265625 C 3.472656 -0.585938 2.820312 -1.035156 2.28125 -1.609375 C 1.75 -2.179688 1.335938 -2.832031 1.046875 -3.5625 C 0.765625 -4.300781 0.625 -5.078125 0.625 -5.890625 C 0.625 -6.722656 0.765625 -7.503906 1.046875 -8.234375 C 1.335938 -8.972656 1.75 -9.628906 2.28125 -10.203125 C 2.820312 -10.773438 3.472656 -11.222656 4.234375 -11.546875 C 5.003906 -11.867188 5.875 -12.03125 6.84375 -12.03125 C 7.800781 -12.03125 8.660156 -11.867188 9.421875 -11.546875 C 10.179688 -11.222656 10.832031 -10.773438 11.375 -10.203125 C 11.914062 -9.628906 12.328125 -8.972656 12.609375 -8.234375 C 12.890625 -7.503906 13.03125 -6.722656 13.03125 -5.890625 C 13.03125 -5.078125 12.890625 -4.300781 12.609375 -3.5625 C 12.328125 -2.832031 11.921875 -2.179688 11.390625 -1.609375 C 10.859375 -1.035156 10.207031 -0.585938 9.4375 -0.265625 C 8.664062 0.0546875 7.800781 0.21875 6.84375 0.21875 Z M 3.75 -5.890625 C 3.75 -5.203125 3.882812 -4.585938 4.15625 -4.046875 C 4.425781 -3.515625 4.789062 -3.097656 5.25 -2.796875 C 5.71875 -2.492188 6.25 -2.34375 6.84375 -2.34375 C 7.414062 -2.34375 7.929688 -2.5 8.390625 -2.8125 C 8.859375 -3.125 9.234375 -3.546875 9.515625 -4.078125 C 9.796875 -4.609375 9.9375 -5.222656 9.9375 -5.921875 C 9.9375 -6.597656 9.796875 -7.207031 9.515625 -7.75 C 9.234375 -8.289062 8.859375 -8.707031 8.390625 -9 C 7.929688 -9.300781 7.414062 -9.453125 6.84375 -9.453125 C 6.25 -9.453125 5.71875 -9.296875 5.25 -8.984375 C 4.789062 -8.679688 4.425781 -8.265625 4.15625 -7.734375 C 3.882812 -7.203125 3.75 -6.585938 3.75 -5.890625 Z M 3.75 -5.890625 "/></g></g></g><g fill="#000000" fill-opacity="1"><g transform="translate(133.124297, 180.864589)"><g><path d="M 19.75 0 L 16.734375 0 L 16.734375 -6.640625 C 16.734375 -7.566406 16.570312 -8.253906 16.25 -8.703125 C 15.925781 -9.148438 15.476562 -9.375 14.90625 -9.375 C 14.3125 -9.375 13.75 -9.144531 13.21875 -8.6875 C 12.6875 -8.226562 12.304688 -7.628906 12.078125 -6.890625 L 12.078125 0 L 9.046875 0 L 9.046875 -6.640625 C 9.046875 -7.585938 8.882812 -8.28125 8.5625 -8.71875 C 8.238281 -9.15625 7.789062 -9.375 7.21875 -9.375 C 6.632812 -9.375 6.070312 -9.144531 5.53125 -8.6875 C 5 -8.238281 4.625 -7.644531 4.40625 -6.90625 L 4.40625 0 L 1.375 0 L 1.375 -11.828125 L 4.109375 -11.828125 L 4.109375 -9.640625 C 4.554688 -10.410156 5.15625 -11 5.90625 -11.40625 C 6.664062 -11.820312 7.535156 -12.03125 8.515625 -12.03125 C 9.492188 -12.03125 10.253906 -11.789062 10.796875 -11.3125 C 11.347656 -10.832031 11.703125 -10.238281 11.859375 -9.53125 C 12.335938 -10.34375 12.945312 -10.960938 13.6875 -11.390625 C 14.4375 -11.816406 15.28125 -12.03125 16.21875 -12.03125 C 16.945312 -12.03125 17.539062 -11.898438 18 -11.640625 C 18.457031 -11.378906 18.816406 -11.023438 19.078125 -10.578125 C 19.335938 -10.128906 19.515625 -9.625 19.609375 -9.0625 C 19.703125 -8.507812 19.75 -7.953125 19.75 -7.390625 Z M 19.75 0 "/></g></g></g><g fill="#000000" fill-opacity="1"><g transform="translate(154.136978, 180.864589)"><g><path d="M 6.859375 0.21875 C 5.910156 0.21875 5.050781 0.0546875 4.28125 -0.265625 C 3.519531 -0.585938 2.867188 -1.03125 2.328125 -1.59375 C 1.785156 -2.15625 1.363281 -2.800781 1.0625 -3.53125 C 0.769531 -4.257812 0.625 -5.03125 0.625 -5.84375 C 0.625 -6.976562 0.875 -8.007812 1.375 -8.9375 C 1.882812 -9.875 2.609375 -10.625 3.546875 -11.1875 C 4.492188 -11.75 5.609375 -12.03125 6.890625 -12.03125 C 8.179688 -12.03125 9.285156 -11.75 10.203125 -11.1875 C 11.117188 -10.625 11.820312 -9.878906 12.3125 -8.953125 C 12.800781 -8.023438 13.046875 -7.023438 13.046875 -5.953125 C 13.046875 -5.773438 13.035156 -5.59375 13.015625 -5.40625 C 13.003906 -5.21875 12.992188 -5.0625 12.984375 -4.9375 L 3.84375 -4.9375 C 3.894531 -4.34375 4.066406 -3.816406 4.359375 -3.359375 C 4.660156 -2.910156 5.039062 -2.566406 5.5 -2.328125 C 5.957031 -2.097656 6.453125 -1.984375 6.984375 -1.984375 C 7.578125 -1.984375 8.140625 -2.128906 8.671875 -2.421875 C 9.210938 -2.722656 9.582031 -3.113281 9.78125 -3.59375 L 12.375 -2.875 C 12.082031 -2.269531 11.671875 -1.734375 11.140625 -1.265625 C 10.609375 -0.796875 9.976562 -0.429688 9.25 -0.171875 C 8.53125 0.0859375 7.734375 0.21875 6.859375 0.21875 Z M 3.765625 -6.859375 L 9.953125 -6.859375 C 9.890625 -7.460938 9.71875 -7.984375 9.4375 -8.421875 C 9.164062 -8.867188 8.800781 -9.21875 8.34375 -9.46875 C 7.894531 -9.71875 7.394531 -9.84375 6.84375 -9.84375 C 6.300781 -9.84375 5.804688 -9.71875 5.359375 -9.46875 C 4.921875 -9.21875 4.5625 -8.867188 4.28125 -8.421875 C 4 -7.984375 3.828125 -7.460938 3.765625 -6.859375 Z M 3.765625 -6.859375 "/></g></g></g><g fill="#000000" fill-opacity="1"><g transform="translate(167.656416, 180.864589)"><g><path d="M 12.375 0 L 9.34375 0 L 9.34375 -6.640625 C 9.34375 -7.585938 9.175781 -8.28125 8.84375 -8.71875 C 8.519531 -9.15625 8.0625 -9.375 7.46875 -9.375 C 7.0625 -9.375 6.648438 -9.265625 6.234375 -9.046875 C 5.828125 -8.835938 5.457031 -8.546875 5.125 -8.171875 C 4.789062 -7.804688 4.550781 -7.382812 4.40625 -6.90625 L 4.40625 0 L 1.375 0 L 1.375 -11.828125 L 4.109375 -11.828125 L 4.109375 -9.640625 C 4.410156 -10.148438 4.789062 -10.582031 5.25 -10.9375 C 5.71875 -11.289062 6.257812 -11.5625 6.875 -11.75 C 7.488281 -11.9375 8.132812 -12.03125 8.8125 -12.03125 C 9.539062 -12.03125 10.140625 -11.898438 10.609375 -11.640625 C 11.085938 -11.378906 11.453125 -11.023438 11.703125 -10.578125 C 11.953125 -10.128906 12.125 -9.625 12.21875 -9.0625 C 12.320312 -8.507812 12.375 -7.953125 12.375 -7.390625 Z M 12.375 0 "/></g></g></g><g fill="#000000" fill-opacity="1"><g transform="translate(181.288701, 180.864589)"><g><path d="M 8.46875 -0.609375 C 8.207031 -0.503906 7.894531 -0.382812 7.53125 -0.25 C 7.175781 -0.113281 6.789062 -0.00390625 6.375 0.078125 C 5.957031 0.160156 5.539062 0.203125 5.125 0.203125 C 4.570312 0.203125 4.0625 0.101562 3.59375 -0.09375 C 3.125 -0.289062 2.75 -0.601562 2.46875 -1.03125 C 2.1875 -1.457031 2.046875 -2.015625 2.046875 -2.703125 L 2.046875 -9.5 L 0.5 -9.5 L 0.5 -11.828125 L 2.046875 -11.828125 L 2.046875 -15.671875 L 5.078125 -15.671875 L 5.078125 -11.828125 L 7.5625 -11.828125 L 7.5625 -9.5 L 5.078125 -9.5 L 5.078125 -3.71875 C 5.097656 -3.3125 5.210938 -3.019531 5.421875 -2.84375 C 5.628906 -2.664062 5.890625 -2.578125 6.203125 -2.578125 C 6.523438 -2.578125 6.835938 -2.628906 7.140625 -2.734375 C 7.441406 -2.835938 7.679688 -2.925781 7.859375 -3 Z M 8.46875 -0.609375 "/></g></g></g><g fill="#000000" fill-opacity="1"><g transform="translate(189.955584, 180.864589)"><g><path d="M 5.734375 0.21875 C 4.722656 0.21875 3.757812 0.0546875 2.84375 -0.265625 C 1.925781 -0.597656 1.132812 -1.085938 0.46875 -1.734375 L 1.5625 -3.703125 C 2.269531 -3.128906 2.960938 -2.707031 3.640625 -2.4375 C 4.328125 -2.164062 4.988281 -2.03125 5.625 -2.03125 C 6.207031 -2.03125 6.675781 -2.132812 7.03125 -2.34375 C 7.382812 -2.5625 7.5625 -2.878906 7.5625 -3.296875 C 7.5625 -3.578125 7.460938 -3.796875 7.265625 -3.953125 C 7.078125 -4.117188 6.796875 -4.257812 6.421875 -4.375 C 6.054688 -4.5 5.609375 -4.632812 5.078125 -4.78125 C 4.203125 -5.070312 3.472656 -5.351562 2.890625 -5.625 C 2.304688 -5.894531 1.863281 -6.234375 1.5625 -6.640625 C 1.269531 -7.054688 1.125 -7.585938 1.125 -8.234375 C 1.125 -9.023438 1.320312 -9.703125 1.71875 -10.265625 C 2.125 -10.828125 2.679688 -11.265625 3.390625 -11.578125 C 4.109375 -11.898438 4.953125 -12.0625 5.921875 -12.0625 C 6.765625 -12.0625 7.5625 -11.925781 8.3125 -11.65625 C 9.0625 -11.394531 9.742188 -10.972656 10.359375 -10.390625 L 9.140625 -8.46875 C 8.535156 -8.9375 7.960938 -9.28125 7.421875 -9.5 C 6.878906 -9.71875 6.332031 -9.828125 5.78125 -9.828125 C 5.46875 -9.828125 5.171875 -9.785156 4.890625 -9.703125 C 4.609375 -9.628906 4.378906 -9.503906 4.203125 -9.328125 C 4.035156 -9.160156 3.953125 -8.921875 3.953125 -8.609375 C 3.953125 -8.316406 4.03125 -8.09375 4.1875 -7.9375 C 4.34375 -7.78125 4.582031 -7.640625 4.90625 -7.515625 C 5.226562 -7.398438 5.625 -7.265625 6.09375 -7.109375 C 7.039062 -6.835938 7.84375 -6.554688 8.5 -6.265625 C 9.15625 -5.984375 9.644531 -5.632812 9.96875 -5.21875 C 10.300781 -4.8125 10.46875 -4.242188 10.46875 -3.515625 C 10.46875 -2.347656 10.039062 -1.429688 9.1875 -0.765625 C 8.332031 -0.109375 7.179688 0.21875 5.734375 0.21875 Z M 5.734375 0.21875 "/></g></g></g></svg>