<svg xmlns="http://www.w3.org/2000/svg" xmlns:xlink="http://www.w3.org/1999/xlink" width="300" zoomAndPan="magnify" viewBox="0 0 224.87999 225" height="300" preserveAspectRatio="xMidYMid meet" version="1.0"><defs><clipPath id="aa924b3e6b"><path d="M 9.429688 17 L 206 17 L 206 202 L 9.429688 202 Z M 9.429688 17 " clip-rule="nonzero"/></clipPath></defs><g clip-path="url(#aa924b3e6b)"><path fill="#000000" d="M 193.542969 76.351562 C 182.789062 65.027344 166.550781 60.253906 147.824219 62.90625 C 141.839844 63.75 135.828125 65.335938 129.90625 67.578125 C 124.953125 38.738281 99.601562 17.222656 70.113281 17.222656 C 36.652344 17.222656 9.429688 44.445312 9.429688 77.90625 C 9.429688 110.003906 34.066406 136.230469 65.847656 138.421875 C 61.386719 157.320312 64.519531 175.453125 76.214844 187.769531 C 85.027344 197.046875 97.523438 201.929688 112.058594 201.929688 C 115.257812 201.929688 118.554688 201.691406 121.933594 201.214844 C 140.472656 198.589844 159.269531 188.988281 174.871094 174.171875 C 207.21875 143.457031 215.59375 99.574219 193.542969 76.351562 Z M 12.550781 77.90625 C 12.550781 46.164062 38.375 20.34375 70.113281 20.34375 C 98.304688 20.34375 122.511719 41.070312 126.9375 68.753906 C 124.003906 69.984375 121.101562 71.386719 118.238281 72.933594 C 115.742188 48.402344 95.0625 29.527344 70.113281 29.527344 C 43.4375 29.527344 21.734375 51.230469 21.734375 77.90625 C 21.734375 104.460938 43.242188 126.078125 69.75 126.277344 C 68.527344 129.300781 67.484375 132.332031 66.644531 135.351562 C 36.21875 133.550781 12.550781 108.550781 12.550781 77.90625 Z M 71.082031 123.144531 C 70.757812 123.152344 70.4375 123.167969 70.113281 123.167969 C 45.15625 123.167969 24.851562 102.863281 24.851562 77.90625 C 24.851562 52.949219 45.15625 32.644531 70.113281 32.644531 C 93.914062 32.644531 113.550781 51.007812 115.242188 74.617188 C 108.085938 78.796875 101.21875 83.933594 94.886719 89.949219 C 84.304688 100 76.304688 111.460938 71.082031 123.144531 Z M 172.722656 171.910156 C 157.589844 186.285156 139.394531 195.59375 121.5 198.128906 C 103.792969 200.636719 88.515625 196.195312 78.476562 185.621094 C 57.609375 163.648438 65.9375 121.746094 97.035156 92.210938 C 112.167969 77.839844 130.363281 68.527344 148.257812 65.992188 C 165.964844 63.488281 181.242188 67.929688 191.277344 78.5 C 212.148438 100.472656 203.820312 142.378906 172.722656 171.910156 Z M 172.722656 171.910156 " fill-opacity="1" fill-rule="nonzero"/></g><path fill="#000000" d="M 175.082031 76.199219 C 174.355469 75.738281 173.390625 75.953125 172.929688 76.679688 C 172.472656 77.410156 172.6875 78.371094 173.414062 78.832031 C 175.441406 80.117188 177.296875 81.644531 178.9375 83.367188 C 186.796875 91.644531 189.34375 104.09375 186.101562 118.417969 C 182.808594 132.96875 173.964844 147.660156 161.203125 159.777344 C 135.019531 184.640625 100.378906 190.820312 83.972656 173.546875 C 81.007812 170.421875 78.777344 166.667969 77.34375 162.398438 C 77.070312 161.582031 76.183594 161.144531 75.371094 161.417969 C 74.554688 161.691406 74.113281 162.574219 74.386719 163.390625 C 75.96875 168.097656 78.429688 172.234375 81.714844 175.695312 C 88.582031 182.921875 98.339844 186.394531 109.328125 186.394531 C 126.488281 186.394531 146.628906 177.921875 163.351562 162.042969 C 176.554688 149.5 185.71875 134.253906 189.144531 119.105469 C 192.625 103.734375 189.800781 90.277344 181.199219 81.222656 C 179.382812 79.308594 177.328125 77.617188 175.082031 76.199219 Z M 175.082031 76.199219 " fill-opacity="1" fill-rule="nonzero"/><path fill="#000000" d="M 99.761719 152.429688 C 103.582031 152.429688 107.953125 150.28125 111.394531 146.347656 C 116.695312 140.273438 117.480469 132.574219 113.179688 128.820312 C 111.039062 126.953125 108.023438 126.414062 104.6875 127.304688 C 101.574219 128.136719 98.503906 130.140625 96.050781 132.949219 C 93.597656 135.761719 92.023438 139.070312 91.621094 142.269531 C 91.1875 145.695312 92.125 148.609375 94.265625 150.480469 C 95.78125 151.800781 97.691406 152.429688 99.761719 152.429688 Z M 109.042969 144.296875 C 106.285156 147.457031 102.671875 149.269531 99.746094 149.28125 C 99.339844 146.308594 100.730469 142.480469 103.425781 139.390625 C 106.121094 136.304688 109.730469 134.40625 112.730469 134.410156 C 113.113281 137.3125 111.800781 141.140625 109.042969 144.296875 Z M 94.714844 142.660156 C 95.042969 140.070312 96.351562 137.351562 98.402344 135 C 100.449219 132.65625 102.96875 130.992188 105.492188 130.316406 C 106.269531 130.109375 107.015625 130.003906 107.710938 130.003906 C 109.070312 130.003906 110.246094 130.398438 111.125 131.167969 C 111.207031 131.238281 111.273438 131.320312 111.347656 131.398438 C 107.796875 131.859375 104.003906 133.988281 101.074219 137.339844 C 98.148438 140.691406 96.546875 144.734375 96.570312 148.316406 C 96.484375 148.253906 96.394531 148.199219 96.316406 148.128906 C 94.984375 146.964844 94.417969 145.023438 94.714844 142.660156 Z M 94.714844 142.660156 " fill-opacity="1" fill-rule="nonzero"/><path fill="#000000" d="M 130.871094 116.734375 C 131.839844 116.734375 132.863281 116.59375 133.914062 116.316406 C 137.03125 115.484375 140.09375 113.476562 142.550781 110.667969 C 147.851562 104.597656 148.636719 96.898438 144.335938 93.140625 C 142.195312 91.273438 139.183594 90.738281 135.84375 91.625 C 132.730469 92.457031 129.660156 94.460938 127.207031 97.273438 C 124.753906 100.082031 123.179688 103.390625 122.777344 106.589844 C 122.34375 110.015625 123.28125 112.933594 125.421875 114.800781 C 126.886719 116.078125 128.761719 116.734375 130.871094 116.734375 Z M 140.199219 108.617188 C 138.152344 110.964844 135.628906 112.628906 133.109375 113.300781 C 132.328125 113.511719 131.597656 113.574219 130.898438 113.574219 C 130.507812 110.601562 131.894531 106.789062 134.585938 103.710938 C 137.277344 100.625 140.882812 98.730469 143.890625 98.734375 C 144.269531 101.636719 142.957031 105.460938 140.199219 108.617188 Z M 125.871094 106.980469 C 126.199219 104.390625 127.507812 101.671875 129.558594 99.324219 C 131.605469 96.976562 134.125 95.3125 136.648438 94.640625 C 137.425781 94.429688 138.171875 94.328125 138.867188 94.328125 C 140.226562 94.328125 141.402344 94.722656 142.28125 95.492188 C 142.363281 95.5625 142.429688 95.644531 142.503906 95.722656 C 138.957031 96.179688 135.160156 98.3125 132.234375 101.660156 C 129.3125 105.007812 127.710938 109.039062 127.726562 112.609375 C 127.644531 112.550781 127.550781 112.519531 127.472656 112.453125 C 126.140625 111.289062 125.574219 109.347656 125.871094 106.980469 Z M 125.871094 106.980469 " fill-opacity="1" fill-rule="nonzero"/><path fill="#000000" d="M 57.96875 60.671875 C 54.359375 60.671875 51.425781 63.605469 51.425781 67.214844 C 51.425781 70.824219 54.359375 73.757812 57.96875 73.757812 C 61.578125 73.757812 64.511719 70.824219 64.511719 67.214844 C 64.511719 63.605469 61.578125 60.671875 57.96875 60.671875 Z M 57.96875 70.640625 C 56.078125 70.640625 54.542969 69.101562 54.542969 67.214844 C 54.542969 65.328125 56.078125 63.789062 57.96875 63.789062 C 59.855469 63.789062 61.394531 65.324219 61.394531 67.214844 C 61.394531 69.101562 59.859375 70.640625 57.96875 70.640625 Z M 57.96875 70.640625 " fill-opacity="1" fill-rule="nonzero"/><path fill="#000000" d="M 82.257812 60.671875 C 78.652344 60.671875 75.714844 63.605469 75.714844 67.214844 C 75.714844 70.824219 78.652344 73.757812 82.257812 73.757812 C 85.867188 73.757812 88.800781 70.824219 88.800781 67.214844 C 88.800781 63.605469 85.867188 60.671875 82.257812 60.671875 Z M 82.257812 70.640625 C 80.371094 70.640625 78.835938 69.101562 78.835938 67.214844 C 78.835938 65.328125 80.371094 63.789062 82.257812 63.789062 C 84.148438 63.789062 85.683594 65.324219 85.683594 67.214844 C 85.683594 69.101562 84.148438 70.640625 82.257812 70.640625 Z M 82.257812 70.640625 " fill-opacity="1" fill-rule="nonzero"/><path fill="#000000" d="M 57.96875 82.054688 C 54.359375 82.054688 51.425781 84.988281 51.425781 88.597656 C 51.425781 92.207031 54.359375 95.140625 57.96875 95.140625 C 61.578125 95.140625 64.511719 92.207031 64.511719 88.597656 C 64.511719 84.988281 61.578125 82.054688 57.96875 82.054688 Z M 57.96875 92.023438 C 56.078125 92.023438 54.542969 90.484375 54.542969 88.597656 C 54.542969 86.710938 56.078125 85.171875 57.96875 85.171875 C 59.855469 85.171875 61.394531 86.707031 61.394531 88.597656 C 61.394531 90.484375 59.859375 92.023438 57.96875 92.023438 Z M 57.96875 92.023438 " fill-opacity="1" fill-rule="nonzero"/><path fill="#000000" d="M 82.257812 82.054688 C 78.652344 82.054688 75.714844 84.988281 75.714844 88.597656 C 75.714844 92.207031 78.652344 95.140625 82.257812 95.140625 C 85.867188 95.140625 88.800781 92.207031 88.800781 88.597656 C 88.800781 84.988281 85.867188 82.054688 82.257812 82.054688 Z M 82.257812 92.023438 C 80.371094 92.023438 78.835938 90.484375 78.835938 88.597656 C 78.835938 86.710938 80.371094 85.171875 82.257812 85.171875 C 84.148438 85.171875 85.683594 86.707031 85.683594 88.597656 C 85.683594 90.484375 84.148438 92.023438 82.257812 92.023438 Z M 82.257812 92.023438 " fill-opacity="1" fill-rule="nonzero"/></svg>