<svg id="visual" viewBox="0 0 900 600" width="900" height="600" xmlns="http://www.w3.org/2000/svg" xmlns:xlink="http://www.w3.org/1999/xlink" version="1.1"><rect x="0" y="0" width="900" height="600" fill="#d8f3d5"></rect><path d="M0 528L21.5 532.7C43 537.3 86 546.7 128.8 552.2C171.7 557.7 214.3 559.3 257.2 559.8C300 560.3 343 559.7 385.8 554.7C428.7 549.7 471.3 540.3 514.2 546.5C557 552.7 600 574.3 642.8 569.2C685.7 564 728.3 532 771.2 522C814 512 857 524 878.5 530L900 536L900 601L878.5 601C857 601 814 601 771.2 601C728.3 601 685.7 601 642.8 601C600 601 557 601 514.2 601C471.3 601 428.7 601 385.8 601C343 601 300 601 257.2 601C214.3 601 171.7 601 128.8 601C86 601 43 601 21.5 601L0 601Z" fill="#FFFFFF" stroke-linecap="round" stroke-linejoin="miter"></path></svg>