<svg id="Layer_1" data-name="Layer 1" xmlns="http://www.w3.org/2000/svg" xmlns:xlink="http://www.w3.org/1999/xlink" viewBox="0 0 638 638"><defs><style>.cls-1{isolation:isolate;}.cls-2{fill:url(#linear-gradient);}.cls-3{fill:#fff;}</style><linearGradient id="linear-gradient" x1="500.02" y1="818.88" x2="500.02" y2="180.87" gradientTransform="matrix(1, 0, 0, -1, -0.02, 999.88)" gradientUnits="userSpaceOnUse"><stop offset="0" stop-color="#61fd7d"/><stop offset="1" stop-color="#2bb826"/></linearGradient></defs><title>WhatsApp Logo Vector</title><g class="cls-1"><path id="SVGID" class="cls-2" d="M819,657.1c0,3.49-.11,11.06-.32,16.92-.51,14.32-1.64,32.79-3.36,41.21-2.58,12.65-6.48,24.59-11.55,34.53a123,123,0,0,1-54.13,54.07c-10,5.09-22,9-34.73,11.55-8.33,1.69-26.67,2.8-40.9,3.31-5.86.21-13.43.31-16.91.31L342.9,819c-3.49,0-11.06-.11-16.92-.32-14.32-.51-32.79-1.64-41.21-3.36-12.65-2.58-24.59-6.48-34.53-11.55a123,123,0,0,1-54.07-54.13c-5.09-10-9-22-11.55-34.73-1.69-8.33-2.8-26.67-3.31-40.9-.21-5.85-.31-13.43-.31-16.91l.05-314.15c0-3.49.11-11.06.32-16.92.51-14.32,1.65-32.79,3.36-41.21,2.58-12.65,6.48-24.59,11.55-34.53a123,123,0,0,1,54.13-54.07c10-5.09,22-9,34.73-11.55,8.33-1.69,26.67-2.8,40.9-3.31,5.86-.2,13.43-.31,16.91-.31l314.15.05c3.49,0,11.06.11,16.92.32,14.32.51,32.79,1.64,41.21,3.36,12.65,2.58,24.59,6.48,34.53,11.55a123,123,0,0,1,54.07,54.13c5.09,10,9,22,11.55,34.73,1.69,8.33,2.8,26.67,3.31,40.9.21,5.86.31,13.43.31,16.91Z" transform="translate(-181 -181)"/></g><g id="logo"><path class="cls-3" d="M669,331.94a227.38,227.38,0,0,0-161.84-67.08c-126.1,0-228.73,102.6-228.78,228.7A228.2,228.2,0,0,0,308.94,607.9L276.49,726.41l121.28-31.8A228.71,228.71,0,0,0,507.1,722.45h.09c126.09,0,228.73-102.61,228.78-228.71A227.28,227.28,0,0,0,669,331.94ZM507.19,683.82h-.08a189.88,189.88,0,0,1-96.78-26.5l-6.94-4.12-72,18.88,19.21-70.15-4.53-7.19A189.7,189.7,0,0,1,317,493.57c0-104.81,85.35-190.08,190.24-190.08A190.15,190.15,0,0,1,697.34,493.73C697.3,598.54,612,683.82,507.19,683.82Zm104.3-142.37c-5.71-2.86-33.82-16.68-39.06-18.59s-9-2.86-12.86,2.86-14.76,18.59-18.1,22.41-6.67,4.29-12.38,1.43-24.14-8.9-46-28.37c-17-15.15-28.46-33.86-31.8-39.59s-.35-8.81,2.51-11.66c2.57-2.56,5.72-6.67,8.58-10s3.81-5.72,5.71-9.54.95-7.15-.48-10S454.77,409.39,450,398c-4.64-11.14-9.35-9.63-12.86-9.81-3.33-.16-7.15-.2-11-.2A21,21,0,0,0,411,395.09c-5.24,5.72-20,19.55-20,47.68s20.48,55.3,23.34,59.11,40.31,61.54,97.66,86.29a325.78,325.78,0,0,0,32.59,12c13.69,4.35,26.15,3.74,36,2.26,11-1.64,33.82-13.82,38.59-27.17s4.76-24.79,3.33-27.17S617.21,544.31,611.49,541.45Z" transform="translate(-181 -181)"/></g></svg>