<?xml version="1.0" standalone="no"?>
<!DOCTYPE svg PUBLIC "-//W3C//DTD SVG 20010904//EN"
 "http://www.w3.org/TR/2001/REC-SVG-20010904/DTD/svg10.dtd">
<svg version="1.0" xmlns="http://www.w3.org/2000/svg"
 width="150.000000pt" height="150.000000pt" viewBox="0 0 150.000000 150.000000"
 preserveAspectRatio="xMidYMid meet">
<metadata>
Created by potrace 1.14, written by Peter Selinger 2001-2017
</metadata>
<g transform="translate(0.000000,150.000000) scale(0.100000,-0.100000)"
fill="#000000" stroke="none">
<path d="M693 1240 c-3 -11 -12 -20 -19 -20 -8 0 -14 -4 -14 -10 0 -5 5 -10
10 -10 7 0 7 -6 0 -19 -14 -26 -13 -28 10 -34 11 -3 19 -9 18 -14 -4 -11 8
-14 28 -6 9 3 20 0 25 -8 7 -11 10 -9 15 8 3 11 16 24 27 27 16 4 19 8 9 14
-7 5 -11 18 -10 30 2 11 -1 21 -7 21 -5 0 -13 9 -17 21 -6 17 -11 19 -28 10
-13 -7 -20 -7 -20 0 0 18 -22 11 -27 -10z"/>
<path d="M566 1176 c-11 -27 -21 -35 -50 -40 -31 -6 -42 -3 -67 18 -24 20 -35
24 -49 16 -29 -15 -32 -27 -20 -65 10 -29 9 -39 -6 -65 -18 -30 -24 -32 -76
-33 -16 0 -28 -5 -29 -11 0 -6 -2 -21 -5 -33 -3 -18 4 -26 33 -40 29 -14 39
-26 44 -53 6 -29 4 -39 -17 -61 -28 -29 -30 -46 -8 -70 15 -17 19 -17 51 -4
33 14 38 13 69 -6 29 -18 34 -26 34 -59 0 -31 4 -39 23 -44 39 -10 45 -7 58
28 19 52 78 62 123 21 21 -20 31 -23 46 -15 29 15 32 26 19 69 -10 35 -9 42 9
68 16 22 29 29 57 30 42 1 41 0 50 35 6 24 2 29 -33 47 -31 16 -41 27 -45 53
-4 27 1 39 24 63 l28 30 -23 29 c-22 29 -23 29 -56 13 -31 -16 -34 -16 -66 4
-30 18 -34 25 -34 65 0 44 0 44 -35 44 -30 0 -37 -5 -49 -34z m51 -181 c12 -8
27 -31 33 -50 23 -69 -38 -136 -111 -121 -111 22 -94 186 19 186 21 0 47 -7
59 -15z"/>
<path d="M850 1055 c0 -9 -6 -18 -13 -21 -7 -2 -13 -20 -13 -39 0 -22 5 -35
13 -35 7 0 13 -6 13 -14 0 -9 13 -13 40 -13 22 0 38 2 35 5 -7 7 16 33 25 27
4 -2 6 12 4 33 -1 20 -7 36 -13 35 -5 -2 -13 6 -16 17 -7 21 -25 28 -25 10 0
-7 -6 -7 -19 0 -26 14 -31 13 -31 -5z"/>
<path d="M977 953 c-4 -3 -7 -14 -7 -24 0 -21 -27 -29 -58 -15 -31 13 -52 -6
-34 -34 15 -25 6 -49 -24 -61 -31 -11 -31 -37 0 -48 29 -12 39 -36 25 -62 -7
-15 -7 -24 1 -34 10 -12 15 -12 34 0 19 13 25 13 44 0 12 -9 19 -22 16 -30 -5
-11 1 -15 19 -15 18 0 27 7 31 24 6 24 41 41 52 25 8 -14 41 -11 47 5 3 7 1
18 -5 24 -16 16 -1 62 21 62 10 0 22 8 25 17 7 17 -9 33 -31 33 -17 0 -28 47
-15 63 7 8 7 17 -2 28 -10 14 -15 15 -29 4 -25 -18 -56 -7 -63 21 -6 23 -32
32 -47 17z m51 -119 c26 -18 28 -50 5 -76 -19 -21 -43 -23 -65 -5 -28 21 -31
54 -9 76 25 25 39 26 69 5z"/>
<path d="M746 602 c-11 -10 -6 -52 5 -52 8 0 8 -4 0 -14 -8 -9 -11 -45 -9 -98
3 -87 2 -85 49 -79 6 0 10 13 9 29 -3 46 -1 48 20 14 34 -55 103 -63 149 -18
22 22 24 33 25 118 l1 93 -27 3 c-26 3 -28 0 -28 -30 0 -31 -2 -33 -32 -32
-55 2 -97 -29 -98 -73 0 -13 -4 -23 -8 -23 -5 0 -7 21 -6 46 2 32 -2 47 -12
51 -12 4 -12 8 3 19 14 10 16 17 7 30 -10 17 -38 27 -48 16z m178 -118 c27
-10 20 -62 -9 -76 -30 -13 -55 3 -55 36 0 37 27 54 64 40z"/>
<path d="M1006 488 c2 -147 0 -135 22 -135 27 0 40 16 37 45 l-3 26 31 -34
c22 -25 40 -34 64 -36 18 -1 33 1 33 3 0 2 -16 25 -35 50 l-35 45 30 36 c37
45 37 52 3 52 -20 0 -37 -11 -59 -37 l-32 -37 3 72 2 72 -31 0 -32 0 2 -122z"/>
<path d="M180 468 l0 -115 67 3 c54 2 71 7 90 27 42 41 43 121 3 167 -18 20
-33 25 -91 28 l-69 4 0 -114z m126 36 c30 -45 -1 -104 -55 -104 -19 0 -21 6
-21 63 0 35 2 66 5 69 12 12 57 -6 71 -28z"/>
<path d="M417 533 c-4 -3 -7 -14 -7 -23 0 -13 9 -17 41 -16 23 1 44 -4 46 -10
2 -6 -4 -11 -14 -11 -75 0 -103 -15 -103 -57 0 -36 34 -59 86 -58 64 1 84 21
84 88 0 68 -24 94 -85 94 -23 0 -45 -3 -48 -7z m83 -107 c0 -17 -27 -28 -51
-21 -36 12 -20 35 23 35 17 0 28 -5 28 -14z"/>
<path d="M576 449 c19 -50 34 -93 34 -94 0 -4 50 2 54 6 3 2 18 43 35 92 26
76 28 87 13 87 -28 0 -38 -13 -57 -69 l-18 -55 -21 60 c-18 50 -25 59 -48 62
l-26 3 34 -92z"/>
<path d="M1207 533 c-13 -27 0 -38 41 -35 31 3 42 0 42 -10 0 -10 -13 -14 -41
-15 -103 -2 -104 -105 0 -117 34 -4 90 18 92 36 9 81 6 102 -17 125 -17 17
-34 23 -68 23 -25 0 -47 -3 -49 -7z m87 -102 c10 -16 -21 -32 -48 -25 -28 7
-34 19 -13 27 20 9 55 8 61 -2z"/>
<path d="M991 218 c-1 -33 -11 -36 -29 -8 -19 30 -32 24 -32 -15 0 -19 5 -35
11 -35 6 0 9 9 6 20 -7 27 -1 25 27 -7 l23 -27 5 31 c2 17 1 39 -3 49 -6 16
-8 14 -8 -8z"/>
<path d="M1240 197 c0 -26 4 -47 9 -47 9 0 5 80 -5 89 -2 2 -4 -17 -4 -42z"/>
<path d="M262 195 c0 -19 4 -35 9 -35 4 0 6 7 3 15 -4 8 -2 15 4 15 5 0 13 -8
16 -17 6 -15 8 -15 16 -3 13 19 13 33 1 25 -6 -3 -15 4 -21 15 -16 30 -28 24
-28 -15z"/>
<path d="M325 220 c-3 -5 -1 -18 4 -28 6 -11 7 -22 4 -26 -3 -3 -1 -6 5 -6 6
0 10 15 9 35 -2 35 -10 44 -22 25z"/>
<path d="M432 195 c1 -19 5 -35 10 -35 5 0 8 16 6 35 -1 19 -6 35 -10 35 -4 0
-7 -16 -6 -35z"/>
<path d="M537 223 c-13 -13 -7 -24 21 -35 l27 -11 -30 -6 c-24 -5 -26 -8 -12
-13 9 -4 24 -5 32 -2 22 9 18 35 -5 41 -27 7 -25 21 3 26 20 4 20 4 -4 6 -14
0 -29 -2 -32 -6z"/>
<path d="M672 195 c1 -19 5 -35 10 -35 5 0 8 16 6 35 -1 19 -6 35 -10 35 -4 0
-7 -16 -6 -35z"/>
<path d="M774 206 c-7 -30 -1 -42 25 -49 32 -8 55 15 47 46 -5 22 -12 27 -36
27 -23 0 -31 -5 -36 -24z m51 6 c17 -12 12 -36 -9 -40 -21 -4 -37 14 -29 35 6
14 22 17 38 5z"/>
<path d="M1097 195 c-20 -42 -22 -54 -5 -37 16 16 55 15 61 0 4 -10 6 -10 6 0
1 17 -27 72 -37 72 -5 0 -16 -16 -25 -35z m29 -12 c-10 -10 -19 5 -10 18 6 11
8 11 12 0 2 -7 1 -15 -2 -18z"/>
<path d="M1270 159 c0 -5 5 -7 10 -4 6 3 10 8 10 11 0 2 -4 4 -10 4 -5 0 -10
-5 -10 -11z"/>
</g>
</svg>
