<svg xmlns="http://www.w3.org/2000/svg" xmlns:xlink="http://www.w3.org/1999/xlink" width="300" zoomAndPan="magnify" viewBox="0 0 224.87999 225" height="300" preserveAspectRatio="xMidYMid meet" version="1.0"><defs><clipPath id="9783ab12f7"><path d="M 10.121094 9 L 213 9 L 213 224.9375 L 10.121094 224.9375 Z M 10.121094 9 " clip-rule="nonzero"/></clipPath><clipPath id="2a33c6f049"><path d="M 86 0.0585938 L 126 0.0585938 L 126 35 L 86 35 Z M 86 0.0585938 " clip-rule="nonzero"/></clipPath></defs><g clip-path="url(#9783ab12f7)"><path fill="#000000" d="M 149.007812 224.949219 C 148.246094 220.234375 147.367188 215.53125 146.761719 210.796875 C 145.683594 202.382812 144.851562 193.9375 143.773438 185.527344 C 143.042969 179.851562 142.148438 174.191406 141.171875 168.550781 C 139.808594 160.703125 138.703125 152.777344 136.742188 145.074219 C 134.636719 136.804688 131.648438 128.765625 129.074219 120.617188 C 128.542969 118.941406 127.347656 118.308594 125.757812 118.410156 C 114.179688 119.152344 102.601562 119.941406 91.027344 120.703125 C 90.015625 120.769531 88.992188 120.855469 87.984375 120.78125 C 86.511719 120.671875 85.570312 119.882812 85.421875 118.328125 C 85.269531 116.726562 86.101562 115.808594 87.589844 115.597656 C 89.953125 115.265625 92.335938 115.046875 94.714844 114.820312 C 106.554688 113.695312 118.394531 112.570312 130.234375 111.460938 C 138.753906 110.660156 147.285156 109.941406 155.792969 109.066406 C 158.367188 108.800781 160.960938 108.34375 163.429688 107.601562 C 165.738281 106.90625 166.320312 105.539062 165.632812 103.175781 C 163.992188 97.515625 160.265625 93.375 154.964844 91.246094 C 147.523438 88.257812 139.8125 85.945312 132.210938 83.359375 C 122.882812 80.183594 113.539062 81.8125 104.246094 83.460938 C 92.5 85.546875 81.25 89.234375 70.335938 94.101562 C 57.023438 100.042969 47.863281 109.667969 42.726562 123.28125 C 40.761719 128.492188 38.355469 133.539062 36.324219 138.726562 C 34.976562 142.164062 36.140625 145.113281 38.726562 147.585938 C 42.1875 150.898438 45.699219 154.160156 49.085938 157.550781 C 53.464844 161.9375 58.925781 164.691406 64.179688 167.753906 C 65.257812 168.378906 66.730469 168.300781 67.875 168.847656 C 68.863281 169.324219 70.117188 170.074219 70.410156 170.976562 C 70.859375 172.355469 70.859375 174.039062 70.523438 175.46875 C 70.304688 176.386719 69.226562 177.609375 68.382812 177.742188 C 67.402344 177.894531 66.074219 177.230469 65.21875 176.527344 C 63.121094 174.808594 61.496094 172.328125 59.175781 171.109375 C 51.398438 167.015625 44.894531 161.472656 39.117188 154.960938 C 38.78125 154.582031 38.476562 154.152344 38.082031 153.84375 C 36.972656 152.980469 35.820312 152.167969 34.6875 151.335938 C 33.933594 152.617188 32.851562 153.808594 32.484375 155.191406 C 29.4375 166.742188 27.417969 178.46875 28.015625 190.449219 C 28.484375 199.789062 29.507812 209.105469 30.242188 218.4375 C 30.414062 220.601562 30.425781 222.777344 30.511719 224.949219 L 25.285156 224.949219 C 24.652344 218.6875 23.90625 212.429688 23.402344 206.15625 C 21.941406 187.875 22.859375 169.769531 27.597656 151.964844 C 27.992188 150.496094 28.382812 149.023438 28.703125 147.539062 C 29.34375 144.597656 28.808594 142 26.738281 139.65625 C 21.089844 133.273438 17.195312 125.800781 14.144531 117.933594 C 13.015625 115.019531 12.859375 111.71875 12.351562 108.578125 C 10.679688 98.15625 10.226562 87.667969 10.488281 77.125 C 11.085938 53 22.417969 37.109375 45.058594 28.515625 C 53.078125 25.472656 61.238281 23.578125 69.863281 23.652344 C 80.460938 23.75 89.03125 27.675781 95.105469 36.535156 C 97.488281 40.003906 99.785156 43.535156 102.171875 47 C 104.480469 50.347656 105.886719 50.101562 107.789062 46.484375 C 109.265625 43.671875 110.882812 40.859375 112.898438 38.433594 C 116.886719 33.636719 121.160156 29.078125 125.382812 24.488281 C 126.355469 23.433594 127.496094 22.425781 128.753906 21.765625 C 137.824219 17.007812 147.117188 12.585938 157.175781 10.550781 C 165.550781 8.855469 174.035156 8.632812 181.746094 13.785156 C 190.585938 19.699219 197.878906 27.015625 201.71875 37.015625 C 205.164062 45.992188 208.457031 55.121094 210.683594 64.449219 C 214.644531 81.050781 211.695312 96.496094 201.027344 110.261719 C 192.84375 120.824219 184.457031 131.152344 175.066406 140.714844 C 167.152344 148.769531 159.988281 157.5625 152.460938 166.003906 C 151.457031 167.128906 150.40625 168.324219 149.132812 169.074219 C 147.847656 169.828125 147.53125 170.667969 147.714844 172 C 149.835938 187.804688 151.929688 203.609375 154.066406 219.414062 C 154.316406 221.273438 154.753906 223.105469 155.105469 224.953125 L 149.007812 224.953125 Z M 134.367188 117.464844 C 134.796875 119.371094 134.988281 121.117188 135.582031 122.710938 C 139.652344 133.609375 142.335938 144.875 144.601562 156.253906 C 145.332031 159.941406 146.558594 160.628906 150.015625 159.195312 C 150.792969 158.875 151.535156 158.335938 152.121094 157.726562 C 156.742188 152.914062 161.304688 148.039062 165.925781 143.222656 C 171.300781 137.625 176.980469 132.296875 182.035156 126.425781 C 187.566406 120.003906 192.308594 112.902344 197.792969 106.4375 C 208.558594 93.734375 210.273438 79.203125 206.773438 63.675781 C 205.457031 57.835938 203.21875 52.195312 201.234375 46.523438 C 197.074219 34.628906 190.132812 24.90625 178.964844 18.570312 C 175.238281 16.457031 171.316406 15.226562 166.960938 15.300781 C 156.992188 15.476562 147.667969 18.355469 138.589844 22.101562 C 131.921875 24.855469 127.042969 30.082031 122.207031 35.183594 C 115.519531 42.242188 108.617188 49.234375 107.796875 59.8125 C 107.722656 60.734375 106.394531 62.035156 105.433594 62.265625 C 104.699219 62.441406 103.296875 61.40625 102.78125 60.554688 C 101.980469 59.222656 101.53125 57.625 101.195312 56.085938 C 100.078125 50.925781 97.777344 46.371094 94.300781 42.453125 C 91.996094 39.851562 89.527344 37.386719 87.03125 34.960938 C 84.15625 32.164062 80.710938 30.265625 76.726562 29.71875 C 63.996094 27.96875 51.875 30.09375 40.429688 35.910156 C 31.714844 40.339844 24.304688 46.226562 19.816406 55.1875 C 15.492188 63.824219 13.09375 73.101562 13.269531 82.648438 C 13.433594 91.589844 14.570312 100.589844 16.128906 109.414062 C 17.445312 116.851562 21.007812 123.632812 25.066406 130.03125 C 26.519531 132.320312 28.25 134.433594 30.113281 136.980469 C 30.742188 135.914062 31.171875 135.289062 31.496094 134.613281 C 34.660156 128.011719 37.964844 121.476562 40.917969 114.78125 C 46.375 102.425781 55.632812 94.089844 67.902344 88.992188 C 73.375 86.71875 79.054688 84.921875 84.691406 83.058594 C 95.398438 79.515625 106.351562 76.878906 117.644531 76.539062 C 133.4375 76.066406 147.875 81.191406 161.492188 88.683594 C 166.402344 91.386719 169.519531 95.917969 170.984375 101.457031 C 172.726562 108.046875 169.410156 113.007812 162.570312 113.8125 C 154.503906 114.757812 146.425781 115.601562 138.359375 116.539062 C 137.09375 116.6875 135.863281 117.113281 134.363281 117.46875 Z M 134.367188 117.464844 " fill-opacity="1" fill-rule="nonzero"/></g><g clip-path="url(#2a33c6f049)"><path fill="#000000" d="M 95.789062 0.605469 C 98.054688 0.46875 100.109375 1.390625 101.808594 3.148438 C 102.511719 3.878906 103.175781 4.644531 103.816406 5.429688 C 106.054688 8.175781 106.117188 8.160156 108.226562 5.230469 C 110.835938 1.613281 114.410156 0.0703125 118.8125 0.671875 C 122.875 1.222656 125.953125 5.929688 125.640625 10.960938 C 125.390625 14.949219 123.558594 18.316406 121.304688 21.464844 C 117.800781 26.355469 113.191406 30.117188 108.441406 33.714844 C 106.667969 35.058594 104.84375 35.003906 103.355469 33.40625 C 98.429688 28.105469 93.296875 22.957031 88.847656 17.277344 C 86.515625 14.300781 85.746094 10.320312 87.261719 6.363281 C 88.683594 2.644531 91.617188 0.5625 95.789062 0.605469 Z M 95.789062 0.605469 " fill-opacity="1" fill-rule="nonzero"/></g><path fill="#000000" d="M 118.539062 101.878906 C 118.523438 103.539062 117.164062 104.742188 115.261719 104.765625 C 113.085938 104.796875 111.5 103.265625 111.535156 101.175781 C 111.566406 99.246094 113.035156 97.765625 114.953125 97.726562 C 117.167969 97.679688 118.558594 99.292969 118.539062 101.878906 Z M 118.539062 101.878906 " fill-opacity="1" fill-rule="nonzero"/><path fill="#000000" d="M 151.191406 97.917969 C 151.117188 99.828125 149.5625 101.28125 147.636719 101.25 C 145.644531 101.21875 144.085938 99.558594 144.1875 97.578125 C 144.289062 95.652344 145.816406 94.222656 147.753906 94.246094 C 149.742188 94.269531 151.269531 95.902344 151.191406 97.917969 Z M 151.191406 97.917969 " fill-opacity="1" fill-rule="nonzero"/></svg>