<svg xmlns="http://www.w3.org/2000/svg" xmlns:xlink="http://www.w3.org/1999/xlink" width="300"
    zoomAndPan="magnify" viewBox="0 0 224.87999 225" height="300"
    preserveAspectRatio="xMidYMid meet" version="1.0">
    <defs>
        <clipPath id="6a6c22442f">
            <path d="M 6.125 15.351562 L 219 15.351562 L 219 206 L 6.125 206 Z M 6.125 15.351562 "
                clip-rule="nonzero" />
        </clipPath>
        <clipPath id="0b84febaaa">
            <path d="M 126 165 L 163 165 L 163 209.5 L 126 209.5 Z M 126 165 " clip-rule="nonzero" />
        </clipPath>
    </defs>
    <path fill="#ffffff"
        d="M 154.3125 21.949219 C 154.488281 21.949219 154.8125 21.800781 155.046875 21.652344 C 155.28125 21.507812 155.371094 21.359375 155.195312 21.359375 C 155.046875 21.359375 154.695312 21.507812 154.460938 21.652344 C 154.226562 21.800781 154.164062 21.949219 154.3125 21.949219 Z M 154.3125 21.949219 "
        fill-opacity="1" fill-rule="nonzero" />
    <path fill="#ffffff"
        d="M 164.898438 23.125 C 165.136719 22.742188 164.753906 22.742188 164.164062 23.125 C 163.78125 23.359375 163.78125 23.417969 164.222656 23.417969 C 164.488281 23.417969 164.8125 23.269531 164.898438 23.125 Z M 164.898438 23.125 "
        fill-opacity="1" fill-rule="nonzero" />
    <path fill="#ffffff"
        d="M 149.753906 23.566406 C 149.753906 23.359375 149.726562 23.359375 148.578125 24.007812 C 148.019531 24.328125 147.667969 24.566406 147.785156 24.59375 C 148.109375 24.59375 149.753906 23.742188 149.753906 23.566406 Z M 149.753906 23.566406 "
        fill-opacity="1" fill-rule="nonzero" />
    <path fill="#ffffff"
        d="M 162.988281 25.035156 C 163.546875 24.828125 163.8125 24.652344 163.574219 24.652344 C 163.339844 24.652344 162.664062 24.828125 162.105469 25.035156 C 161.546875 25.242188 161.285156 25.417969 161.519531 25.417969 C 161.753906 25.417969 162.429688 25.242188 162.988281 25.035156 Z M 162.988281 25.035156 "
        fill-opacity="1" fill-rule="nonzero" />
    <path fill="#ffffff"
        d="M 146.078125 25.566406 C 146.371094 25.683594 146.492188 25.652344 146.34375 25.449219 C 146.226562 25.210938 146.371094 25.183594 146.84375 25.328125 C 147.402344 25.476562 147.460938 25.449219 147.109375 25.210938 C 146.578125 24.828125 146.492188 24.828125 145.992188 25.152344 C 145.667969 25.359375 145.695312 25.417969 146.078125 25.566406 Z M 146.078125 25.566406 "
        fill-opacity="1" fill-rule="nonzero" />
    <path fill="#ffffff"
        d="M 143.871094 26.476562 C 143.871094 26.242188 143.636719 26.359375 142.960938 26.976562 L 142.253906 27.566406 L 143.078125 27.066406 C 143.519531 26.800781 143.871094 26.535156 143.871094 26.476562 Z M 143.871094 26.476562 "
        fill-opacity="1" fill-rule="nonzero" />
    <path fill="#ffffff"
        d="M 157.84375 26.386719 C 157.695312 26.386719 156.902344 26.683594 156.078125 27.066406 C 155.28125 27.476562 154.753906 27.800781 154.902344 27.800781 C 155.3125 27.800781 158.195312 26.417969 157.84375 26.386719 Z M 157.84375 26.386719 "
        fill-opacity="1" fill-rule="nonzero" />
    <path fill="#ffffff"
        d="M 65.441406 38.917969 C 66.648438 40.5625 67.261719 41.0625 66.382812 39.652344 C 64.882812 37.328125 59.5 31.125 56.5 28.269531 C 54.765625 26.652344 54.796875 26.683594 56.855469 28.859375 C 59.589844 31.769531 63.941406 36.859375 65.441406 38.917969 Z M 65.441406 38.917969 "
        fill-opacity="1" fill-rule="nonzero" />
    <path fill="#ffffff"
        d="M 154.3125 27.859375 C 154.164062 27.859375 152.960938 28.359375 151.664062 28.976562 C 150.371094 29.625 149.402344 30.152344 149.488281 30.152344 C 149.605469 30.183594 150.78125 29.652344 152.136719 29.035156 C 153.488281 28.386719 154.488281 27.859375 154.3125 27.859375 Z M 154.3125 27.859375 "
        fill-opacity="1" fill-rule="nonzero" />
    <path fill="#ffffff"
        d="M 68.234375 31.503906 C 68.324219 31.417969 68.324219 31.328125 68.265625 31.269531 C 68.207031 31.242188 67.765625 30.886719 67.261719 30.476562 L 66.378906 29.742188 L 67.234375 30.683594 C 67.703125 31.210938 68.175781 31.59375 68.234375 31.503906 Z M 68.234375 31.503906 "
        fill-opacity="1" fill-rule="nonzero" />
    <path fill="#ffffff"
        d="M 135.875 32.066406 C 138.992188 30.035156 139.195312 29.886719 138.640625 29.886719 C 138.492188 29.886719 137.636719 30.417969 136.726562 31.09375 C 135.019531 32.300781 134.375 33.035156 135.875 32.066406 Z M 135.875 32.066406 "
        fill-opacity="1" fill-rule="nonzero" />
    <path fill="#ffffff"
        d="M 144.3125 33.035156 C 145.8125 32.269531 148.695312 30.476562 148.402344 30.476562 C 148.253906 30.503906 147.226562 31.003906 146.136719 31.625 C 144.078125 32.769531 142.667969 33.859375 144.3125 33.035156 Z M 144.3125 33.035156 "
        fill-opacity="1" fill-rule="nonzero" />
    <path fill="#ffffff"
        d="M 61.648438 32.828125 C 61.792969 32.828125 61.617188 32.507812 61.234375 32.09375 C 60.351562 31.152344 60.175781 31.152344 60.851562 32.09375 C 61.148438 32.476562 61.5 32.828125 61.648438 32.828125 Z M 61.648438 32.828125 "
        fill-opacity="1" fill-rule="nonzero" />
    <path fill="#ffffff"
        d="M 69.382812 32.859375 L 70.144531 33.5625 L 69.46875 32.59375 C 68.734375 31.625 68.585938 31.476562 68.585938 31.886719 C 68.585938 32.035156 68.941406 32.445312 69.382812 32.859375 Z M 69.382812 32.859375 "
        fill-opacity="1" fill-rule="nonzero" />
    <path fill="#ffffff"
        d="M 134.726562 32.917969 C 134.785156 32.859375 134.726562 32.828125 134.550781 32.828125 C 134.375 32.828125 134.050781 33.0625 133.84375 33.328125 C 133.460938 33.828125 133.460938 33.828125 134.019531 33.417969 C 134.34375 33.183594 134.667969 32.945312 134.726562 32.917969 Z M 134.726562 32.917969 "
        fill-opacity="1" fill-rule="nonzero" />
    <path fill="#ffffff"
        d="M 63.734375 35.035156 L 62.882812 34.0625 C 62.058594 33.183594 61.824219 32.976562 61.824219 33.210938 C 61.824219 33.269531 62.261719 33.683594 62.792969 34.179688 Z M 63.734375 35.035156 "
        fill-opacity="1" fill-rule="nonzero" />
    <path fill="#ffffff"
        d="M 132.285156 35.035156 C 132.933594 34.5625 132.84375 34.503906 131.902344 34.886719 C 131.519531 35.035156 131.226562 35.242188 131.226562 35.328125 C 131.226562 35.59375 131.699219 35.476562 132.285156 35.035156 Z M 132.285156 35.035156 "
        fill-opacity="1" fill-rule="nonzero" />
    <path fill="#ffffff"
        d="M 65 36.652344 C 65.085938 36.652344 64.910156 36.386719 64.617188 36.0625 C 64.324219 35.742188 64.027344 35.476562 63.941406 35.476562 C 63.851562 35.476562 64.027344 35.742188 64.320312 36.0625 C 64.617188 36.386719 64.910156 36.652344 65 36.652344 Z M 65 36.652344 "
        fill-opacity="1" fill-rule="nonzero" />
    <path fill="#ffffff"
        d="M 131.199219 35.859375 C 131.257812 35.800781 131.199219 35.769531 131.023438 35.769531 C 130.847656 35.769531 130.523438 36.003906 130.316406 36.269531 C 129.933594 36.769531 129.933594 36.769531 130.492188 36.359375 C 130.816406 36.125 131.140625 35.886719 131.199219 35.859375 Z M 131.199219 35.859375 "
        fill-opacity="1" fill-rule="nonzero" />
    <path fill="#ffffff"
        d="M 130.667969 37.652344 C 130.757812 37.742188 131.140625 37.503906 131.519531 37.09375 C 132.34375 36.210938 132.226562 36.152344 131.226562 36.945312 C 130.816406 37.238281 130.582031 37.5625 130.667969 37.652344 Z M 130.667969 37.652344 "
        fill-opacity="1" fill-rule="nonzero" />
    <path fill="#ffffff"
        d="M 135.578125 36.359375 C 135.519531 36.386719 133.84375 37.710938 131.816406 39.328125 C 129.785156 40.945312 127.875 42.5625 127.550781 42.917969 L 126.964844 43.535156 L 127.550781 43.0625 C 134.257812 37.800781 136.019531 36.300781 135.578125 36.359375 Z M 135.578125 36.359375 "
        fill-opacity="1" fill-rule="nonzero" />
    <path fill="#ffffff"
        d="M 37.648438 38.710938 C 38.914062 38.710938 39.148438 38.503906 38.53125 37.886719 C 38.03125 37.386719 37.589844 37.445312 36.972656 38.121094 C 36.445312 38.710938 36.472656 38.710938 37.648438 38.710938 Z M 37.648438 38.710938 "
        fill-opacity="1" fill-rule="nonzero" />
    <path fill="#ffffff"
        d="M 129.902344 38.417969 C 130.523438 37.742188 130.40625 37.652344 129.582031 38.238281 C 129.285156 38.476562 129.109375 38.738281 129.199219 38.828125 C 129.285156 38.917969 129.609375 38.738281 129.902344 38.417969 Z M 129.902344 38.417969 "
        fill-opacity="1" fill-rule="nonzero" />
    <path fill="#ffffff"
        d="M 117.140625 51.945312 C 118.757812 49.796875 121.757812 46.386719 124.347656 43.769531 C 126.785156 41.328125 128.757812 39.300781 128.699219 39.300781 C 128.667969 39.300781 127.90625 39.886719 127.023438 40.59375 C 124.433594 42.710938 118.964844 48.652344 116.816406 51.648438 C 112.789062 57.324219 112.992188 57.503906 117.140625 51.945312 Z M 117.140625 51.945312 "
        fill-opacity="1" fill-rule="nonzero" />
    <path fill="#ffffff"
        d="M 123.523438 42.269531 C 124.199219 41.917969 124.347656 41.652344 123.90625 41.652344 C 123.757812 41.652344 123.464844 41.859375 123.257812 42.152344 C 122.875 42.59375 122.90625 42.59375 123.523438 42.269531 Z M 123.523438 42.269531 "
        fill-opacity="1" fill-rule="nonzero" />
    <path fill="#ffffff"
        d="M 214.101562 45.386719 C 214.304688 45.472656 214.570312 45.445312 214.660156 45.355469 C 214.777344 45.269531 214.601562 45.179688 214.277344 45.210938 C 213.953125 45.210938 213.863281 45.296875 214.101562 45.386719 Z M 214.101562 45.386719 "
        fill-opacity="1" fill-rule="nonzero" />
    <path fill="#ffffff"
        d="M 215.628906 45.769531 C 215.953125 45.769531 216.21875 45.710938 216.21875 45.652344 C 216.21875 45.59375 215.953125 45.476562 215.628906 45.386719 C 215.304688 45.296875 215.042969 45.359375 215.042969 45.503906 C 215.042969 45.652344 215.308594 45.769531 215.628906 45.769531 Z M 215.628906 45.769531 "
        fill-opacity="1" fill-rule="nonzero" />
    <path fill="#ffffff"
        d="M 210.453125 45.503906 C 210.128906 45.503906 210.042969 45.59375 210.277344 45.679688 C 210.484375 45.769531 210.75 45.738281 210.835938 45.652344 C 210.953125 45.5625 210.777344 45.472656 210.453125 45.503906 Z M 210.453125 45.503906 "
        fill-opacity="1" fill-rule="nonzero" />
    <path fill="#ffffff"
        d="M 211.511719 45.796875 C 211.21875 45.796875 211.277344 45.886719 211.660156 46.0625 C 212.453125 46.417969 212.925781 46.417969 212.394531 46.0625 C 212.160156 45.914062 211.75 45.796875 211.511719 45.796875 Z M 211.511719 45.796875 "
        fill-opacity="1" fill-rule="nonzero" />
    <path fill="#ffffff"
        d="M 98.761719 58.707031 C 98.820312 58.707031 98.761719 58.445312 98.582031 58.121094 C 98.40625 57.796875 98.203125 57.53125 98.113281 57.53125 C 98.054688 57.53125 98.113281 57.796875 98.289062 58.121094 C 98.464844 58.445312 98.671875 58.707031 98.761719 58.707031 Z M 98.761719 58.707031 "
        fill-opacity="1" fill-rule="nonzero" />
    <path fill="#ffffff"
        d="M 201.808594 94.644531 C 201.808594 94.46875 201.71875 94.292969 201.601562 94.292969 C 201.453125 94.292969 201.394531 95.527344 201.394531 97 C 201.453125 100.558594 201.835938 104.878906 202.160156 105.613281 C 202.308594 105.96875 202.335938 105.203125 202.21875 103.703125 C 202.074219 101.675781 201.953125 99.085938 201.808594 94.644531 Z M 201.808594 94.644531 "
        fill-opacity="1" fill-rule="nonzero" />
    <path fill="#ffffff"
        d="M 204.777344 101.234375 C 204.777344 101.558594 204.867188 101.644531 204.957031 101.410156 C 205.042969 101.203125 205.015625 100.9375 204.925781 100.851562 C 204.835938 100.734375 204.75 100.910156 204.777344 101.234375 Z M 204.777344 101.234375 "
        fill-opacity="1" fill-rule="nonzero" />
    <g clip-path="url(#6a6c22442f)">
        <path fill="#ffffff"
            d="M 218.070312 72.207031 C 218.660156 71.855469 218.746094 70.53125 218.1875 70.296875 C 217.921875 70.207031 217.777344 69.648438 217.746094 68.796875 C 217.746094 68.058594 217.570312 67.148438 217.363281 66.765625 C 217.097656 66.265625 217.097656 65.621094 217.304688 64.296875 C 217.539062 62.796875 217.480469 62.121094 216.953125 60.003906 C 216.480469 58.09375 216.425781 57.59375 216.746094 58.003906 C 216.980469 58.328125 217.097656 58.386719 217.011719 58.121094 C 216.921875 57.886719 216.601562 56.941406 216.335938 56.0625 C 215.601562 53.855469 213.660156 51.238281 212.601562 51.121094 C 211.542969 51.003906 211.570312 50.472656 212.660156 50.472656 C 213.628906 50.472656 216.070312 51.769531 216.511719 52.472656 C 216.65625 52.769531 216.804688 52.855469 216.804688 52.738281 C 216.804688 52.355469 216.160156 51.238281 215.804688 50.972656 C 215.570312 50.828125 215.601562 50.679688 215.894531 50.503906 C 216.21875 50.296875 216.160156 50.210938 215.6875 50.0625 C 215.246094 49.914062 215.101562 49.621094 215.160156 48.917969 C 215.1875 47.886719 215.21875 47.886719 213.21875 48.238281 C 212.367188 48.386719 211.660156 48.355469 211.304688 48.152344 C 210.894531 47.914062 211.011719 47.886719 211.953125 47.972656 C 213.011719 48.09375 212.953125 48.0625 211.394531 47.5625 C 208.894531 46.738281 208.75 46.355469 211.101562 46.796875 C 212.21875 47.003906 213.601562 47.179688 214.160156 47.179688 L 215.1875 47.210938 L 214.453125 46.796875 C 214.042969 46.5625 213.511719 46.386719 213.277344 46.386719 C 212.980469 46.386719 213.042969 46.503906 213.425781 46.679688 C 214.367188 47.121094 211.835938 46.679688 210.691406 46.179688 C 210.160156 45.976562 209.777344 45.652344 209.867188 45.503906 C 209.953125 45.386719 209.425781 45.03125 208.691406 44.738281 C 207.953125 44.472656 207.425781 44.179688 207.484375 44.121094 C 207.542969 44.0625 208.101562 44.210938 208.75 44.472656 C 210.425781 45.179688 214.777344 46.417969 214.953125 46.238281 C 215.042969 46.148438 214.484375 45.914062 213.71875 45.710938 C 212.484375 45.386719 212.394531 45.296875 213.011719 45.121094 C 213.511719 44.945312 213.425781 44.945312 212.71875 45.03125 C 211.25 45.238281 204.984375 42.886719 206.277344 42.59375 C 206.542969 42.53125 207.042969 42.652344 207.367188 42.796875 C 208.128906 43.210938 208.894531 43.238281 208.277344 42.828125 C 208.011719 42.652344 207.984375 42.53125 208.191406 42.53125 C 208.394531 42.53125 208.21875 42.179688 207.835938 41.769531 C 207.453125 41.355469 207.21875 40.828125 207.277344 40.621094 C 207.367188 40.414062 207.308594 40.152344 207.132812 40.03125 C 206.953125 39.945312 206.808594 39.710938 206.808594 39.5625 C 206.808594 39.386719 207.101562 39.472656 207.457031 39.710938 C 209.25 40.976562 208.75 39.152344 206.75 37.179688 C 204.484375 34.917969 204.25 34.59375 204.894531 34.59375 C 205.191406 34.59375 205.835938 35.0625 206.398438 35.621094 C 207.542969 36.859375 207.75 36.886719 207.660156 35.828125 C 207.542969 34.769531 206.867188 34.003906 206.015625 34.003906 C 205.160156 34.003906 203.25 33.242188 203.308594 32.917969 C 203.457031 32.09375 203.191406 31.328125 202.777344 31.183594 C 202.484375 31.09375 201.457031 30.652344 200.484375 30.242188 C 198.867188 29.5625 198.664062 29.359375 197.925781 27.859375 C 197.515625 26.945312 197.074219 25.742188 196.957031 25.152344 C 196.722656 23.917969 195.367188 22.742188 193.632812 22.269531 C 192.191406 21.859375 191.75 21.359375 192.839844 21.359375 C 193.898438 21.359375 193.632812 20.652344 192.515625 20.535156 C 191.457031 20.417969 188.574219 19.269531 188.574219 18.949219 C 188.574219 18.832031 188.78125 18.710938 189.015625 18.710938 C 189.25 18.710938 189.457031 18.566406 189.457031 18.417969 C 189.457031 18.066406 187.015625 16.949219 186.28125 16.949219 C 186.046875 16.949219 185.574219 16.742188 185.308594 16.476562 C 184.664062 15.890625 182.457031 15.449219 182.222656 15.832031 C 182.015625 16.183594 181.988281 16.152344 183.425781 16.566406 C 185.28125 17.066406 186.632812 17.65625 187.429688 18.210938 L 188.132812 18.710938 L 186.957031 18.535156 C 186.3125 18.449219 185.398438 18.242188 184.898438 18.125 C 184.429688 17.976562 183.105469 17.773438 181.988281 17.65625 C 179.605469 17.417969 179.519531 17.859375 181.8125 18.417969 C 182.632812 18.625 183.371094 18.890625 183.457031 19.035156 C 183.546875 19.183594 183.988281 19.300781 184.429688 19.300781 C 184.898438 19.300781 185.8125 19.507812 186.488281 19.742188 C 187.164062 19.976562 187.898438 20.097656 188.132812 20.007812 C 188.425781 19.890625 188.515625 20.035156 188.488281 20.476562 C 188.457031 21.09375 188.367188 21.09375 186.367188 20.890625 C 185.253906 20.742188 183.898438 20.652344 183.367188 20.652344 C 182.839844 20.652344 182.488281 20.566406 182.546875 20.449219 C 182.632812 20.328125 182.488281 20.152344 182.222656 20.066406 C 181.871094 19.949219 181.78125 20.007812 181.929688 20.328125 C 182.105469 20.859375 182.074219 20.859375 181.015625 20.449219 C 180.574219 20.269531 178.164062 20.125 175.632812 20.125 C 172.988281 20.125 171.3125 20.007812 171.664062 19.886719 C 172.164062 19.65625 172.136719 19.625 171.429688 19.625 C 170.960938 19.59375 170.664062 19.710938 170.78125 19.886719 C 170.898438 20.066406 170.578125 20.183594 169.988281 20.183594 C 169.253906 20.183594 169.136719 20.09375 169.457031 19.886719 C 169.695312 19.742188 169.78125 19.59375 169.664062 19.59375 C 169.546875 19.59375 169.136719 19.800781 168.753906 20.035156 C 168.371094 20.300781 167.222656 20.625 166.195312 20.800781 C 165.164062 20.949219 163.929688 21.152344 163.429688 21.210938 C 162.578125 21.359375 162.578125 21.332031 163.578125 20.949219 C 164.136719 20.710938 164.460938 20.507812 164.253906 20.507812 C 163.84375 20.476562 160.726562 21.566406 156.34375 23.269531 C 154.550781 23.976562 152.667969 24.535156 152.167969 24.535156 C 150.316406 24.476562 140.285156 30.0625 134.90625 34.121094 C 134.257812 34.621094 133.375 35.242188 132.992188 35.503906 C 132.582031 35.769531 132.347656 36.09375 132.433594 36.179688 C 132.523438 36.296875 133.40625 35.796875 134.347656 35.09375 C 137.316406 32.917969 141.816406 29.886719 142.050781 29.886719 C 142.195312 29.886719 143.402344 29.210938 144.757812 28.417969 C 147.757812 26.625 149.902344 25.5625 151.078125 25.328125 C 151.578125 25.210938 150.519531 25.917969 148.726562 26.859375 C 142.992188 29.917969 137.757812 33.210938 133.433594 36.476562 C 132.640625 37.09375 131.582031 37.855469 131.109375 38.210938 C 129.492188 39.414062 120.140625 48.855469 118.523438 50.914062 C 117.640625 52.03125 116.144531 54.0625 115.230469 55.414062 C 114.289062 56.765625 113.464844 57.796875 113.378906 57.707031 C 113.289062 57.648438 113.378906 57.296875 113.582031 56.972656 C 113.761719 56.621094 113.820312 56.355469 113.761719 56.355469 C 113.671875 56.355469 113.378906 56.765625 113.113281 57.265625 C 112.820312 57.882812 112.789062 58.117188 113.023438 57.945312 C 113.289062 57.796875 113.320312 57.886719 113.171875 58.265625 C 112.820312 59.238281 113.761719 58.207031 115.378906 55.828125 C 120.671875 48.09375 129.082031 39.886719 136.667969 35.035156 C 138.582031 33.828125 141.226562 32.121094 144.902344 29.710938 C 147.460938 28.0625 150.460938 26.476562 151.375 26.300781 C 151.695312 26.269531 152.109375 26.0625 152.253906 25.859375 C 152.519531 25.503906 157.460938 23.710938 159.253906 23.300781 C 159.871094 23.152344 160.046875 23.183594 159.871094 23.445312 C 159.753906 23.652344 159.785156 23.742188 159.929688 23.652344 C 162.429688 22.300781 165.019531 21.769531 167.988281 21.917969 L 169.3125 22.007812 L 167.460938 22.449219 C 166.429688 22.683594 165.667969 22.949219 165.726562 23.035156 C 165.8125 23.09375 166.371094 23.035156 166.988281 22.859375 C 168.605469 22.417969 175.164062 22.152344 177.222656 22.449219 C 178.253906 22.59375 179.015625 22.859375 179.105469 23.066406 C 179.195312 23.390625 178.664062 23.449219 176.488281 23.417969 C 174.960938 23.386719 172.664062 23.507812 171.371094 23.710938 C 170.078125 23.886719 168.28125 24.09375 167.402344 24.152344 C 163.695312 24.386719 163.871094 24.359375 165.046875 24.566406 C 166.050781 24.742188 166.019531 24.769531 164.019531 25.269531 C 161.667969 25.890625 157.195312 27.449219 153.695312 28.886719 C 149.253906 30.710938 139.257812 36.535156 137.023438 38.59375 C 136.492188 39.09375 135.347656 40.035156 134.464844 40.683594 C 131.257812 43.09375 131.050781 43.300781 131.464844 43.800781 C 131.816406 44.210938 132.289062 43.917969 135.289062 41.5625 C 140.316406 37.652344 142.582031 36.152344 147.992188 33.183594 C 153.609375 30.09375 158.078125 28.242188 163.109375 26.832031 C 167.960938 25.507812 169.8125 25.183594 172.722656 25.210938 L 175.195312 25.242188 L 174.164062 25.683594 C 173.605469 25.917969 172.28125 26.242188 171.222656 26.386719 C 170.164062 26.503906 168.785156 26.742188 168.136719 26.917969 C 157.8125 29.476562 150.875 32.5625 141.84375 38.503906 C 136.523438 42.035156 132.523438 45.296875 127.964844 49.855469 C 123.996094 53.828125 123.113281 54.796875 120.082031 58.53125 C 119.199219 59.589844 118.289062 60.472656 118.082031 60.472656 C 117.671875 60.472656 117.554688 60.945312 117.9375 61.148438 C 118.054688 61.207031 117.996094 61.238281 117.789062 61.179688 C 117.613281 61.148438 117.40625 61.328125 117.320312 61.621094 C 117.140625 62.382812 111.203125 71.355469 110.878906 71.355469 C 110.730469 71.355469 110.789062 71.058594 110.964844 70.679688 C 111.464844 69.765625 115.320312 63.972656 115.847656 63.355469 C 116.082031 63.089844 116.203125 62.707031 116.054688 62.503906 C 115.9375 62.265625 115.964844 62.207031 116.171875 62.355469 C 116.375 62.472656 116.523438 62.382812 116.523438 62.179688 C 116.523438 61.03125 123.523438 52.355469 128.082031 47.828125 C 129.964844 45.976562 131.523438 44.355469 131.523438 44.210938 C 131.523438 44.09375 131.289062 44.003906 130.964844 44.003906 C 130.167969 44.003906 125.582031 48.652344 122.230469 52.886719 C 119.289062 56.5625 118.699219 57.445312 113.4375 65.621094 C 111.816406 68.117188 110.40625 70.179688 110.289062 70.179688 C 110.171875 70.179688 110.023438 70.0625 109.9375 69.941406 C 109.730469 69.589844 110.820312 67.679688 111.203125 67.738281 C 111.378906 67.796875 111.4375 67.617188 111.320312 67.324219 C 111.171875 66.972656 111.230469 66.914062 111.523438 67.089844 C 111.789062 67.234375 111.847656 67.207031 111.699219 66.972656 C 111.464844 66.589844 112.640625 64.503906 112.964844 64.707031 C 113.082031 64.796875 113.171875 64.558594 113.171875 64.207031 C 113.140625 63.855469 113.289062 63.589844 113.496094 63.621094 C 113.964844 63.707031 115.730469 60.882812 115.464844 60.414062 C 115.347656 60.207031 115.378906 60.117188 115.496094 60.265625 C 115.847656 60.558594 116.789062 59 116.582031 58.472656 C 116.496094 58.179688 116.554688 58.089844 116.761719 58.238281 C 117.113281 58.445312 118.054688 57.265625 117.820312 56.882812 C 117.730469 56.738281 117.789062 56.679688 117.9375 56.707031 C 118.082031 56.769531 119.289062 55.414062 120.640625 53.707031 C 125.671875 47.355469 128.257812 44.855469 136.375 38.386719 C 137.523438 37.476562 139.402344 36.09375 140.582031 35.328125 C 142.816406 33.859375 143.492188 33.183594 141.609375 34.328125 C 137.289062 36.917969 130.171875 42.679688 125.640625 47.210938 C 121.054688 51.796875 115.703125 58.355469 116.054688 58.941406 C 116.113281 59.0625 116.054688 59.355469 115.878906 59.589844 C 115.640625 59.945312 115.613281 59.914062 115.761719 59.441406 C 116.054688 58.472656 114.964844 59.972656 113.082031 63.117188 C 112.140625 64.648438 111.054688 66.265625 110.613281 66.707031 C 110.171875 67.148438 109.90625 67.589844 109.996094 67.648438 C 110.230469 67.882812 108.847656 69 108.554688 68.824219 C 108.171875 68.589844 108.230469 67.941406 108.671875 67.472656 C 108.847656 67.265625 109.054688 66.855469 109.113281 66.589844 C 109.40625 64.855469 118.554688 52.382812 123.023438 47.652344 C 124.554688 46.0625 126.054688 44.414062 126.375 44.003906 C 126.9375 43.328125 126.9375 43.296875 126.40625 43.707031 C 125.054688 44.769531 119.40625 51.238281 116.703125 54.855469 C 115.054688 57.03125 113.582031 58.972656 113.40625 59.179688 C 112.996094 59.679688 112.582031 59.738281 112.878906 59.238281 C 113.023438 59.03125 112.96875 59 112.699219 59.148438 C 112.40625 59.324219 112.347656 59.265625 112.527344 58.824219 C 112.699219 58.382812 112.671875 58.324219 112.378906 58.621094 C 112.085938 58.914062 112.085938 59.089844 112.320312 59.324219 C 112.554688 59.5625 112.378906 60.03125 111.613281 61.089844 C 111.054688 61.882812 110.671875 62.648438 110.789062 62.824219 C 110.878906 62.972656 110.847656 63.117188 110.671875 63.117188 C 110.527344 63.117188 109.90625 63.972656 109.347656 65.03125 C 108.230469 67 107.671875 67.589844 107.46875 66.972656 C 107.40625 66.765625 106.90625 66.058594 106.378906 65.382812 C 105.113281 63.796875 101.46875 58.855469 101.085938 58.179688 C 100.585938 57.324219 98.144531 54.148438 97.910156 54.0625 C 97.792969 54 97.113281 53.121094 96.378906 52.089844 C 95.644531 51.089844 94.820312 50.0625 94.558594 49.855469 C 94.261719 49.621094 94.675781 50.296875 95.410156 51.355469 C 96.175781 52.414062 97.554688 54.53125 98.46875 56.058594 C 100.496094 59.472656 104.144531 64.824219 105.703125 66.707031 C 106.585938 67.796875 106.820312 68.265625 106.644531 68.765625 C 106.46875 69.382812 106.4375 69.382812 105.585938 68.441406 C 104.703125 67.472656 104.054688 67.382812 104.792969 68.324219 C 105.144531 68.792969 105.117188 68.765625 104.554688 68.296875 C 104.171875 68 103.996094 67.589844 104.085938 67.414062 C 104.410156 66.914062 104.4375 66.351562 104.144531 66.441406 C 103.996094 66.472656 103.378906 65.972656 102.761719 65.324219 C 102.175781 64.648438 101.851562 64.324219 102.054688 64.589844 C 102.644531 65.355469 102.46875 65.617188 101.761719 65 C 101.175781 64.5 101.203125 64.53125 101.851562 65.414062 C 102.234375 65.941406 102.585938 66.234375 102.644531 66.058594 C 102.792969 65.679688 103.585938 66.234375 103.585938 66.707031 C 103.585938 66.882812 103.378906 66.824219 103.085938 66.617188 C 102.203125 65.882812 103.117188 67.234375 104.554688 68.851562 C 105.820312 70.234375 106.203125 71 105.203125 70.175781 C 104.675781 69.734375 100.644531 64.414062 100.644531 64.148438 C 100.644531 64.058594 100.820312 64.058594 101.027344 64.175781 C 101.234375 64.292969 101.292969 64.265625 101.144531 64.117188 C 101 63.972656 100.734375 63.851562 100.585938 63.851562 C 100.410156 63.851562 100.203125 63.707031 100.144531 63.5 C 100 63.117188 100.558594 63.148438 101.234375 63.558594 C 101.617188 63.765625 101.617188 63.734375 101.292969 63.351562 C 101.085938 63.089844 100.644531 62.910156 100.324219 62.96875 C 99.941406 63.058594 99.5 62.707031 98.882812 61.792969 C 97.882812 60.355469 97.765625 59.914062 98.527344 60.5 C 98.96875 60.882812 99 60.851562 98.617188 60.410156 C 98.410156 60.117188 98.117188 59.96875 97.96875 60.027344 C 97.648438 60.234375 97.089844 59.148438 97.351562 58.851562 C 97.472656 58.707031 97.410156 58.707031 97.207031 58.824219 C 96.96875 58.941406 96.675781 58.675781 96.382812 58.117188 C 96.148438 57.648438 95.851562 57.234375 95.765625 57.234375 C 95.675781 57.234375 95.707031 57.382812 95.824219 57.589844 C 95.941406 57.792969 95.910156 57.824219 95.675781 57.707031 C 95.5 57.589844 95.410156 57.351562 95.5 57.207031 C 95.617188 57.058594 94.941406 55.824219 94.058594 54.441406 C 93.148438 53.058594 92.5 51.941406 92.589844 51.941406 C 92.648438 51.941406 92.207031 51.234375 91.527344 50.382812 C 90.882812 49.5 90.351562 48.738281 90.351562 48.648438 C 90.351562 48.296875 88.382812 46.351562 88.03125 46.351562 C 87.824219 46.351562 87.707031 46.179688 87.792969 45.941406 C 87.882812 45.707031 87.734375 45.355469 87.472656 45.117188 C 87 44.765625 87 44.796875 87.410156 45.324219 C 87.824219 45.882812 87.824219 45.882812 87.324219 45.5 C 87.058594 45.292969 86.851562 44.882812 86.882812 44.617188 C 86.941406 44.382812 86.792969 44.148438 86.617188 44.117188 C 86.410156 44.089844 86.148438 44.03125 86.027344 44 C 85.882812 43.972656 85.707031 43.941406 85.589844 43.972656 C 85.441406 43.972656 85.351562 43.824219 85.351562 43.617188 C 85.351562 43.175781 83.148438 40.972656 82.207031 40.5 C 81.851562 40.324219 80.648438 39.5 79.558594 38.675781 L 77.558594 37.148438 L 79.324219 39.03125 C 80.292969 40.058594 81.5 41.351562 81.96875 41.914062 L 82.851562 42.941406 L 81.527344 41.851562 C 79.351562 40.058594 77 38.410156 76.851562 38.558594 C 76.796875 38.648438 77.03125 38.972656 77.410156 39.292969 C 77.792969 39.617188 78.03125 39.941406 77.941406 40.027344 C 77.851562 40.117188 76.441406 38.824219 74.765625 37.175781 L 71.738281 34.148438 L 73.5 36.5 C 76.441406 40.46875 75.941406 40.175781 71.882812 35.617188 C 70.382812 33.941406 70.414062 33.972656 72.265625 36.472656 C 73.324219 37.882812 74.148438 39.117188 74.089844 39.207031 C 73.855469 39.410156 72.792969 38.472656 69.382812 34.972656 C 67.589844 33.148438 65.53125 31.179688 64.796875 30.589844 C 63.53125 29.617188 63.5625 29.648438 65.089844 31.121094 C 67.914062 33.824219 73.292969 40.558594 72.941406 40.941406 C 72.851562 41 72.558594 40.707031 72.265625 40.265625 C 71.96875 39.824219 71.296875 39.058594 70.792969 38.558594 C 70.292969 38.089844 68.796875 36.472656 67.472656 34.972656 C 66.148438 33.5 63.648438 31.058594 61.914062 29.5625 L 58.738281 26.855469 L 61.414062 29.621094 C 64.5 32.824219 66.675781 35.382812 67.851562 37.148438 C 68.292969 37.855469 68.765625 38.351562 68.882812 38.265625 C 69 38.175781 69.089844 38.351562 69.058594 38.617188 C 69.058594 38.914062 69.175781 39.148438 69.382812 39.148438 C 69.558594 39.148438 69.824219 39.265625 69.972656 39.414062 C 70.117188 39.558594 70.058594 39.589844 69.851562 39.472656 C 69.292969 39.175781 69.382812 39.882812 70 40.910156 C 71.117188 42.765625 72.441406 45.292969 72.03125 44.824219 C 71.796875 44.527344 71.53125 44.382812 71.414062 44.5 C 71.296875 44.617188 71.296875 44.5 71.414062 44.207031 C 71.558594 43.824219 71.472656 43.734375 71.058594 43.882812 C 70.589844 44.027344 70.589844 44 70.941406 43.734375 C 71.324219 43.46875 71.296875 43.410156 70.824219 43.410156 C 70.5 43.410156 70.324219 43.324219 70.441406 43.234375 C 70.53125 43.117188 70.292969 42.558594 69.910156 41.96875 C 69.5 41.410156 69.175781 40.734375 69.175781 40.53125 C 69.175781 40.292969 68.96875 40.207031 68.617188 40.324219 C 68.207031 40.441406 67.765625 40.089844 66.824219 38.851562 C 65.265625 36.824219 64.941406 36.734375 66.355469 38.703125 C 67.089844 39.734375 67.351562 40.351562 67.175781 40.617188 C 67 40.96875 66.296875 40.410156 64.175781 38.234375 C 59.265625 33.292969 58.296875 32.410156 56.738281 31.585938 C 54.617188 30.46875 54.53125 30.558594 56.148438 32.148438 C 56.941406 32.941406 57.882812 33.96875 58.238281 34.5 C 58.855469 35.382812 58.855469 35.410156 58.296875 35.265625 C 58 35.175781 57.558594 34.734375 57.355469 34.265625 C 57.148438 33.792969 56.882812 33.410156 56.765625 33.410156 C 56.648438 33.410156 55.914062 33 55.148438 32.527344 C 54.386719 32.027344 53.621094 31.644531 53.472656 31.644531 C 53.296875 31.644531 53.824219 32.027344 54.617188 32.5 C 55.441406 32.96875 56.414062 33.703125 56.824219 34.175781 C 57.238281 34.617188 57.355469 34.851562 57.117188 34.734375 C 56.382812 34.324219 53.472656 32.175781 53.148438 31.824219 C 52.882812 31.53125 50.238281 30.175781 49.886719 30.175781 C 49.796875 30.175781 49.796875 30.292969 49.886719 30.441406 C 49.972656 30.589844 49.738281 30.675781 49.324219 30.675781 C 48.945312 30.675781 48.5625 30.5 48.472656 30.296875 C 48.382812 30.058594 48.179688 29.882812 48 29.882812 C 47.824219 29.882812 47.769531 30.03125 47.882812 30.207031 C 48.089844 30.558594 46.796875 30.265625 46.53125 29.914062 C 46.445312 29.796875 45.0625 29.355469 43.441406 28.882812 C 41.824219 28.441406 40.296875 28.03125 40.03125 27.941406 C 39.707031 27.824219 39.503906 28 39.355469 28.472656 C 39.207031 28.972656 39.386719 29.324219 40.003906 29.882812 C 40.445312 30.296875 41.003906 30.882812 41.238281 31.179688 C 41.648438 31.707031 41.621094 31.734375 41.089844 31.53125 C 40.765625 31.382812 40.179688 31.238281 39.796875 31.207031 L 39.121094 31.121094 L 39.796875 31.824219 C 40.414062 32.5 40.414062 32.53125 39.886719 32.558594 C 39.472656 32.558594 39.445312 32.617188 39.765625 32.738281 C 40.003906 32.855469 40.589844 33.296875 41.03125 33.765625 L 41.886719 34.589844 L 41.179688 34.589844 C 40.796875 34.589844 40.328125 34.441406 40.121094 34.234375 C 39.945312 34.058594 39.679688 33.972656 39.589844 34.089844 C 39.210938 34.472656 42.238281 35.558594 43.621094 35.53125 C 44.914062 35.5 45.089844 35.589844 46.503906 37.089844 C 47.328125 37.941406 48 38.792969 48 38.972656 C 48 39.5 46.238281 38.972656 45.414062 38.148438 C 44.972656 37.707031 43.503906 37 42.0625 36.5 L 39.503906 35.617188 L 38.886719 36.265625 C 38.089844 37.148438 38.148438 37.382812 39.152344 37.824219 C 39.621094 38 40.238281 38.410156 40.53125 38.734375 C 40.796875 39.03125 41.328125 39.292969 41.652344 39.292969 C 42.003906 39.292969 42.472656 39.441406 42.707031 39.617188 C 43.03125 39.855469 42.886719 39.882812 42.0625 39.765625 C 41.414062 39.675781 40.945312 39.734375 40.945312 39.914062 C 40.945312 40.089844 40.769531 40.117188 40.472656 39.941406 C 40.210938 39.796875 39.386719 39.796875 38.503906 39.941406 C 37.296875 40.175781 36.914062 40.148438 36.710938 39.824219 C 36.503906 39.472656 35.976562 39.589844 33.710938 40.5 C 25.242188 43.914062 22.121094 46.382812 17.183594 53.410156 C 11.09375 62.085938 8.683594 67.910156 6.917969 77.964844 C 6.242188 81.765625 6.125 83.234375 6.125 88.410156 C 6.125 94.707031 6.183594 95.203125 7.859375 102.085938 C 9.125 107.230469 10.621094 110.96875 12.886719 114.46875 C 13.769531 115.820312 14.621094 116.9375 14.828125 116.9375 C 15.003906 116.9375 14.886719 116.644531 14.5625 116.261719 C 12.796875 114.351562 8.917969 104.46875 7.535156 98.410156 C 7.003906 96.058594 6.507812 88.441406 6.859375 87.824219 C 7.035156 87.5 7.121094 87.558594 7.121094 88.117188 C 7.210938 91.085938 7.710938 95.292969 7.976562 95.558594 C 8.210938 95.792969 8.300781 95.792969 8.300781 95.527344 C 8.300781 95.320312 8.445312 95.175781 8.59375 95.175781 C 8.800781 95.175781 8.800781 95.351562 8.59375 95.734375 C 8.210938 96.46875 8.210938 96.734375 8.59375 96.496094 C 8.769531 96.382812 8.886719 96.761719 8.886719 97.441406 C 8.886719 98.058594 9.242188 99.46875 9.652344 100.613281 C 10.332031 102.46875 10.476562 103.054688 10.769531 105.027344 C 10.859375 105.675781 12.09375 108.46875 12.386719 108.703125 C 12.476562 108.792969 12.5625 108.96875 12.59375 109.144531 C 12.625 109.792969 13.359375 111.347656 13.625 111.347656 C 13.769531 111.347656 13.886719 111.613281 13.886719 111.9375 C 13.886719 112.261719 17.132812 115.601562 18.328125 116.511719 C 20.058594 117.820312 23.652344 119.40625 25.035156 121.082031 C 25.945312 122.171875 27.152344 123.730469 27.710938 124.496094 C 29.269531 126.582031 32.476562 130.199219 34.828125 132.4375 C 35.972656 133.523438 37.238281 134.757812 37.621094 135.140625 C 38.003906 135.523438 38.386719 135.757812 38.472656 135.699219 C 38.53125 135.609375 37.535156 134.554688 36.238281 133.289062 C 33.976562 131.113281 33.503906 130.464844 34.210938 130.464844 C 34.59375 130.464844 37.886719 133.730469 39.738281 135.964844 C 40.445312 136.816406 41.414062 137.640625 41.855469 137.789062 C 42.535156 138.019531 44.355469 140.464844 44.355469 140.464844 C 45.855469 141.789062 46.855469 142.964844 46.265625 142.789062 C 46.121094 142.730469 45.121094 141.847656 44.089844 140.816406 C 42.414062 139.230469 41.53125 138.640625 41.53125 139.140625 C 41.53125 139.375 45.296875 142.875 47.265625 144.464844 C 48.238281 145.257812 49.355469 146.199219 49.765625 146.582031 C 51.148438 147.875 54.382812 150.460938 54.617188 150.460938 C 54.738281 150.460938 54.648438 150.226562 54.441406 149.960938 C 54.148438 149.578125 54.238281 149.609375 54.796875 150.050781 C 56.324219 151.199219 58.648438 153.402344 58.382812 153.402344 C 58.207031 153.402344 57.851562 153.140625 57.558594 152.816406 C 57.265625 152.492188 56.882812 152.226562 56.738281 152.226562 C 56.558594 152.226562 56.738281 152.582031 57.148438 153.023438 L 57.851562 153.785156 L 56.324219 152.960938 C 55.472656 152.492188 54.765625 152.023438 54.765625 151.875 C 54.765625 151.757812 54.617188 151.640625 54.441406 151.640625 C 53.734375 151.640625 47.648438 146.199219 47.972656 145.875 C 48.0625 145.757812 47.972656 145.757812 47.765625 145.875 C 47.265625 146.167969 47.707031 146.757812 49.617188 148.402344 C 51.296875 149.84375 56.589844 154.757812 61.234375 159.136719 C 62.941406 160.753906 65.585938 163.019531 67.117188 164.195312 C 70.851562 166.992188 73.207031 169.285156 73.617188 170.402344 C 73.824219 170.960938 74.089844 171.253906 74.324219 171.167969 C 74.558594 171.078125 75.792969 172.078125 77.324219 173.578125 C 78.734375 174.988281 79.734375 175.929688 79.5 175.664062 C 78.910156 174.902344 79.351562 175.046875 80.882812 176.105469 C 81.617188 176.636719 82.675781 177.078125 83.207031 177.136719 C 84.527344 177.222656 88.378906 180.488281 92.054688 184.636719 C 95.203125 188.222656 96.410156 189.898438 98.585938 193.839844 C 100.4375 197.191406 100.789062 197.632812 101.378906 197.398438 C 101.878906 197.222656 101.761719 196.222656 101.027344 194.78125 C 100.203125 193.132812 100.761719 193.015625 101.878906 194.605469 C 102.671875 195.75 102.996094 196.015625 102.996094 195.605469 C 102.996094 195.046875 103.027344 195.046875 103.527344 195.664062 C 103.789062 196.015625 104.585938 196.515625 105.289062 196.78125 C 106.203125 197.164062 106.523438 197.457031 106.523438 197.929688 C 106.523438 198.25 106.671875 198.75 106.820312 198.984375 C 107.054688 199.339844 107.113281 199.339844 107.113281 198.839844 C 107.113281 198.339844 107.203125 198.371094 107.640625 199.046875 C 107.90625 199.515625 108.289062 199.867188 108.464844 199.867188 C 108.847656 199.867188 107.90625 196.605469 106.847656 194.28125 C 106.289062 192.988281 106.289062 192.515625 106.847656 192.515625 C 107.027344 192.515625 107.085938 192.808594 106.964844 193.164062 C 106.820312 193.664062 106.847656 193.722656 107.054688 193.429688 C 107.289062 193.105469 107.496094 193.28125 107.964844 194.222656 C 108.320312 194.898438 108.582031 195.605469 108.582031 195.8125 C 108.554688 196.015625 108.289062 195.691406 107.964844 195.074219 C 107.378906 193.957031 106.996094 193.605469 107.320312 194.488281 C 107.671875 195.457031 108.347656 196.339844 108.613281 196.191406 C 108.761719 196.105469 109.378906 197.105469 110.027344 198.457031 C 110.703125 199.867188 111.203125 200.632812 111.230469 200.28125 C 111.230469 199.605469 106.761719 190.339844 106.261719 190.046875 C 106.113281 189.957031 105.910156 189.488281 105.789062 189.046875 C 105.703125 188.605469 105.289062 187.871094 104.878906 187.429688 C 104.464844 186.988281 104.234375 186.632812 104.347656 186.632812 C 104.464844 186.632812 104.203125 186.3125 103.761719 185.957031 C 103.320312 185.574219 102.910156 184.929688 102.878906 184.515625 C 102.820312 184.105469 102.46875 183.3125 102.054688 182.78125 C 100.9375 181.253906 100.789062 180.78125 101.789062 181.898438 C 102.289062 182.457031 102.910156 183.371094 103.144531 183.898438 C 103.410156 184.457031 103.996094 185.308594 104.4375 185.839844 C 104.90625 186.367188 105.496094 187.222656 105.761719 187.75 C 106.054688 188.3125 106.320312 188.691406 106.410156 188.632812 C 106.464844 188.574219 106.054688 187.574219 105.46875 186.457031 L 104.4375 184.429688 L 105.585938 185.664062 C 107.261719 187.457031 111.671875 194.191406 112.171875 195.75 C 112.878906 197.78125 113.496094 200.074219 114.054688 202.808594 C 114.582031 205.25 114.582031 205.277344 114.789062 204.132812 C 114.90625 203.484375 114.878906 202.898438 114.730469 202.808594 C 114.4375 202.601562 113.554688 198.984375 113.816406 198.984375 C 113.90625 198.984375 113.847656 198.835938 113.640625 198.632812 C 113.433594 198.425781 113.289062 198.074219 113.289062 197.808594 C 113.320312 197.21875 114.199219 198.835938 114.613281 200.277344 C 114.847656 201.015625 115.023438 201.277344 115.113281 200.984375 C 115.230469 200.75 114.582031 198.898438 113.671875 196.898438 C 111.496094 191.925781 111.644531 192.308594 112.171875 192.722656 C 112.40625 192.925781 112.699219 193.015625 112.789062 192.898438 C 113.023438 192.691406 114.757812 196.277344 114.757812 196.925781 C 114.757812 197.160156 114.4375 196.691406 114.023438 195.894531 C 113.496094 194.808594 113.347656 194.660156 113.496094 195.308594 C 113.582031 195.777344 113.847656 196.574219 114.082031 197.042969 C 114.4375 197.691406 114.582031 197.808594 114.789062 197.484375 C 115.199219 196.839844 115.113281 196.308594 114.316406 194.574219 C 113.847656 193.542969 113.757812 193.191406 114.113281 193.632812 C 114.789062 194.574219 117.171875 196.984375 117.257812 196.867188 C 117.375 196.75 116.613281 193.777344 116.375 193.398438 C 116.289062 193.222656 116.289062 193.101562 116.4375 193.101562 C 116.730469 193.132812 117.464844 194.71875 118.257812 196.925781 C 118.554688 197.808594 118.964844 198.898438 119.171875 199.308594 C 119.4375 199.925781 119.4375 200.21875 119.171875 200.75 C 118.847656 201.335938 118.875 201.398438 119.289062 201.25 C 119.992188 200.957031 120.375 202.015625 120.199219 203.75 C 120.113281 204.601562 120.140625 205.132812 120.230469 204.925781 C 120.523438 204.308594 121.203125 204.542969 121.640625 205.367188 C 122.082031 206.160156 122.082031 206.101562 122.113281 204.042969 C 122.113281 202.894531 122.230469 201.925781 122.347656 201.925781 C 122.464844 201.925781 122.90625 202.425781 123.289062 203.074219 L 124.023438 204.21875 L 124.847656 203.632812 C 125.40625 203.21875 125.640625 202.808594 125.671875 202.132812 C 125.671875 201.601562 125.789062 200.925781 125.90625 200.632812 C 126.113281 200.132812 126.171875 200.132812 126.699219 200.835938 C 127.082031 201.394531 127.375 201.542969 127.671875 201.367188 C 128.023438 201.128906 128.023438 200.808594 127.730469 199.335938 C 127.40625 197.660156 127.492188 196.632812 127.992188 196.632812 C 128.113281 196.632812 128.289062 197.015625 128.375 197.511719 L 128.554688 198.367188 L 129.613281 197.71875 C 130.40625 197.21875 130.613281 196.898438 130.523438 196.398438 C 130.40625 195.542969 130.789062 195.28125 131.230469 195.957031 C 131.492188 196.367188 131.523438 196.042969 131.4375 194.511719 C 131.347656 193.101562 131.40625 192.515625 131.671875 192.394531 C 131.878906 192.339844 132.492188 191.632812 133.023438 190.835938 L 133.964844 189.425781 L 133.113281 190.191406 C 131.609375 191.574219 130.347656 191.925781 130.347656 191.015625 C 130.347656 190.453125 133.347656 185.75 133.609375 185.898438 C 133.757812 186.015625 133.789062 185.839844 133.667969 185.574219 C 133.550781 185.25 133.582031 185.132812 133.816406 185.28125 C 133.992188 185.367188 134.230469 185.191406 134.316406 184.839844 C 134.433594 184.484375 135.082031 183.515625 135.757812 182.660156 C 136.402344 181.839844 138.375 179.367188 140.140625 177.191406 C 143.519531 172.957031 145.636719 170.371094 146.460938 169.429688 C 146.726562 169.105469 147.757812 167.929688 148.726562 166.8125 C 149.699219 165.691406 152.019531 163.105469 153.871094 161.078125 C 155.726562 159.046875 158.3125 156.164062 159.609375 154.722656 C 160.871094 153.253906 162.929688 151.046875 164.136719 149.8125 C 165.902344 147.988281 166.285156 147.460938 165.988281 147.164062 C 165.695312 146.871094 165.078125 147.34375 162.960938 149.429688 C 158.019531 154.3125 141.816406 172.164062 141.816406 172.75 C 141.816406 172.871094 141.402344 173.371094 140.902344 173.871094 C 140.40625 174.339844 139.550781 175.429688 138.992188 176.28125 C 138.433594 177.105469 137.433594 178.425781 136.785156 179.222656 C 136.109375 179.988281 135.257812 180.984375 134.875 181.457031 C 134.492188 181.898438 134.167969 182.367188 134.167969 182.484375 C 134.167969 182.574219 133.375 183.574219 132.402344 184.691406 C 131.433594 185.808594 130.433594 187.28125 130.171875 187.984375 C 129.640625 189.367188 129.347656 189.425781 129.050781 188.222656 C 128.847656 187.425781 129.082031 187.015625 132.257812 182.957031 C 133.082031 181.925781 134.582031 179.929688 135.640625 178.515625 C 138.375 174.898438 139.933594 172.957031 141.960938 170.753906 C 142.964844 169.695312 144.492188 167.898438 145.402344 166.78125 C 146.34375 165.636719 147.375 164.371094 147.757812 163.960938 C 148.136719 163.546875 149.167969 162.34375 150.050781 161.3125 C 150.933594 160.285156 152.992188 158.046875 154.609375 156.34375 C 156.226562 154.636719 158.902344 151.785156 160.550781 150.019531 C 162.226562 148.226562 165.605469 144.667969 168.105469 142.078125 C 170.605469 139.492188 172.488281 137.316406 172.3125 137.257812 C 172.136719 137.199219 169.253906 139.933594 165.929688 143.34375 C 160.371094 149.050781 158.429688 150.84375 160.046875 148.757812 C 160.785156 147.84375 165.695312 142.492188 168.8125 139.257812 L 170.960938 137.023438 C 170.960938 137.023438 171.636719 136.34375 173.722656 136.34375 C 174.839844 136.34375 175.105469 136.167969 177.691406 133.550781 C 180.28125 130.964844 181.28125 130.167969 180.722656 131.167969 C 180.605469 131.40625 179.457031 132.667969 178.195312 133.933594 C 176.105469 136.082031 175.988281 136.285156 176.578125 136.460938 C 177.078125 136.578125 177.546875 136.34375 178.429688 135.523438 C 179.078125 134.933594 179.339844 134.757812 179.015625 135.167969 C 178.695312 135.582031 178.3125 135.992188 178.132812 136.109375 C 177.957031 136.257812 178.046875 136.34375 178.34375 136.34375 C 178.605469 136.34375 178.929688 136.195312 179.015625 136.050781 C 179.136719 135.875 179.339844 135.816406 179.488281 135.933594 C 179.636719 136.023438 179.753906 135.992188 179.722656 135.84375 C 179.605469 135.226562 179.78125 134.875 180.195312 134.875 C 180.429688 134.875 180.636719 134.726562 180.636719 134.550781 C 180.636719 134.375 180.429688 134.316406 180.136719 134.402344 C 179.722656 134.578125 179.722656 134.519531 180.195312 133.992188 C 180.8125 133.316406 182.839844 132.226562 183.457031 132.226562 C 183.78125 132.226562 185.632812 130.347656 185.632812 129.992188 C 185.632812 129.90625 185.28125 130.109375 184.839844 130.433594 C 184.429688 130.785156 184.015625 130.992188 183.929688 130.933594 C 183.636719 130.609375 187.074219 126.171875 188.339844 125.199219 C 189.132812 124.640625 189.75 124.054688 189.75 123.933594 C 189.75 123.816406 190.28125 123.109375 190.925781 122.375 C 192.222656 120.875 192.308594 120.699219 191.664062 120.933594 C 191.132812 121.140625 191.074219 120.730469 191.605469 120.171875 C 191.78125 119.9375 191.632812 119.996094 191.25 120.316406 C 190.898438 120.640625 190.253906 121.464844 189.839844 122.140625 C 189.429688 122.847656 188.929688 123.40625 188.691406 123.40625 C 188.457031 123.40625 188.28125 123.582031 188.28125 123.816406 C 188.28125 124.316406 183.164062 128.523438 182.191406 128.816406 C 181.429688 129.054688 181.371094 128.933594 181.839844 128.082031 C 181.988281 127.757812 182.25 127.582031 182.398438 127.667969 C 182.546875 127.757812 182.753906 127.667969 182.871094 127.492188 C 182.988281 127.257812 182.957031 127.226562 182.753906 127.347656 C 181.929688 127.847656 182.488281 126.90625 183.488281 126.082031 C 184.105469 125.582031 184.457031 125.167969 184.3125 125.167969 C 184.164062 125.167969 183.546875 125.671875 182.898438 126.257812 C 182.28125 126.875 181.871094 127.167969 181.957031 126.90625 C 182.136719 126.40625 186.3125 122.523438 186.664062 122.523438 C 186.75 122.523438 186.578125 122.964844 186.222656 123.464844 L 185.574219 124.433594 L 186.339844 123.582031 C 186.722656 123.082031 187.015625 122.609375 186.929688 122.492188 C 186.871094 122.375 187.105469 122.050781 187.457031 121.816406 C 187.8125 121.554688 187.957031 121.347656 187.78125 121.347656 C 187.429688 121.347656 185.722656 122.789062 182.78125 125.582031 C 181.753906 126.550781 180.929688 127.226562 180.929688 127.109375 C 180.929688 126.875 182.371094 124.992188 183.722656 123.464844 C 184.222656 122.90625 184.578125 122.257812 184.519531 122.023438 C 184.457031 121.757812 184.8125 121.140625 185.28125 120.640625 C 185.753906 120.140625 186.371094 119.316406 186.632812 118.789062 C 186.898438 118.257812 187.371094 117.699219 187.691406 117.523438 C 188.015625 117.347656 188.28125 117.082031 188.28125 116.90625 C 188.28125 116.726562 188.632812 116.230469 189.105469 115.789062 C 189.546875 115.375 190.105469 114.609375 190.371094 114.140625 C 190.664062 113.640625 191.132812 113.140625 191.488281 112.964844 C 191.839844 112.816406 192.105469 112.523438 192.105469 112.347656 C 192.105469 112.199219 192.808594 111.289062 193.664062 110.378906 L 195.222656 108.699219 C 195.222656 108.699219 196.722656 107.71875 196.988281 107.613281 C 197.222656 107.523438 197.398438 107.171875 197.398438 106.816406 C 197.398438 106.378906 197.664062 106.082031 198.28125 105.847656 C 199.132812 105.523438 199.160156 105.4375 199.160156 103.789062 C 199.160156 102.816406 199.015625 101.90625 198.808594 101.703125 C 198.546875 101.4375 198.546875 101.347656 198.808594 101.347656 C 199.28125 101.347656 199.25 100.261719 198.808594 100.054688 C 198.515625 99.964844 198.546875 99.820312 198.867188 99.523438 C 199.132812 99.320312 199.308594 98.761719 199.25 98.261719 C 199.222656 97.789062 199.308594 97.261719 199.457031 97.082031 C 199.605469 96.90625 199.78125 96.171875 199.808594 95.4375 C 199.898438 94.347656 204.363281 94.289062 205.664062 89.851562 C 205.78125 89.445312 206.367188 88.320312 206.367188 88.320312 L 206.660156 89.613281 L 206.925781 90.90625 L 207.101562 88.847656 C 207.222656 87.230469 207.398438 86.644531 207.925781 86.113281 C 208.425781 85.613281 208.542969 85.292969 208.367188 84.644531 C 207.898438 82.996094 208.308594 77.527344 208.898438 77.527344 C 209.042969 77.527344 209.160156 78.144531 209.160156 78.910156 C 209.160156 80.996094 209.515625 83.410156 209.777344 83.410156 C 209.925781 83.410156 210.042969 81.878906 210.042969 80.027344 C 210.042969 76.851562 210.398438 75 210.957031 75.351562 C 211.101562 75.441406 211.21875 75.761719 211.21875 76.054688 C 211.21875 76.351562 211.457031 76.734375 211.75 76.910156 C 212.191406 77.144531 212.25 77.761719 212.339844 81.175781 C 212.484375 85.792969 212.984375 86.347656 212.984375 81.878906 C 212.984375 77.554688 213.160156 77.96875 214.367188 85.378906 C 214.691406 87.351562 214.957031 86.230469 214.984375 82.734375 C 215.015625 80.761719 215.042969 78.9375 215.042969 78.703125 C 215.042969 78.46875 215.015625 77.378906 214.957031 76.261719 C 214.867188 74.117188 215.277344 73.644531 216.015625 75.085938 L 216.457031 75.878906 L 216.660156 74.851562 C 216.925781 73.554688 217.308594 73.117188 217.925781 73.324219 C 218.367188 73.496094 218.367188 73.46875 217.984375 72.996094 C 217.628906 72.53125 217.628906 72.441406 218.070312 72.207031 Z M 207.160156 41.945312 C 207.425781 41.945312 207.75 42.0625 207.835938 42.238281 C 208.070312 42.621094 207.6875 42.621094 207.101562 42.238281 C 206.71875 42.003906 206.71875 41.945312 207.160156 41.945312 Z M 135.933594 40.621094 C 135.785156 40.710938 135.636719 40.652344 135.636719 40.503906 C 135.636719 40.328125 135.785156 40.179688 135.933594 40.179688 C 136.109375 40.179688 136.226562 40.242188 136.226562 40.296875 C 136.226562 40.386719 136.109375 40.535156 135.933594 40.621094 Z M 114.082031 62.148438 C 114.347656 61.5625 114.699219 61.0625 114.820312 61.0625 C 114.964844 61.0625 114.933594 61.296875 114.789062 61.5625 C 114.640625 61.855469 114.289062 62.355469 114.054688 62.675781 C 113.640625 63.179688 113.640625 63.089844 114.082031 62.148438 Z M 103.582031 67.265625 C 103.582031 67.089844 103.730469 66.941406 103.875 66.941406 C 104.054688 66.941406 104.171875 67.003906 104.171875 67.058594 C 104.171875 67.148438 104.054688 67.296875 103.875 67.382812 C 103.730469 67.472656 103.582031 67.414062 103.582031 67.265625 Z M 45.914062 35.035156 C 45.824219 35.09375 45.121094 34.828125 44.324219 34.445312 C 43.472656 34.0625 43.089844 33.742188 43.414062 33.742188 C 43.855469 33.710938 43.882812 33.625 43.589844 33.269531 C 43.296875 32.886719 43.324219 32.828125 43.824219 32.828125 C 44.175781 32.828125 44.765625 33.269531 45.238281 33.859375 C 45.679688 34.445312 45.972656 34.945312 45.914062 35.035156 Z M 33.765625 130.40625 C 33.53125 130.613281 33.089844 130.113281 29.503906 125.464844 C 25.738281 120.644531 24.796875 119.347656 24.152344 118.230469 C 23.210938 116.527344 23.972656 117.144531 25.355469 119.203125 C 27.238281 121.996094 30.328125 126.082031 31.210938 126.9375 C 32.472656 128.140625 33.972656 130.171875 33.765625 130.40625 Z M 41.121094 136.347656 C 40.796875 136.347656 30.796875 126.023438 30.238281 125.085938 C 29.707031 124.261719 37.296875 131.875 40.179688 135.082031 C 40.796875 135.789062 41.238281 136.347656 41.121094 136.347656 Z M 51.824219 147.757812 C 50.234375 146.582031 46.296875 142.789062 47.558594 143.671875 C 48.0625 143.992188 49.5 145.289062 50.792969 146.523438 C 52.296875 147.933594 52.648438 148.402344 51.824219 147.757812 Z M 69.46875 43.5625 C 69.144531 43.269531 68.878906 42.859375 68.878906 42.621094 C 68.878906 42.386719 68.761719 42.300781 68.585938 42.386719 C 68.441406 42.476562 68.292969 42.359375 68.292969 42.121094 C 68.292969 41.886719 68.144531 41.59375 67.9375 41.476562 C 67.734375 41.328125 67.703125 41.417969 67.851562 41.679688 C 67.996094 41.917969 67.96875 42.003906 67.851562 41.859375 C 67.703125 41.738281 67.554688 41.355469 67.496094 41.003906 C 67.410156 40.503906 67.46875 40.445312 67.820312 40.769531 C 68.085938 40.945312 68.4375 41.003906 68.617188 40.886719 C 68.851562 40.769531 68.878906 40.800781 68.761719 41.003906 C 68.644531 41.210938 68.910156 41.859375 69.320312 42.445312 C 70.203125 43.769531 70.292969 44.296875 69.46875 43.5625 Z M 79.4375 40.914062 C 79.820312 41.238281 80.527344 42.09375 81 42.828125 L 81.878906 44.152344 L 80.96875 43.121094 C 80.46875 42.5625 79.761719 41.679688 79.410156 41.210938 L 78.761719 40.328125 Z M 90.585938 181.460938 C 89.878906 181.046875 86.820312 178.667969 86.820312 178.519531 C 86.820312 178.226562 87.261719 178.460938 89.054688 179.753906 C 90.085938 180.488281 90.9375 181.222656 90.9375 181.371094 C 90.9375 181.546875 90.761719 181.578125 90.585938 181.460938 Z M 94.40625 184.871094 C 94.203125 184.871094 92.847656 183.578125 91.996094 182.578125 C 90.996094 181.429688 91.644531 181.902344 93.144531 183.398438 C 93.9375 184.195312 94.527344 184.871094 94.40625 184.871094 Z M 90.4375 179.429688 C 89.671875 178.285156 82.410156 172.136719 82.144531 172.402344 C 82.054688 172.492188 82.113281 172.636719 82.292969 172.753906 C 83.117188 173.3125 87.671875 177.285156 88.4375 178.105469 C 89.644531 179.429688 88.613281 178.871094 86.46875 177.019531 C 85.554688 176.253906 84.027344 175.078125 83.113281 174.429688 C 82.175781 173.785156 80.761719 172.636719 79.9375 171.902344 C 79.113281 171.167969 77.617188 169.992188 76.613281 169.285156 C 75.585938 168.609375 74.761719 167.992188 74.761719 167.933594 C 74.761719 167.726562 75.085938 167.8125 76 168.285156 C 76.496094 168.550781 77.617188 169.34375 78.496094 170.050781 C 80.46875 171.667969 80.9375 171.726562 79.171875 170.136719 C 77.996094 169.109375 77.96875 169.019531 78.761719 169.402344 C 79.292969 169.636719 80.117188 170.195312 80.613281 170.609375 C 81.585938 171.460938 82.820312 171.402344 82.496094 170.550781 C 82.230469 169.871094 84.613281 171.429688 86.378906 173.078125 C 87.203125 173.84375 88.582031 175.019531 89.464844 175.667969 C 90.347656 176.3125 91.613281 177.34375 92.261719 177.960938 C 93.140625 178.78125 92.996094 178.695312 91.585938 177.605469 C 90.554688 176.84375 89.4375 175.988281 89.085938 175.753906 C 88.730469 175.519531 87.527344 174.605469 86.410156 173.695312 C 83.171875 171.109375 83.027344 170.988281 82.703125 171.195312 C 82.496094 171.3125 82.527344 171.519531 82.761719 171.753906 C 83.289062 172.253906 88.4375 176.550781 89.996094 177.785156 C 91.4375 178.902344 95.347656 183.253906 95.347656 183.722656 C 95.347656 184.195312 91.230469 180.605469 90.4375 179.429688 Z M 95.640625 182.871094 L 94.320312 181.488281 L 95.730469 182.8125 C 96.496094 183.519531 97.113281 184.136719 97.113281 184.195312 C 97.113281 184.429688 96.847656 184.195312 95.640625 182.871094 Z M 95.878906 180.285156 C 94.703125 179.136719 92.554688 177.226562 91.085938 176.019531 C 87.46875 173.019531 82.820312 169.253906 81.761719 168.519531 C 80.734375 167.753906 80.496094 167.519531 80.734375 167.519531 C 80.851562 167.519531 82.554688 168.695312 84.554688 170.136719 C 89.113281 173.460938 93.46875 177.078125 96.027344 179.695312 C 98.671875 182.402344 98.554688 182.902344 95.878906 180.285156 Z M 99.347656 190.960938 C 99.144531 191.164062 98.582031 190.753906 98.582031 190.398438 C 98.582031 190.222656 98.761719 190.222656 99.023438 190.457031 C 99.289062 190.664062 99.40625 190.898438 99.347656 190.960938 Z M 98.730469 182.519531 C 98.4375 182.195312 98.347656 181.929688 98.496094 181.929688 C 98.671875 181.929688 98.964844 182.136719 99.171875 182.371094 C 99.761719 183.078125 99.347656 183.195312 98.730469 182.519531 Z M 106.140625 191.546875 C 106.40625 191.28125 106.40625 191.253906 106.4375 191.929688 C 106.464844 192.253906 106.375 192.515625 106.199219 192.515625 C 105.90625 192.515625 105.847656 191.839844 106.140625 191.546875 Z M 101.671875 183.398438 C 101.964844 183.722656 102.140625 183.988281 102.054688 183.988281 C 101.964844 183.988281 101.671875 183.722656 101.378906 183.398438 C 101.082031 183.078125 100.90625 182.8125 100.996094 182.8125 C 101.082031 182.8125 101.378906 183.078125 101.671875 183.398438 Z M 105.054688 68.941406 C 105.054688 68.5 105.496094 68.707031 105.878906 69.296875 C 106.082031 69.621094 106.144531 69.882812 105.996094 69.882812 C 105.703125 69.882812 105.054688 69.238281 105.054688 68.941406 Z M 105.996094 72 C 105.789062 72.207031 105.640625 72.234375 105.640625 72.058594 C 105.640625 71.648438 105.996094 71.292969 106.199219 71.5 C 106.257812 71.589844 106.171875 71.824219 105.996094 72 Z M 107.992188 69 C 108.171875 69 108.289062 69.121094 108.289062 69.265625 C 108.289062 69.441406 108.171875 69.648438 107.992188 69.738281 C 107.847656 69.824219 107.699219 69.707031 107.699219 69.472656 C 107.699219 69.207031 107.847656 69 107.992188 69 Z M 108.023438 74.089844 C 107.730469 74.355469 107.699219 74.324219 107.878906 73.914062 C 107.964844 73.621094 108.140625 73.472656 108.230469 73.558594 C 108.316406 73.648438 108.230469 73.882812 108.023438 74.089844 Z M 109.964844 189.574219 C 109.789062 189.574219 107.40625 185.78125 107.40625 185.519531 C 107.40625 185.3125 108.347656 186.695312 109.4375 188.460938 C 109.789062 189.078125 110.054688 189.574219 109.964844 189.574219 Z M 131.34375 191.78125 C 132.082031 191.222656 132.285156 191.222656 131.816406 191.78125 C 131.609375 192.015625 131.285156 192.222656 131.109375 192.222656 C 130.933594 192.222656 131.050781 192.015625 131.34375 191.78125 Z M 113.082031 71.765625 L 112.289062 72.355469 L 112.875 71.558594 C 113.40625 70.796875 113.875 70.53125 113.875 70.972656 C 113.875 71.117188 113.496094 71.472656 113.082031 71.765625 Z M 115.347656 186.019531 C 115.347656 185.839844 115.492188 185.8125 115.640625 185.898438 C 115.816406 185.988281 115.933594 186.222656 115.933594 186.371094 C 115.933594 186.546875 115.816406 186.578125 115.640625 186.488281 C 115.492188 186.402344 115.347656 186.164062 115.347656 186.019531 Z M 119.140625 198.546875 C 118.726562 197.929688 118.550781 194.8125 118.933594 195.046875 C 119.050781 195.136719 119.140625 195.546875 119.109375 195.988281 C 119.109375 196.429688 119.199219 197.3125 119.289062 197.957031 C 119.464844 198.988281 119.464844 199.046875 119.140625 198.546875 Z M 123.082031 195.488281 C 122.992188 195.8125 122.582031 196.253906 122.199219 196.429688 C 121.730469 196.632812 121.523438 196.929688 121.609375 197.28125 C 121.757812 197.839844 121.375 198.019531 121.082031 197.515625 C 120.992188 197.339844 120.757812 197.222656 120.554688 197.222656 C 120.375 197.222656 120.582031 197.546875 121.023438 197.957031 C 122.050781 198.957031 122.050781 199.546875 121.023438 199.488281 C 120.257812 199.429688 120.199219 199.3125 120.171875 198.105469 C 120.171875 196.515625 117.464844 188.664062 117.40625 190.046875 C 117.40625 190.226562 117.699219 191.3125 118.082031 192.429688 C 118.640625 194.132812 118.667969 194.546875 118.347656 194.871094 C 118.023438 195.164062 117.964844 195.136719 118.023438 194.839844 C 118.054688 194.605469 117.992188 194.222656 117.90625 193.988281 C 117.140625 192.105469 115.613281 187.164062 115.730469 187.046875 C 115.820312 186.960938 116.230469 187.519531 116.671875 188.3125 C 117.4375 189.722656 117.40625 188.960938 116.640625 187.457031 C 116.40625 187.019531 116.230469 186.519531 116.230469 186.339844 C 116.230469 185.695312 116.730469 186.105469 117.257812 187.136719 C 117.554688 187.753906 117.816406 188.371094 117.847656 188.546875 C 117.847656 188.695312 118.054688 188.8125 118.230469 188.753906 C 118.433594 188.722656 118.816406 189.195312 119.050781 189.785156 C 120.082031 192.429688 120.847656 193.871094 121.757812 194.957031 C 122.289062 195.636719 122.699219 195.898438 122.699219 195.664062 C 122.699219 195.398438 122.816406 195.136719 122.964844 195.046875 C 123.109375 194.929688 123.167969 195.136719 123.082031 195.488281 Z M 130.050781 184.722656 C 128.992188 186.078125 128.875 185.78125 129.933594 184.371094 C 130.582031 183.488281 130.933594 183.195312 130.933594 183.519531 C 130.933594 183.578125 130.550781 184.105469 130.050781 184.722656 Z M 155.253906 154.285156 C 155.019531 154.609375 152.609375 157.34375 149.871094 160.375 C 144.195312 166.667969 142.785156 168.285156 138.726562 173.402344 C 137.109375 175.433594 135.464844 177.402344 135.109375 177.8125 C 134.726562 178.226562 134.109375 179.019531 133.726562 179.578125 C 133.34375 180.136719 132.699219 180.988281 132.257812 181.488281 L 131.492188 182.371094 L 132.023438 181.488281 C 134.402344 177.429688 143.726562 166.195312 152.078125 157.285156 C 155.402344 153.757812 156.078125 153.109375 155.253906 154.285156 Z M 158.902344 150.375 C 158.753906 150.667969 157.988281 151.492188 157.222656 152.226562 C 155.664062 153.726562 155.8125 153.226562 157.546875 151.257812 C 158.753906 149.875 159.429688 149.464844 158.902344 150.375 Z M 164.695312 29.769531 C 164.578125 29.859375 163.28125 30.386719 161.753906 30.917969 C 157.902344 32.300781 153.871094 34.035156 150.84375 35.59375 C 149.402344 36.328125 148.050781 36.945312 147.816406 36.945312 C 147.578125 36.945312 147.402344 37.0625 147.402344 37.238281 C 147.402344 37.386719 146.636719 37.917969 145.726562 38.417969 C 141.609375 40.59375 137.285156 43.710938 132.550781 47.855469 C 125.050781 54.445312 120.933594 59.0625 115.023438 67.53125 C 111.582031 72.5 110.023438 73.824219 112.992188 69.238281 C 116.554688 63.882812 120.757812 58.53125 124.816406 54.355469 C 128.050781 51.003906 135.082031 44.769531 137.082031 43.476562 C 137.992188 42.855469 138.902344 42.152344 139.109375 41.859375 C 139.316406 41.59375 139.667969 41.355469 139.875 41.355469 C 140.109375 41.355469 141.050781 40.796875 141.992188 40.09375 C 144.316406 38.417969 147.695312 36.503906 151.8125 34.621094 C 153.667969 33.738281 155.578125 32.859375 156.019531 32.621094 C 156.488281 32.386719 158.460938 31.59375 160.429688 30.886719 C 163.78125 29.710938 165.078125 29.359375 164.695312 29.769531 Z M 215.921875 57.089844 C 215.746094 57.003906 215.628906 56.796875 215.628906 56.621094 C 215.628906 56.207031 215.835938 56.296875 216.042969 56.828125 C 216.128906 57.0625 216.101562 57.179688 215.921875 57.089844 Z M 215.921875 57.089844 "
            fill-opacity="1" fill-rule="nonzero" />
    </g>
    <path fill="#ffffff"
        d="M 198.457031 115.554688 C 198.128906 115.671875 197.984375 115.464844 197.898438 114.792969 C 197.777344 113.878906 197.777344 113.878906 197.808594 114.878906 C 197.835938 115.613281 197.984375 115.9375 198.367188 115.996094 C 198.632812 116.054688 198.867188 115.9375 198.867188 115.761719 C 198.867188 115.554688 198.691406 115.464844 198.457031 115.554688 Z M 198.457031 115.554688 "
        fill-opacity="1" fill-rule="nonzero" />
    <path fill="#ffffff"
        d="M 26.59375 124.261719 C 26.238281 123.703125 25.648438 122.964844 25.296875 122.644531 C 24.710938 122.144531 24.710938 122.171875 25.386719 123.113281 C 25.796875 123.671875 26.386719 124.582031 26.648438 125.140625 C 26.945312 125.671875 27.769531 126.878906 28.503906 127.789062 C 30.238281 129.9375 30.355469 130.054688 30.355469 129.699219 C 30.355469 129.523438 29.648438 128.464844 28.796875 127.347656 C 27.945312 126.230469 26.945312 124.847656 26.59375 124.261719 Z M 26.59375 124.261719 "
        fill-opacity="1" fill-rule="nonzero" />
    <path fill="#ffffff"
        d="M 30.648438 130.582031 C 30.648438 130.640625 30.886719 130.878906 31.179688 131.082031 C 31.621094 131.464844 31.652344 131.433594 31.269531 130.964844 C 30.886719 130.496094 30.648438 130.347656 30.648438 130.582031 Z M 30.648438 130.582031 "
        fill-opacity="1" fill-rule="nonzero" />
    <path fill="#ffffff"
        d="M 31.972656 131.90625 C 31.886719 132.054688 31.914062 132.257812 32.0625 132.347656 C 32.207031 132.4375 32.328125 132.316406 32.328125 132.082031 C 32.328125 131.582031 32.238281 131.523438 31.972656 131.90625 Z M 31.972656 131.90625 "
        fill-opacity="1" fill-rule="nonzero" />
    <path fill="#ffffff"
        d="M 36.707031 139.230469 C 34.621094 136.875 33.296875 135.757812 33.296875 136.375 C 33.296875 136.730469 35.589844 139.171875 39.414062 142.933594 C 42.558594 145.992188 43.472656 146.492188 40.796875 143.671875 C 39.648438 142.464844 37.796875 140.464844 36.707031 139.230469 Z M 36.707031 139.230469 "
        fill-opacity="1" fill-rule="nonzero" />
    <path fill="#ffffff"
        d="M 39.679688 137.230469 C 39.738281 137.230469 39.648438 136.964844 39.472656 136.640625 C 39.296875 136.316406 39.003906 136.054688 38.824219 136.054688 C 38.648438 136.054688 38.738281 136.320312 39.03125 136.640625 C 39.324219 136.964844 39.617188 137.230469 39.679688 137.230469 Z M 39.679688 137.230469 "
        fill-opacity="1" fill-rule="nonzero" />
    <path fill="#ffffff"
        d="M 172.898438 139.171875 C 172.074219 140.050781 171.632812 140.757812 171.871094 140.757812 C 172.371094 140.757812 177.730469 136.113281 177.730469 136.113281 C 177.730469 136.113281 176.664062 135.71875 176.402344 135.902344 C 175.929688 136.242188 173.628906 138.328125 172.898438 139.171875 Z M 172.898438 139.171875 "
        fill-opacity="1" fill-rule="nonzero" />
    <path fill="#ffffff"
        d="M 176.429688 137.523438 C 176.367188 137.523438 176.074219 137.816406 175.75 138.171875 L 175.191406 138.847656 L 175.871094 138.289062 C 176.488281 137.757812 176.664062 137.523438 176.429688 137.523438 Z M 176.429688 137.523438 "
        fill-opacity="1" fill-rule="nonzero" />
    <path fill="#ffffff"
        d="M 43.589844 142.109375 C 43.03125 141.492188 42.179688 140.730469 41.679688 140.375 L 40.796875 139.757812 L 41.53125 140.582031 C 41.945312 141.023438 42.796875 141.816406 43.441406 142.316406 L 44.617188 143.230469 Z M 43.589844 142.109375 "
        fill-opacity="1" fill-rule="nonzero" />
    <path fill="#ffffff"
        d="M 172.722656 141.347656 C 172.222656 141.996094 171.898438 142.523438 172.046875 142.523438 C 172.339844 142.523438 174.164062 140.671875 174.164062 140.375 C 174.164062 139.875 173.605469 140.257812 172.722656 141.347656 Z M 172.722656 141.347656 "
        fill-opacity="1" fill-rule="nonzero" />
    <path fill="#ffffff"
        d="M 169.3125 142.847656 C 168.28125 143.847656 167.488281 144.789062 167.605469 144.964844 C 167.695312 145.109375 167.664062 145.167969 167.488281 145.082031 C 167.339844 144.964844 166.839844 145.257812 166.398438 145.726562 C 165.695312 146.464844 165.664062 146.582031 166.105469 146.757812 C 166.457031 146.90625 166.988281 146.582031 167.871094 145.726562 C 168.574219 145.050781 169.078125 144.375 169.015625 144.257812 C 168.929688 144.140625 169.3125 143.789062 169.839844 143.433594 C 170.371094 143.109375 171.074219 142.433594 171.457031 141.964844 C 172.605469 140.375 171.429688 140.875 169.3125 142.847656 Z M 169.3125 142.847656 "
        fill-opacity="1" fill-rule="nonzero" />
    <path fill="#ffffff"
        d="M 45.882812 144.199219 C 45.414062 143.90625 45.058594 143.816406 45.058594 143.992188 C 45.058594 144.285156 46.765625 145.464844 47.207031 145.464844 C 47.53125 145.464844 46.882812 144.847656 45.882812 144.199219 Z M 45.882812 144.199219 "
        fill-opacity="1" fill-rule="nonzero" />
    <path fill="#ffffff"
        d="M 166.105469 149.050781 C 163.753906 151.519531 161.8125 153.667969 161.8125 153.84375 C 161.8125 153.992188 162.28125 153.609375 162.871094 152.960938 C 163.460938 152.316406 165.515625 150.167969 167.460938 148.167969 C 169.429688 146.199219 170.871094 144.582031 170.695312 144.582031 C 170.515625 144.582031 168.457031 146.582031 166.105469 149.050781 Z M 166.105469 149.050781 "
        fill-opacity="1" fill-rule="nonzero" />
    <path fill="#ffffff"
        d="M 61.265625 162.285156 C 60.292969 161.519531 59.5 160.785156 59.46875 160.640625 C 59.46875 160.285156 55.941406 157.082031 52.558594 154.375 C 50.941406 153.082031 48.355469 150.875 46.824219 149.464844 C 44.386719 147.257812 43.589844 146.667969 43.589844 147.023438 C 43.589844 147.082031 46.796875 150.199219 50.734375 153.964844 C 55.765625 158.757812 58.585938 161.195312 60.234375 162.226562 C 61.5 163.023438 62.675781 163.695312 62.792969 163.695312 C 62.941406 163.695312 62.234375 163.078125 61.265625 162.285156 Z M 61.265625 162.285156 "
        fill-opacity="1" fill-rule="nonzero" />
    <path fill="#ffffff"
        d="M 175.339844 148.699219 C 174.691406 149.609375 174.691406 149.640625 175.28125 149.257812 C 175.632812 149.023438 175.988281 148.667969 176.074219 148.433594 C 176.367188 147.640625 175.988281 147.789062 175.339844 148.699219 Z M 175.339844 148.699219 "
        fill-opacity="1" fill-rule="nonzero" />
    <path fill="#ffffff"
        d="M 169.871094 149.023438 C 169.308594 149.667969 169.308594 149.667969 169.988281 149.316406 C 170.339844 149.140625 170.632812 148.84375 170.632812 148.699219 C 170.632812 148.257812 170.488281 148.34375 169.871094 149.023438 Z M 169.871094 149.023438 "
        fill-opacity="1" fill-rule="nonzero" />
    <path fill="#ffffff"
        d="M 169.046875 149.875 C 168.988281 149.875 168.753906 150.109375 168.546875 150.375 C 168.164062 150.84375 168.195312 150.875 168.664062 150.492188 C 169.136719 150.109375 169.28125 149.875 169.046875 149.875 Z M 169.046875 149.875 "
        fill-opacity="1" fill-rule="nonzero" />
    <path fill="#ffffff"
        d="M 56.5 151.992188 C 56.5 151.757812 54.765625 150.347656 54.765625 150.582031 C 54.765625 150.667969 55.058594 151.082031 55.414062 151.492188 C 56.03125 152.199219 56.558594 152.460938 56.5 151.992188 Z M 56.5 151.992188 "
        fill-opacity="1" fill-rule="nonzero" />
    <path fill="#ffffff"
        d="M 166.8125 152.492188 C 166.8125 152.109375 166.636719 152.167969 166.222656 152.667969 C 165.898438 153.050781 165.929688 153.082031 166.339844 152.933594 C 166.605469 152.84375 166.8125 152.640625 166.8125 152.492188 Z M 166.8125 152.492188 "
        fill-opacity="1" fill-rule="nonzero" />
    <path fill="#ffffff"
        d="M 159.371094 156.285156 C 158.28125 157.375 157.402344 158.402344 157.402344 158.550781 C 157.402344 158.875 160.164062 156.226562 160.960938 155.082031 C 161.28125 154.640625 161.519531 154.285156 161.460938 154.285156 C 161.402344 154.285156 160.460938 155.167969 159.371094 156.285156 Z M 159.371094 156.285156 "
        fill-opacity="1" fill-rule="nonzero" />
    <path fill="#ffffff"
        d="M 161.34375 157.433594 C 160.164062 158.695312 159.164062 159.757812 159.164062 159.816406 C 159.164062 160.050781 161.402344 157.960938 162.636719 156.578125 C 164.664062 154.34375 163.78125 154.933594 161.34375 157.433594 Z M 161.34375 157.433594 "
        fill-opacity="1" fill-rule="nonzero" />
    <path fill="#ffffff"
        d="M 156.753906 159.285156 C 156.695312 159.316406 155.664062 160.402344 154.429688 161.726562 C 151.609375 164.785156 145.136719 172.253906 142.933594 174.992188 C 139.785156 178.929688 135.933594 183.960938 135.933594 184.136719 C 135.933594 184.253906 135.460938 184.871094 134.902344 185.546875 C 133.375 187.371094 131.519531 189.957031 131.640625 190.105469 C 131.785156 190.222656 133.84375 188.046875 133.875 187.753906 C 133.902344 186.78125 145.519531 172.226562 152.667969 164.199219 C 156.34375 160.082031 157.019531 159.257812 156.753906 159.285156 Z M 156.753906 159.285156 "
        fill-opacity="1" fill-rule="nonzero" />
    <path fill="#ffffff"
        d="M 163.164062 161.34375 C 163.339844 161.34375 163.753906 160.933594 164.105469 160.460938 C 164.488281 159.960938 164.722656 159.578125 164.664062 159.578125 C 164.605469 159.578125 164.195312 159.960938 163.722656 160.460938 C 163.253906 160.933594 163.019531 161.34375 163.164062 161.34375 Z M 163.164062 161.34375 "
        fill-opacity="1" fill-rule="nonzero" />
    <path fill="#ffffff"
        d="M 166.898438 160.609375 C 166.28125 161.167969 165.929688 161.636719 166.105469 161.636719 C 166.28125 161.636719 166.605469 161.433594 166.8125 161.195312 C 167.019531 160.960938 167.339844 160.753906 167.546875 160.753906 C 167.753906 160.753906 167.988281 160.492188 168.078125 160.167969 C 168.28125 159.375 168.195312 159.402344 166.898438 160.609375 Z M 166.898438 160.609375 "
        fill-opacity="1" fill-rule="nonzero" />
    <path fill="#ffffff"
        d="M 153.785156 164.933594 C 151.402344 167.402344 149.253906 169.753906 148.960938 170.167969 C 148.695312 170.578125 148.550781 170.84375 148.609375 170.753906 C 148.667969 170.667969 150.992188 168.316406 153.722656 165.519531 C 156.460938 162.753906 158.546875 160.460938 158.402344 160.460938 C 158.222656 160.460938 156.164062 162.492188 153.785156 164.933594 Z M 153.785156 164.933594 "
        fill-opacity="1" fill-rule="nonzero" />
    <path fill="#ffffff"
        d="M 167.398438 161.636719 C 167.136719 161.816406 167.105469 161.933594 167.3125 161.933594 C 167.488281 161.933594 167.753906 161.785156 167.839844 161.636719 C 168.078125 161.285156 167.960938 161.285156 167.398438 161.636719 Z M 167.398438 161.636719 "
        fill-opacity="1" fill-rule="nonzero" />
    <path fill="#ffffff"
        d="M 163.605469 163.402344 C 162.929688 164.019531 162.398438 164.667969 162.429688 164.84375 C 162.488281 165.019531 163.195312 164.492188 163.988281 163.695312 C 165.722656 161.960938 165.460938 161.726562 163.605469 163.402344 Z M 163.605469 163.402344 "
        fill-opacity="1" fill-rule="nonzero" />
    <g clip-path="url(#0b84febaaa)">
        <path fill="#ffffff"
            d="M 154.605469 174.285156 C 152.285156 176.695312 150.902344 177.578125 152.988281 175.3125 C 155.664062 172.402344 158.636719 169.316406 160.28125 167.726562 C 161.105469 166.902344 161.8125 166.078125 161.8125 165.84375 C 161.8125 165.257812 161.457031 165.402344 160.546875 166.34375 C 160.078125 166.84375 159.8125 167.34375 159.898438 167.519531 C 159.988281 167.667969 159.839844 167.816406 159.546875 167.816406 C 158.929688 167.816406 153.222656 173.550781 150.195312 177.195312 C 149.164062 178.429688 148.046875 179.636719 147.695312 179.871094 C 147.34375 180.105469 146.578125 180.960938 145.929688 181.785156 C 145.3125 182.578125 144.371094 183.726562 143.84375 184.3125 C 142.371094 185.871094 136.136719 194.195312 135.726562 195.105469 C 135.550781 195.546875 135.050781 196.222656 134.609375 196.632812 C 134.167969 197.046875 133.640625 197.78125 133.433594 198.28125 C 133.226562 198.78125 132.757812 199.515625 132.402344 199.898438 C 131.640625 200.722656 126.757812 209.308594 126.933594 209.488281 C 126.992188 209.574219 127.609375 208.867188 128.285156 207.984375 C 128.960938 207.074219 129.726562 206.339844 129.933594 206.339844 C 130.167969 206.339844 130.34375 206.425781 130.34375 206.515625 C 130.34375 206.839844 129.667969 207.984375 129.078125 208.605469 C 128.757812 208.984375 128.609375 209.28125 128.816406 209.28125 C 129.257812 209.28125 129.960938 208.515625 130.226562 207.75 C 130.492188 206.925781 133.992188 200.871094 134.816406 199.8125 C 135.167969 199.371094 135.375 198.929688 135.285156 198.8125 C 135.109375 198.664062 132.636719 202.253906 130.816406 205.25 C 130.136719 206.371094 129.640625 205.957031 130.257812 204.78125 C 130.875 203.574219 133.167969 200.164062 135.078125 197.605469 C 135.902344 196.519531 136.84375 195.078125 137.167969 194.429688 C 137.519531 193.78125 138.109375 192.84375 138.550781 192.34375 C 138.960938 191.84375 139.460938 191.195312 139.636719 190.871094 C 139.84375 190.578125 140.046875 190.402344 140.167969 190.488281 C 140.257812 190.578125 140.136719 190.902344 139.902344 191.222656 C 139.050781 192.3125 136.753906 196.078125 136.84375 196.195312 C 136.902344 196.253906 138.019531 194.785156 139.3125 192.902344 C 142.136719 188.871094 145.078125 185.105469 147.460938 182.546875 C 148.519531 181.429688 149.136719 180.519531 149.046875 180.253906 C 148.960938 180.019531 148.988281 179.902344 149.136719 179.992188 C 149.253906 180.078125 149.519531 179.636719 149.726562 179.019531 C 150.046875 177.871094 150.78125 176.992188 151.105469 177.3125 C 151.222656 177.402344 151.019531 177.875 150.664062 178.34375 C 149.636719 179.8125 149.960938 179.695312 151.957031 177.933594 C 153.015625 177.019531 153.839844 176.226562 153.78125 176.167969 C 153.722656 176.109375 155.695312 173.960938 158.195312 171.402344 C 160.664062 168.875 162.691406 166.699219 162.691406 166.609375 C 162.695312 166.226562 158.578125 170.167969 154.605469 174.285156 Z M 141.875 188.605469 C 141.695312 188.902344 141.285156 189.402344 140.902344 189.722656 C 140.195312 190.339844 140.316406 190.015625 141.3125 188.605469 C 141.933594 187.722656 142.34375 187.695312 141.875 188.605469 Z M 144.902344 184.871094 C 144.460938 185.519531 143.992188 186.046875 143.871094 186.046875 C 143.785156 186.046875 143.492188 186.371094 143.285156 186.78125 C 143.078125 187.195312 142.785156 187.519531 142.636719 187.519531 C 142.136719 187.519531 142.433594 186.871094 143.492188 185.722656 C 144.078125 185.078125 144.785156 184.3125 145.019531 183.988281 C 145.84375 182.988281 145.753906 183.664062 144.902344 184.871094 Z M 146.460938 182.8125 C 146.253906 183.105469 146.050781 183.3125 145.960938 183.253906 C 145.84375 183.136719 146.492188 182.222656 146.695312 182.222656 C 146.753906 182.222656 146.667969 182.488281 146.460938 182.8125 Z M 148.429688 181.046875 C 148.34375 181.195312 148.105469 181.34375 147.960938 181.34375 C 147.785156 181.34375 147.753906 181.195312 147.84375 181.046875 C 147.929688 180.871094 148.167969 180.753906 148.3125 180.753906 C 148.492188 180.753906 148.519531 180.871094 148.429688 181.046875 Z M 148.429688 181.046875 "
            fill-opacity="1" fill-rule="nonzero" />
    </g>
    <path fill="#ffffff"
        d="M 66.96875 166.050781 C 66.851562 166.050781 67.585938 166.667969 68.585938 167.433594 C 69.585938 168.226562 70.675781 169.050781 71.027344 169.285156 L 71.675781 169.695312 L 71.085938 169.019531 C 70.496094 168.34375 67.324219 166.050781 66.96875 166.050781 Z M 66.96875 166.050781 "
        fill-opacity="1" fill-rule="nonzero" />
    <path fill="#ffffff"
        d="M 157.105469 166.992188 C 156.753906 167.636719 156.753906 167.636719 157.285156 167.167969 C 157.578125 166.871094 157.726562 166.578125 157.636719 166.460938 C 157.519531 166.375 157.285156 166.609375 157.105469 166.992188 Z M 157.105469 166.992188 "
        fill-opacity="1" fill-rule="nonzero" />
    <path fill="#ffffff"
        d="M 153.285156 170.753906 C 153.050781 171.519531 153.078125 171.960938 153.34375 171.695312 C 153.519531 171.519531 153.578125 171.226562 153.492188 170.988281 C 153.402344 170.785156 153.3125 170.667969 153.285156 170.753906 Z M 153.285156 170.753906 "
        fill-opacity="1" fill-rule="nonzero" />
    <path fill="#ffffff"
        d="M 147.988281 171.371094 C 147.988281 171.519531 148.136719 171.578125 148.285156 171.488281 C 148.460938 171.402344 148.578125 171.253906 148.578125 171.167969 C 148.578125 171.109375 148.460938 171.046875 148.285156 171.046875 C 148.136719 171.046875 147.988281 171.195312 147.988281 171.371094 Z M 147.988281 171.371094 "
        fill-opacity="1" fill-rule="nonzero" />
    <path fill="#ffffff"
        d="M 75.234375 172.550781 L 74.027344 171.519531 L 75.117188 172.664062 C 75.734375 173.3125 76.261719 173.753906 76.320312 173.667969 C 76.378906 173.609375 75.878906 173.109375 75.234375 172.550781 Z M 75.234375 172.550781 "
        fill-opacity="1" fill-rule="nonzero" />
    <path fill="#ffffff"
        d="M 147.109375 172.8125 C 147.433594 172.636719 147.695312 172.371094 147.695312 172.226562 C 147.695312 171.695312 147.253906 171.929688 146.519531 172.84375 C 145.285156 174.460938 145.519531 175.253906 146.84375 173.785156 C 147.226562 173.34375 147.3125 173.167969 147.050781 173.371094 C 146.695312 173.609375 146.519531 173.636719 146.519531 173.460938 C 146.519531 173.285156 146.785156 172.988281 147.109375 172.8125 Z M 147.109375 172.8125 "
        fill-opacity="1" fill-rule="nonzero" />
    <path fill="#ffffff"
        d="M 140.519531 180.078125 C 140.34375 180.488281 140.375 180.519531 140.667969 180.253906 C 140.875 180.046875 140.960938 179.8125 140.875 179.722656 C 140.785156 179.636719 140.609375 179.785156 140.519531 180.078125 Z M 140.519531 180.078125 "
        fill-opacity="1" fill-rule="nonzero" />
    <path fill="#ffffff"
        d="M 89.671875 182.546875 C 89.054688 182.164062 89.054688 182.195312 89.527344 182.695312 C 89.820312 182.988281 90.113281 183.167969 90.171875 183.078125 C 90.261719 182.988281 90.027344 182.753906 89.671875 182.546875 Z M 89.671875 182.546875 "
        fill-opacity="1" fill-rule="nonzero" />
    <path fill="#ffffff"
        d="M 150.226562 184.578125 C 150.167969 184.578125 149.929688 184.8125 149.726562 185.078125 C 149.34375 185.546875 149.371094 185.578125 149.84375 185.195312 C 150.3125 184.8125 150.460938 184.578125 150.226562 184.578125 Z M 150.226562 184.578125 "
        fill-opacity="1" fill-rule="nonzero" />
    <path fill="#ffffff"
        d="M 139.136719 187.722656 C 138.753906 188.195312 138.785156 188.222656 139.253906 187.839844 C 139.523438 187.636719 139.753906 187.398438 139.753906 187.339844 C 139.753906 187.105469 139.519531 187.253906 139.136719 187.722656 Z M 139.136719 187.722656 "
        fill-opacity="1" fill-rule="nonzero" />
    <path fill="#ffffff"
        d="M 107.699219 191.3125 C 107.699219 191.488281 107.820312 191.695312 107.992188 191.78125 C 108.171875 191.871094 108.203125 191.753906 108.113281 191.515625 C 107.90625 190.988281 107.699219 190.898438 107.699219 191.3125 Z M 107.699219 191.3125 "
        fill-opacity="1" fill-rule="nonzero" />
    <path fill="#ffffff"
        d="M 112.699219 193.253906 C 112.699219 193.398438 112.847656 193.753906 112.992188 193.988281 C 113.140625 194.222656 113.289062 194.28125 113.289062 194.132812 C 113.289062 193.957031 113.140625 193.636719 112.992188 193.398438 C 112.847656 193.164062 112.699219 193.074219 112.699219 193.253906 Z M 112.699219 193.253906 "
        fill-opacity="1" fill-rule="nonzero" />
    <path fill="#ffffff"
        d="M 134.199219 194.957031 C 134.550781 194.605469 134.785156 194.222656 134.699219 194.132812 C 134.609375 194.046875 134.316406 194.339844 134.019531 194.78125 L 133.519531 195.605469 Z M 134.199219 194.957031 "
        fill-opacity="1" fill-rule="nonzero" />
    <path fill="#ffffff"
        d="M 132.578125 196.929688 C 132.519531 196.929688 132.109375 197.515625 131.699219 198.253906 C 131.316406 198.988281 131.078125 199.515625 131.257812 199.429688 C 131.550781 199.222656 132.785156 196.929688 132.578125 196.929688 Z M 132.578125 196.929688 "
        fill-opacity="1" fill-rule="nonzero" />
    <path fill="#ffffff"
        d="M 114.964844 197.957031 C 114.730469 198.546875 114.847656 198.8125 115.289062 198.664062 C 115.433594 198.605469 115.464844 198.28125 115.347656 197.988281 C 115.171875 197.429688 115.140625 197.429688 114.964844 197.957031 Z M 114.964844 197.957031 "
        fill-opacity="1" fill-rule="nonzero" />
    <path fill="#ffffff"
        d="M 129.84375 201.78125 C 130.050781 201.28125 129.875 201.191406 129.609375 201.664062 C 129.492188 201.839844 129.460938 202.015625 129.550781 202.105469 C 129.609375 202.191406 129.757812 202.046875 129.84375 201.78125 Z M 129.84375 201.78125 "
        fill-opacity="1" fill-rule="nonzero" />
    <path fill="#ffffff"
        d="M 127.34375 206.605469 C 128.050781 205.664062 129.523438 202.753906 129.34375 202.605469 C 129.285156 202.546875 128.699219 203.488281 128.019531 204.691406 C 126.726562 207.046875 126.492188 207.75 127.34375 206.605469 Z M 127.34375 206.605469 "
        fill-opacity="1" fill-rule="nonzero" />
    <path fill="#ffffff"
        d="M 126.375 207.839844 C 126.257812 208.015625 126.226562 208.191406 126.316406 208.28125 C 126.375 208.371094 126.523438 208.222656 126.609375 207.957031 C 126.816406 207.457031 126.640625 207.367188 126.375 207.839844 Z M 126.375 207.839844 "
        fill-opacity="1" fill-rule="nonzero" />
</svg>