<svg xmlns="http://www.w3.org/2000/svg" xmlns:xlink="http://www.w3.org/1999/xlink" width="300"
    zoomAndPan="magnify" viewBox="0 0 224.87999 225" height="300"
    preserveAspectRatio="xMidYMid meet" version="1.0">
    <defs>
        <clipPath id="6fb6d2bbaa">
            <path
                d="M 2.460938 31.277344 L 222.09375 31.277344 L 222.09375 193.941406 L 2.460938 193.941406 Z M 2.460938 31.277344 "
                clip-rule="nonzero" />
        </clipPath>
    </defs>
    <g clip-path="url(#6fb6d2bbaa)">
        <path fill="#ffffff"
            d="M 198.40625 45.609375 C 197.660156 46.007812 197.132812 45.925781 196.320312 45.640625 C 197.066406 45.273438 197.589844 45.21875 198.40625 45.609375 Z M 204.484375 37.359375 C 205.015625 37.582031 205.398438 37.964844 205.632812 38.492188 C 204.125 39.25 204.683594 37.921875 204.484375 37.359375 Z M 195.339844 36.78125 C 198.015625 36.835938 200.71875 36.535156 203.339844 37.355469 C 202.730469 37.953125 202.183594 38.632812 201.507812 39.132812 C 199.902344 40.324219 198.832031 40.210938 197.390625 38.707031 C 196.738281 38.027344 195.757812 37.703125 195.339844 36.78125 Z M 22.972656 37.539062 C 24.375 37.15625 25.511719 36.273438 26.808594 35.597656 C 27.25 36.695312 28.496094 37.085938 29.027344 38.085938 C 28.804688 38.285156 28.691406 38.472656 28.542969 38.507812 C 27.753906 38.683594 26.71875 37.625 26.203125 38.625 C 25.648438 39.695312 26.886719 39.945312 27.53125 40.402344 C 28.054688 40.777344 28.351562 41.28125 27.945312 41.84375 C 27.492188 42.46875 26.695312 42.546875 26.164062 42.113281 C 24.859375 41.054688 23.960938 39.574219 22.523438 38.609375 C 22.085938 38.3125 22.464844 37.675781 22.972656 37.539062 Z M 5.070312 49.972656 C 5.078125 49.097656 5.839844 49.019531 6.480469 48.839844 C 8.589844 48.246094 10.582031 48.625 12.59375 49.375 C 15.105469 50.304688 15.128906 50.234375 16.328125 47.796875 C 16.40625 47.628906 16.566406 47.503906 16.804688 47.230469 C 17.558594 47.605469 16.667969 48.734375 17.539062 49 C 18.261719 49.222656 18.820312 48.820312 19.445312 48.625 C 19.984375 48.449219 20.546875 48.351562 21.097656 48.222656 C 22.007812 48.058594 22.914062 47.867188 23.832031 47.742188 C 24.128906 47.703125 24.660156 47.613281 24.496094 48.214844 C 24.4375 48.441406 24.113281 48.59375 23.910156 48.777344 C 24.234375 49.492188 24.015625 50.105469 23.46875 50.566406 C 22.964844 50.992188 22.394531 51.339844 21.824219 51.675781 C 19.417969 53.101562 19.414062 53.09375 20.859375 55.5625 C 19.265625 56.222656 18.113281 57.523438 16.660156 58.402344 C 16.015625 58.792969 15.339844 59.195312 14.625 59.398438 C 13.726562 59.65625 12.492188 59.984375 12.035156 58.992188 C 11.464844 57.757812 12.886719 57.554688 13.613281 57.085938 C 14.492188 56.519531 15.4375 56.058594 16.339844 55.53125 C 17.335938 54.949219 17.972656 54.09375 17.5625 52.941406 C 17.121094 51.699219 15.929688 51.507812 14.949219 52.003906 C 11.898438 53.554688 9.214844 51.597656 6.371094 51.273438 C 5.738281 51.199219 5.066406 50.773438 5.070312 49.972656 Z M 4.144531 107.632812 C 4.160156 108.039062 3.925781 108.355469 3.496094 108.371094 C 2.957031 108.390625 2.640625 108.039062 2.550781 107.542969 C 2.457031 107.035156 2.652344 106.648438 3.183594 106.492188 C 3.898438 106.546875 4.125 107.027344 4.144531 107.632812 Z M 18.753906 116.679688 C 18.871094 118.214844 17.410156 117.917969 16.515625 118.144531 C 15.648438 118.363281 14.816406 118.242188 14.570312 117.222656 C 14.496094 116.273438 15.492188 115.378906 16.667969 115.28125 C 17.734375 115.191406 18.671875 115.617188 18.753906 116.679688 Z M 10.796875 107.902344 C 10.875 108.949219 9.925781 109.703125 8.46875 109.8125 C 7.332031 109.898438 6.585938 109.46875 6.515625 108.695312 C 6.433594 107.746094 8.011719 106.546875 9.394531 106.503906 C 10.355469 106.472656 10.734375 107.066406 10.796875 107.902344 Z M 213.640625 91.207031 C 213.734375 90.910156 213.976562 90.765625 214.230469 90.867188 C 214.441406 90.949219 214.726562 91.183594 214.742188 91.367188 C 214.78125 91.851562 214.417969 91.933594 214.03125 91.808594 C 213.769531 91.726562 213.621094 91.503906 213.640625 91.207031 Z M 187.246094 150.660156 C 187.335938 150.664062 187.421875 150.671875 187.515625 150.679688 C 187.496094 150.753906 187.496094 150.890625 187.464844 150.898438 C 187.183594 150.972656 187.109375 150.882812 187.246094 150.660156 Z M 211.976562 155.144531 L 211.828125 155.070312 L 211.964844 154.972656 Z M 211.835938 156.769531 C 212.207031 156.746094 212.628906 156.722656 212.710938 157.179688 C 212.746094 157.386719 212.574219 157.75 212.390625 157.855469 C 211.839844 158.167969 211.570312 157.746094 211.335938 157.328125 C 210.992188 157.375 210.648438 157.441406 210.300781 157.449219 C 210.257812 157.449219 210.113281 157.09375 210.171875 157.015625 C 210.632812 156.386719 211.222656 156.464844 211.835938 156.769531 Z M 215.84375 153.933594 C 216.222656 154.054688 216.511719 154.285156 216.460938 154.707031 C 216.417969 155.027344 216.109375 155.148438 215.851562 155 C 215.640625 154.878906 215.429688 154.632812 215.367188 154.398438 C 215.285156 154.089844 215.515625 153.917969 215.84375 153.933594 Z M 216.175781 146.140625 C 216.558594 146.949219 215.878906 147.371094 215.335938 147.707031 C 214.121094 148.457031 212.414062 148.605469 212.226562 150.539062 C 212.199219 150.851562 211.613281 150.9375 211.226562 150.820312 C 210.792969 150.691406 210.714844 150.34375 210.699219 149.925781 C 210.601562 147.03125 211.828125 145.6875 214.675781 145.597656 C 215.253906 145.570312 215.894531 145.546875 216.175781 146.140625 Z M 173.179688 183.921875 C 172.511719 184.449219 171.933594 184.902344 171.359375 185.359375 L 171.34375 185.367188 C 170.375 185.960938 169.308594 185.933594 168.234375 185.863281 C 168.695312 185.789062 169.15625 185.714844 169.617188 185.640625 C 169.144531 185.628906 168.671875 185.636719 168.234375 185.863281 C 167.734375 186.058594 167.246094 186.523438 166.710938 185.925781 C 167.097656 184.976562 167.355469 184.0625 168.816406 184.230469 C 170.175781 184.386719 171.535156 183.605469 173.179688 183.921875 Z M 113.65625 36.0625 C 113.660156 36.046875 113.664062 36.035156 113.667969 36.019531 C 113.664062 36.035156 113.660156 36.046875 113.65625 36.0625 Z M 185.027344 40.238281 Z M 175.691406 70.980469 C 175.980469 70.8125 176.40625 70.753906 176.855469 70.703125 C 176.507812 70.777344 176.125 70.867188 175.691406 70.980469 Z M 194.789062 156.472656 C 194.605469 156.425781 194.4375 156.328125 194.292969 156.132812 C 194.453125 156.265625 194.617188 156.382812 194.789062 156.472656 Z M 184.804688 173.902344 C 184.8125 173.898438 184.816406 173.894531 184.824219 173.890625 C 184.835938 173.898438 184.851562 173.90625 184.863281 173.917969 C 184.84375 173.914062 184.824219 173.90625 184.804688 173.902344 Z M 141.597656 181.988281 C 141.621094 181.972656 141.648438 181.953125 141.671875 181.9375 C 141.648438 181.953125 141.621094 181.972656 141.597656 181.988281 Z M 168.621094 114.214844 C 168.839844 114.207031 169.0625 114.179688 169.265625 114.222656 C 169.054688 114.234375 168.832031 114.207031 168.621094 114.214844 Z M 200.492188 161.921875 C 200.492188 161.917969 200.488281 161.914062 200.484375 161.914062 C 200.484375 161.910156 200.484375 161.90625 200.484375 161.902344 C 200.488281 161.910156 200.496094 161.914062 200.503906 161.921875 C 200.5 161.921875 200.496094 161.921875 200.492188 161.921875 Z M 220.398438 164.96875 C 219.734375 164.519531 218.96875 164.621094 218.207031 164.582031 C 216.394531 164.488281 214.558594 164.429688 212.8125 163.582031 C 215.160156 162.9375 217.757812 163.03125 219.34375 160.78125 C 218.960938 160.40625 218.578125 160.027344 218.195312 159.648438 C 215.125 159.765625 212.125 158.753906 209.042969 159.078125 C 208.078125 156.972656 207.960938 156.8125 205.910156 157.40625 C 204.777344 157.734375 203.917969 157.679688 203.035156 156.941406 C 202.195312 156.238281 201.28125 156.40625 200.382812 156.84375 C 199.476562 156.832031 198.570312 156.820312 197.664062 156.808594 C 197.261719 156.804688 196.863281 156.796875 196.460938 156.789062 L 196.492188 156.746094 C 196.367188 156.625 196.226562 156.558594 196.074219 156.523438 C 195.515625 156.265625 194.921875 156.140625 194.292969 156.132812 C 194.292969 156.132812 194.25 156.09375 194.25 156.09375 C 196.148438 155.5 196.691406 153.925781 197.050781 152.21875 C 197.113281 151.679688 197.863281 151.363281 197.558594 150.703125 C 194.875 150.433594 194.871094 150.433594 193.066406 151.621094 C 192.660156 151.765625 192.257812 151.910156 191.855469 152.058594 C 191.605469 151.515625 191.628906 150.71875 190.804688 150.683594 C 190.199219 150.65625 190.152344 151.15625 190.199219 151.632812 C 188.847656 151.660156 187.476562 151.511719 186.1875 152.082031 C 185.996094 151.941406 185.804688 151.800781 185.613281 151.65625 C 184.667969 150.59375 183.730469 150.554688 182.808594 151.6875 C 182.660156 152.511719 182.796875 153.492188 181.683594 153.808594 C 181.054688 151.503906 179.160156 151.226562 177.234375 151.101562 C 175.386719 150.980469 175.386719 151.035156 173.863281 150.148438 C 176.25 149.996094 178.203125 149.777344 180.160156 149.769531 C 183.265625 149.761719 186.375 149.921875 189.480469 149.953125 C 190.601562 149.964844 191.792969 149.988281 192.472656 148.789062 C 192.816406 148.214844 192.722656 147.632812 192.488281 147.054688 C 194.3125 146.292969 195.902344 147.816406 197.671875 147.59375 C 197.671875 147.59375 197.671875 147.589844 197.671875 147.589844 C 197.671875 147.589844 197.671875 147.589844 197.671875 147.59375 C 198.039062 147.609375 198.40625 147.628906 198.773438 147.648438 C 198.582031 148.027344 198.390625 148.40625 198.199219 148.785156 C 197.003906 149.121094 195.648438 148.433594 194.511719 149.761719 C 196.503906 149.84375 198.496094 149.925781 200.488281 150.003906 C 200.492188 150.003906 200.492188 150.003906 200.492188 150.003906 C 200.492188 150.007812 200.492188 150.007812 200.488281 150.007812 C 200.402344 150.167969 200.195312 150.410156 200.242188 150.476562 C 201.03125 151.585938 202.265625 152.019531 203.5 152.183594 C 204.363281 152.300781 205.238281 151.585938 205.277344 150.734375 C 205.332031 149.625 204.222656 150.0625 203.578125 149.929688 C 203.308594 149.875 203.023438 149.914062 202.742188 149.910156 C 202.738281 149.539062 202.738281 149.167969 202.734375 148.792969 C 204.152344 148.753906 205.570312 148.730469 206.988281 148.65625 C 207.367188 148.636719 207.734375 148.390625 207.71875 147.949219 C 207.703125 147.503906 207.300781 147.308594 206.933594 147.261719 C 206.375 147.191406 205.804688 147.179688 205.242188 147.222656 C 204.019531 147.324219 202.800781 147.476562 201.582031 147.609375 C 201.582031 147.414062 201.582031 147.21875 201.582031 147.023438 C 201.863281 146.992188 202.144531 146.980469 202.421875 146.925781 C 202.699219 146.875 203.097656 146.726562 203.019531 146.464844 C 202.859375 145.933594 202.417969 146.25 202.089844 146.332031 C 201.910156 146.375 201.746094 146.476562 201.574219 146.554688 C 201.382812 146.351562 201.191406 146.152344 201.003906 145.949219 C 202.007812 145.308594 203.117188 145.171875 204.285156 145.21875 C 205.519531 145.269531 206.753906 145.277344 207.988281 145.246094 C 208.957031 145.21875 210.148438 145.082031 210.101562 143.886719 C 210.058594 142.875 208.871094 143.386719 208.199219 143.199219 C 207.929688 143.125 207.636719 143.140625 207.351562 143.117188 C 204.179688 142.894531 200.917969 143.144531 198.097656 141.175781 C 197.890625 141.03125 197.386719 141.3125 197.019531 141.394531 C 197.019531 141.394531 197.019531 141.394531 197.019531 141.398438 C 197.019531 141.398438 197.019531 141.398438 197.019531 141.394531 C 196.648438 141.378906 196.28125 141.363281 195.910156 141.34375 C 193.472656 141.136719 191.101562 140.558594 188.71875 140.050781 C 188.375 139.980469 188.003906 140.035156 187.636719 140.070312 C 187.546875 140.0625 187.449219 140.066406 187.332031 140.09375 C 186.574219 140.152344 185.824219 140.152344 185.144531 139.722656 C 187.351562 139.085938 189.558594 138.445312 191.765625 137.804688 C 191.632812 137.761719 191.5 137.714844 191.367188 137.667969 C 191.511719 137.675781 191.652344 137.707031 191.765625 137.804688 C 195.210938 137.128906 198.417969 135.738281 201.679688 134.503906 C 202.890625 133.960938 204.128906 133.472656 205.304688 132.859375 C 206.25 132.371094 207.289062 131.863281 207.355469 130.390625 C 206.117188 130.574219 205.148438 130.988281 204.078125 130.910156 C 203.03125 130.835938 201.855469 130.996094 201.144531 130.132812 C 199.433594 128.054688 197.714844 128.714844 195.917969 129.894531 C 195.515625 130.089844 195.113281 130.285156 194.714844 130.476562 C 193.871094 128.441406 193.6875 128.34375 191.945312 129.152344 C 191.261719 129.46875 190.644531 129.957031 189.941406 130.1875 C 189.3125 130.390625 188.601562 130.34375 188.515625 129.355469 C 190.832031 129.035156 192.738281 127.800781 194.515625 126.488281 C 196.394531 125.09375 199.054688 125.382812 200.734375 123.585938 C 200.324219 123.105469 199.914062 123.101562 199.570312 123.21875 C 197.542969 123.917969 195.566406 124.085938 193.511719 123.203125 C 192.652344 122.835938 191.640625 123.125 190.746094 123.511719 C 190.746094 123.515625 190.746094 123.515625 190.746094 123.515625 C 189.988281 123.554688 189.230469 123.59375 188.472656 123.632812 C 188.28125 123.636719 188.089844 123.640625 187.898438 123.644531 C 187.167969 123.65625 186.4375 123.664062 185.707031 123.675781 C 185.289062 123.667969 184.875 123.660156 184.457031 123.648438 C 183.902344 123.652344 183.351562 123.652344 182.796875 123.652344 C 181.457031 123.660156 180.097656 123.511719 178.824219 124.113281 C 178.214844 123.886719 177.605469 123.660156 176.875 123.390625 C 177.472656 123.011719 177.84375 122.773438 178.214844 122.535156 L 178.167969 122.414062 C 180.277344 122.222656 182.4375 122.960938 184.515625 122.019531 C 183.988281 121.828125 183.460938 121.636719 182.933594 121.445312 C 183.738281 121.523438 184.410156 121.230469 185.019531 120.734375 C 187.769531 120.804688 190.429688 120.207031 193.097656 119.65625 C 195.132812 119.429688 197.203125 119.347656 199.09375 118.28125 C 196.046875 117.804688 192.949219 118.875 189.972656 117.785156 C 189.761719 117.707031 189.324219 117.949219 189.421875 118.230469 C 189.535156 118.546875 189.894531 118.773438 190.144531 119.035156 C 188.742188 119.199219 187.375 119.191406 186.253906 118.136719 C 184.773438 119.460938 183.066406 118.328125 181.480469 118.453125 C 180.054688 118.570312 178.542969 119.328125 177.082031 118.507812 C 181.230469 117.332031 185.375 116.15625 189.523438 114.980469 C 191.226562 114.613281 192.929688 114.242188 194.632812 113.871094 C 196.128906 113.945312 197.589844 113.882812 198.753906 112.753906 C 200.601562 113.410156 202.472656 113.136719 204.332031 113.019531 C 204.652344 109.792969 204.652344 109.792969 201.550781 109.746094 C 201.179688 109.742188 200.777344 109.746094 200.675781 109.0625 C 202.453125 107.890625 203.691406 106.332031 204.441406 104.109375 C 205.597656 100.691406 208.4375 99.441406 211.992188 100.121094 C 212.480469 100.210938 212.863281 100.296875 213.019531 100.894531 C 213.421875 102.445312 213.558594 102.488281 214.730469 101.730469 C 216.128906 100.824219 216.152344 100.3125 214.644531 99.308594 C 213.660156 98.65625 212.785156 97.988281 212.484375 96.785156 C 213.242188 96.78125 214 96.777344 214.757812 96.773438 C 214.535156 95.757812 213.773438 95.523438 212.871094 95.363281 C 210.820312 95 208.78125 94.554688 206.734375 94.152344 C 206.171875 94.039062 205.554688 93.96875 205.542969 93.210938 C 205.53125 92.6875 205.90625 92.347656 206.332031 92.117188 C 206.664062 91.941406 207.03125 91.839844 207.390625 91.722656 C 207.976562 91.527344 208.875 91.703125 208.890625 90.773438 C 208.902344 90.066406 208.304688 89.589844 207.75 89.226562 C 206.738281 88.566406 205.496094 88.1875 205.554688 86.574219 C 205.574219 86.105469 204.878906 85.996094 204.40625 85.929688 C 203.097656 85.734375 201.785156 85.550781 200.472656 85.363281 C 200.46875 85.363281 200.464844 85.363281 200.460938 85.363281 C 201.449219 84.734375 202.78125 85.085938 203.667969 84.449219 C 204.941406 83.53125 206.101562 83.804688 207.386719 84.195312 C 208.472656 84.523438 209.601562 84.675781 210.730469 84.53125 C 211.65625 84.414062 211.714844 83.8125 211.347656 83.085938 C 211.347656 83.085938 211.34375 83.074219 211.34375 83.074219 C 210.386719 83.074219 209.429688 83.074219 208.472656 83.074219 C 208.472656 83.074219 208.472656 83.074219 208.476562 83.074219 C 208.472656 83.074219 208.472656 83.074219 208.472656 83.074219 C 204.546875 81.835938 200.488281 81.308594 196.417969 80.84375 C 196.417969 80.84375 196.417969 80.847656 196.417969 80.847656 C 196.417969 80.847656 196.417969 80.847656 196.417969 80.84375 C 196.21875 80.855469 196.023438 80.863281 195.828125 80.871094 C 195.738281 80.914062 195.644531 80.945312 195.550781 80.96875 C 195.640625 80.9375 195.734375 80.90625 195.828125 80.871094 C 193.199219 80.671875 190.589844 80.339844 187.992188 79.910156 C 187.894531 79.699219 187.808594 79.488281 187.761719 79.261719 C 186.972656 76.691406 185.09375 75.53125 182.566406 75.039062 C 181.59375 74.847656 180.425781 74.945312 179.6875 73.972656 C 179.632812 73.777344 179.625 73.574219 179.59375 73.371094 C 179.78125 71.125 179.527344 70.382812 177.902344 70.53125 C 178.421875 70.394531 178.835938 70.136719 178.917969 69.554688 C 179.265625 67.035156 180.78125 66.90625 182.628906 66.746094 C 185.085938 66.53125 186.753906 64.996094 186.796875 63 C 186.859375 60.308594 184.570312 61.027344 183.140625 60.492188 C 182.851562 60.453125 182.5625 60.417969 182.285156 60.347656 C 182.277344 60.328125 182.265625 60.308594 182.253906 60.285156 C 182.785156 60.058594 183.640625 60.367188 183.777344 59.269531 C 182.890625 59.027344 182.019531 58.972656 181.148438 59.003906 C 181.171875 58.949219 181.195312 58.898438 181.210938 58.84375 C 181.882812 57.960938 182.921875 58.027344 183.871094 57.914062 C 188.371094 57.371094 192.792969 56.355469 197.292969 55.777344 C 199.289062 55.519531 199.566406 54.484375 198.222656 52.949219 C 198.113281 52.828125 198.015625 52.695312 197.910156 52.570312 C 199.683594 52.347656 201.398438 51.761719 203.234375 51.0625 C 202.132812 50.34375 201.359375 50.839844 200.574219 51.015625 C 200.207031 50.765625 199.84375 50.519531 199.210938 50.085938 C 201.082031 49.996094 202.6875 49.921875 204.296875 49.84375 C 204.921875 49.574219 205.035156 49.171875 204.34375 48.953125 C 203.1875 48.582031 201.824219 49.003906 200.78125 48.226562 C 198.753906 46.71875 196.390625 46.648438 194.039062 46.523438 C 193.207031 46.480469 192.371094 46.515625 191.5625 46.515625 C 191.460938 45.757812 192.457031 45.996094 192.203125 45.179688 C 189.683594 45.027344 187.046875 45.789062 184.511719 44.878906 C 184.804688 44.574219 184.945312 44.269531 184.46875 44.007812 C 183.417969 43.433594 182.296875 43.09375 181.097656 43.035156 C 180.867188 42.371094 180.964844 41.90625 181.804688 42.082031 C 182.523438 42.230469 183.175781 42.683594 183.957031 42.527344 C 185.546875 42.621094 187.230469 43.675781 188.6875 42.808594 C 190.308594 41.84375 191.949219 42.011719 193.625 41.921875 C 193.625 41.730469 193.625 41.535156 193.625 41.34375 C 191.761719 40.441406 189.773438 40.882812 187.832031 40.8125 C 187.835938 40.816406 187.835938 40.816406 187.835938 40.816406 C 187.835938 40.816406 187.832031 40.816406 187.832031 40.8125 C 187.480469 40.808594 187.128906 40.804688 186.78125 40.796875 C 186.25 40.449219 185.660156 40.273438 185.03125 40.230469 C 185.125 39.628906 185.304688 39.171875 186.085938 39.199219 C 187.675781 39.257812 189.1875 38.605469 190.847656 38.894531 C 192.265625 39.144531 192.972656 38.289062 192.484375 36.777344 C 191.070312 36.347656 189.652344 36.699219 188.238281 36.742188 C 186.917969 36.785156 185.421875 37.074219 184.421875 36.03125 C 182.855469 34.40625 181.167969 34.429688 179.199219 35 C 176.78125 35.699219 176.734375 35.636719 175.496094 33.375 C 175.101562 32.652344 174.59375 32.171875 174.003906 32.90625 C 172.332031 35 170.507812 33.75 168.726562 33.5625 C 168.632812 32.609375 169.890625 32.542969 169.449219 31.5625 C 168.195312 31.351562 167.445312 32.203125 166.578125 32.9375 C 165.242188 34.074219 164.703125 33.992188 163.527344 32.671875 C 163.28125 32.398438 163.183594 31.992188 162.527344 31.863281 C 161.554688 32.214844 160.628906 33.84375 159.179688 32.824219 C 158.21875 32.148438 157.460938 32.363281 156.558594 32.824219 C 156.070312 33.074219 155.472656 33.207031 154.921875 33.207031 C 152.984375 33.21875 152.167969 33.425781 150.714844 34.3125 C 150.40625 34.5 150.074219 34.652344 149.734375 34.796875 C 149.445312 34.519531 149.148438 34.257812 148.800781 34.167969 C 146.351562 35.046875 143.828125 34.929688 141.304688 34.707031 C 139.355469 34.535156 137.414062 33.882812 135.460938 34.652344 C 134.945312 34.960938 134.722656 35.53125 134.316406 35.9375 C 134.25 35.992188 134.179688 36.039062 134.109375 36.085938 C 133.878906 36.183594 133.664062 36.308594 133.46875 36.476562 C 133.011719 36.714844 132.554688 36.878906 132.085938 36.960938 C 130.898438 36.457031 129.792969 35.601562 128.429688 36 C 128.367188 36.019531 128.308594 36.035156 128.246094 36.050781 C 127.71875 35.882812 127.175781 35.820312 126.601562 35.933594 C 125.984375 36.054688 125.363281 36.164062 124.746094 36.253906 C 123.945312 36.132812 123.15625 35.898438 122.371094 35.5625 C 121.917969 35.375 121.523438 35.257812 121.039062 35.535156 C 118.847656 36.785156 117.003906 35.890625 115.242188 34.554688 C 114.527344 34.679688 113.96875 35.003906 113.714844 35.726562 C 113.710938 35.820312 113.699219 35.894531 113.683594 35.964844 C 113.695312 35.890625 113.707031 35.8125 113.714844 35.726562 C 112.894531 35.988281 112.558594 35.207031 111.992188 34.925781 C 110.988281 34.269531 109.996094 34.328125 109.019531 34.980469 C 109.019531 34.980469 109.015625 34.980469 109.015625 34.980469 L 108.996094 35.011719 C 108.425781 35.394531 107.859375 35.78125 107.292969 36.164062 C 107.289062 36.164062 107.289062 36.164062 107.289062 36.164062 C 107.101562 36.28125 106.960938 36.429688 106.859375 36.601562 C 104.535156 36.207031 102.320312 35.042969 99.925781 35.167969 C 99.648438 35.105469 99.367188 35.054688 99.082031 35.019531 C 97.339844 34.875 95.613281 34.964844 93.90625 35.339844 C 93.289062 35.40625 92.667969 35.457031 92.0625 35.613281 C 91.394531 35.792969 90.941406 36.164062 90.648438 36.675781 C 88.402344 36.628906 86.175781 36.816406 83.980469 37.414062 C 82.738281 37.136719 82.570312 38.984375 81.804688 38.800781 C 80.5625 38.503906 79.558594 39.386719 78.46875 39.792969 C 77.777344 39.761719 77.085938 39.71875 76.390625 39.683594 C 76.382812 39.679688 76.375 39.675781 76.367188 39.671875 C 76.246094 39.601562 76.125 39.609375 76.003906 39.664062 C 75.785156 39.652344 75.5625 39.644531 75.34375 39.636719 C 75.152344 39.597656 74.957031 39.53125 74.78125 39.570312 C 65.863281 41.566406 56.839844 42.75 47.730469 43.496094 C 43.398438 43.851562 39.03125 44.308594 34.789062 45.425781 C 34.589844 45.5 34.390625 45.570312 34.1875 45.632812 C 34.042969 45.613281 33.878906 45.621094 33.691406 45.648438 C 32.101562 45.894531 30.542969 46.257812 28.898438 46.269531 C 27.65625 46.277344 27.03125 46.941406 27.113281 48.011719 C 27.070312 48.042969 27.023438 48.070312 26.980469 48.101562 C 25.976562 48.996094 26.011719 49.945312 26.679688 50.933594 C 26.644531 50.972656 26.605469 51.015625 26.570312 51.070312 C 26.71875 51.355469 26.894531 51.601562 27.097656 51.820312 C 27.152344 52.023438 27.1875 52.234375 27.1875 52.453125 C 27.109375 52.875 26.945312 53.273438 26.878906 53.699219 C 26.824219 53.824219 26.757812 53.9375 26.683594 54.046875 C 26.390625 54.078125 26.089844 54.152344 25.789062 54.292969 C 25.445312 54.449219 25.097656 54.691406 25.242188 55.125 C 25.28125 55.257812 25.359375 55.34375 25.453125 55.410156 C 25.304688 55.664062 25.148438 55.90625 24.972656 56.140625 C 24.808594 56.285156 24.648438 56.433594 24.527344 56.625 C 24.300781 56.875 24.0625 57.113281 23.871094 57.390625 C 23.601562 57.746094 23.363281 58.085938 23.152344 58.410156 C 22.195312 58.582031 21.363281 59.089844 20.75 59.953125 C 19.90625 61.140625 18.875 61.753906 17.574219 62.171875 C 16.671875 62.457031 15.777344 62.824219 14.945312 63.273438 C 14.035156 63.765625 14.035156 64.726562 14.855469 65.339844 C 15.339844 65.707031 15.953125 65.921875 16.464844 65.675781 C 18.863281 64.519531 21.136719 65.695312 23.457031 65.953125 C 23.621094 66.144531 23.800781 66.277344 23.996094 66.367188 C 23.960938 66.507812 23.914062 66.640625 23.859375 66.773438 C 23.550781 67.246094 23.128906 67.636719 22.859375 68.140625 C 22.496094 68.730469 22.078125 69.207031 21.617188 69.59375 C 21.171875 69.738281 20.710938 69.839844 20.242188 69.921875 C 19.289062 70.082031 18.292969 70.277344 17.535156 70.828125 C 17.503906 70.828125 17.472656 70.828125 17.441406 70.828125 C 16.664062 70.992188 15.878906 71.121094 15.101562 71.285156 C 13.132812 71.953125 11.039062 71.988281 9.035156 72.457031 C 7.804688 72.75 6.109375 72.667969 5.832031 74.214844 C 5.558594 75.773438 6.875 76.679688 8.140625 77.394531 C 8.304688 77.484375 8.441406 77.617188 8.609375 77.753906 C 8.59375 77.945312 8.507812 78.113281 8.40625 78.269531 C 8.179688 78.398438 8.050781 78.566406 8.046875 78.761719 C 7.738281 79.109375 7.355469 79.378906 7.039062 79.714844 C 6.703125 80.1875 6.425781 80.726562 6.351562 81.265625 C 6.136719 82.765625 6.035156 84.050781 4.265625 84.890625 C 2.894531 85.539062 3.355469 87.601562 4.941406 88.230469 C 6.78125 88.960938 8.65625 89.679688 10.710938 89.625 C 15.257812 89.507812 19.800781 89.855469 24.34375 89.15625 C 27 88.746094 29.691406 88.15625 32.582031 88.546875 C 31.339844 89.035156 30.195312 89.039062 29.058594 89.09375 C 23.996094 89.335938 19.359375 90.753906 15.429688 94.085938 C 14.179688 95.148438 13.054688 96.507812 14.828125 97.808594 C 16.570312 99.09375 16.609375 100.445312 16.035156 102.226562 C 15.433594 104.105469 15.316406 106.113281 14.335938 107.910156 C 13.773438 108.949219 13.789062 109.882812 14.429688 110.574219 C 14.382812 110.578125 14.332031 110.582031 14.285156 110.585938 C 14.542969 110.996094 14.859375 111.355469 15.34375 111.492188 C 20.484375 112.964844 25.671875 113.507812 30.933594 112.488281 C 32.074219 112.496094 33.214844 112.492188 34.355469 112.492188 C 34.503906 112.492188 34.648438 112.492188 34.792969 112.492188 C 34.800781 112.601562 34.808594 112.707031 34.8125 112.816406 C 34.089844 112.789062 33.390625 112.914062 32.761719 113.285156 C 31.582031 113.980469 32.101562 114.539062 32.925781 115.058594 C 32.785156 115.253906 32.640625 115.449219 32.496094 115.640625 C 31.871094 115.425781 31.1875 115.113281 30.734375 115.855469 C 30.367188 116.453125 30.273438 117.335938 30.910156 117.644531 C 32.46875 118.394531 32.0625 120.128906 32.929688 121.191406 C 32.789062 122.136719 31.058594 121.734375 31.355469 123.050781 C 31.347656 123.429688 31.34375 123.808594 31.335938 124.1875 C 31.199219 124.25 31.058594 124.289062 30.90625 124.304688 C 30.429688 124.332031 29.828125 124.351562 29.894531 124.980469 C 29.9375 125.398438 30.472656 125.359375 30.859375 125.292969 C 31.21875 125.304688 31.578125 125.320312 31.941406 125.335938 C 31.632812 125.660156 31.324219 125.984375 31.015625 126.3125 C 30.914062 126.359375 30.835938 126.425781 30.800781 126.535156 L 30.714844 126.457031 C 29.65625 127.609375 28.09375 128.042969 26.59375 129.046875 C 29.1875 129.78125 31.46875 129.8125 33.730469 129.613281 C 39.601562 129.089844 45.457031 128.839844 51.289062 129.988281 C 50.925781 130.3125 50.566406 130.632812 50.203125 130.957031 C 48.933594 131.257812 47.558594 131.21875 46.449219 132.027344 C 46.375 132.058594 46.300781 132.117188 46.210938 132.214844 C 45.671875 132.238281 45.128906 132.261719 44.585938 132.285156 C 43.238281 132.679688 41.886719 133.046875 40.664062 133.773438 C 38.605469 134.988281 38.582031 135.269531 40.535156 136.789062 C 40.277344 138.453125 40.359375 138.519531 42.714844 138.535156 L 42.71875 138.539062 C 42.636719 138.875 42.664062 139.390625 42.453125 139.511719 C 41.355469 140.167969 41.800781 140.523438 42.628906 140.890625 C 42.871094 141 43.078125 141.175781 43.300781 141.324219 C 43.132812 141.332031 42.964844 141.351562 42.796875 141.375 C 41.332031 141.300781 40.496094 142.371094 39.339844 143.011719 C 39.960938 143.753906 40.902344 143.847656 41.019531 144.734375 C 39.597656 145 40.753906 146.464844 39.933594 147.050781 C 38.429688 148.121094 37.625 149.90625 35.980469 150.894531 C 44.195312 150.070312 52.3125 148.800781 60.9375 149.011719 C 60.128906 150.144531 59.183594 150.152344 58.523438 150.601562 C 58.148438 150.859375 57.832031 151.207031 57.488281 151.515625 C 58.613281 152.535156 56.914062 153.960938 57.988281 154.988281 C 57.609375 155.074219 57.261719 155.207031 57.050781 155.570312 C 55.691406 155.773438 55.085938 157.335938 53.671875 157.441406 C 52.769531 157.511719 52.015625 157.902344 51.34375 158.488281 C 50.554688 158.554688 49.761719 158.613281 49.0625 159.050781 C 48.425781 159.46875 47.707031 159.546875 46.96875 159.679688 C 44.710938 160.097656 42.378906 160.378906 40.515625 161.945312 C 40.015625 163.367188 40.445312 164.46875 41.664062 165.300781 C 42.59375 165.332031 43.519531 165.367188 44.449219 165.398438 C 44.453125 165.570312 44.460938 165.734375 44.476562 165.902344 C 42.015625 166.742188 39.921875 168.195312 37.792969 169.863281 C 40.25 169.4375 39.609375 172.453125 41.863281 172.488281 C 39.433594 173.628906 39.144531 174.304688 39.804688 176.257812 C 40.445312 177.394531 38.527344 177.296875 38.785156 178.195312 C 39.226562 178.820312 40.21875 178.199219 40.429688 179.007812 C 39.429688 180.671875 37.261719 181.019531 36.242188 182.984375 C 39.789062 183.734375 43.152344 184.25 46.582031 184.242188 C 51.140625 184.234375 55.699219 184.179688 60.257812 184.140625 C 61.566406 184.144531 62.875 184.144531 64.179688 184.144531 L 64.316406 184.101562 C 65.25 183.460938 66.304688 183.609375 67.339844 183.617188 C 67.726562 183.828125 68.265625 183.496094 68.59375 183.960938 C 66.683594 184.832031 66.683594 184.832031 65.675781 186.96875 C 65.675781 186.96875 65.675781 186.972656 65.675781 186.972656 C 66.019531 187.53125 66.367188 188.089844 66.710938 188.648438 C 65.078125 189.273438 64.105469 190.328125 64.304688 192.351562 C 67.277344 192.492188 70.167969 192.625 73.058594 192.761719 C 75.84375 192.746094 78.632812 192.734375 81.417969 192.71875 C 81.578125 192.675781 81.734375 192.640625 81.894531 192.609375 C 81.734375 192.644531 81.578125 192.679688 81.417969 192.71875 C 83.777344 192.683594 86.171875 193.167969 88.46875 192.246094 C 89.035156 192.019531 89.609375 191.988281 90.191406 192.171875 C 90.546875 192.285156 90.980469 192.300781 91.246094 192.523438 C 92.550781 193.625 93.148438 192.863281 93.621094 191.6875 C 94.113281 191.628906 94.601562 191.574219 95.09375 191.515625 C 95.558594 191.546875 96.023438 191.578125 96.492188 191.613281 C 96.621094 191.769531 96.765625 191.847656 96.921875 191.84375 C 97.722656 192.195312 98.589844 192.191406 99.464844 192.15625 C 100.964844 192.203125 102.449219 192.054688 103.902344 191.65625 C 104.515625 192.132812 105.121094 191.894531 105.765625 191.683594 C 106.46875 191.453125 107.109375 191.109375 107.925781 191.117188 C 110.476562 191.140625 113.027344 191.074219 115.574219 190.945312 C 116.984375 190.871094 118.476562 190.835938 119.765625 190.339844 C 120.878906 189.910156 121.859375 189.898438 123 189.914062 C 125.195312 189.949219 127.515625 190.402344 129.4375 188.648438 C 130.21875 187.933594 131.65625 188.09375 132.238281 188.523438 C 133.726562 189.621094 135.082031 189.144531 136.535156 188.824219 C 137.984375 188.53125 139.21875 187.914062 139.960938 186.554688 C 141.117188 187.804688 142.519531 188.273438 144.234375 188.117188 C 145.628906 187.988281 147.046875 188.097656 148.457031 188.101562 C 148.90625 188.144531 149.113281 187.75 149.4375 187.566406 C 150.125 186.890625 151.152344 186.996094 151.910156 186.492188 C 153.296875 186.050781 154.683594 185.609375 156.074219 185.167969 C 155.800781 184.308594 155.207031 184.378906 154.707031 184.277344 C 155.179688 182.125 152.960938 182.394531 152.007812 181.597656 C 152.539062 180.519531 153.605469 180.800781 154.265625 180.300781 C 154.746094 179.933594 155.152344 179.515625 154.964844 178.902344 C 154.710938 178.085938 153.980469 177.996094 153.355469 178.300781 C 151.808594 179.066406 150.035156 178.933594 148.484375 179.636719 C 148.3125 179.285156 147.226562 178.878906 148.304688 178.585938 C 149.503906 178.261719 150.464844 177.695312 151.363281 176.917969 C 152.183594 177.285156 152.996094 177.566406 153.753906 176.792969 C 153.757812 176.792969 153.757812 176.792969 153.757812 176.792969 C 156.171875 177.183594 156.40625 177.386719 156.578125 179.472656 C 156.625 180.03125 156.671875 180.652344 156.480469 181.15625 C 155.933594 182.585938 156.558594 183.296875 157.828125 183.746094 C 158.183594 183.871094 158.5 184.097656 158.832031 184.277344 C 159.789062 185.378906 161.011719 184.96875 162.179688 184.871094 C 162.183594 184.871094 162.183594 184.871094 162.183594 184.871094 C 161.996094 185.414062 161.8125 185.953125 161.628906 186.496094 C 162.445312 186.492188 163.234375 186.386719 163.945312 185.9375 C 164.027344 185.148438 164.402344 184.535156 165.054688 184.085938 C 165.796875 183.574219 166.117188 182.824219 166.207031 181.953125 C 167.59375 182.039062 168.953125 181.945312 170.230469 181.320312 C 171.609375 181.480469 172.96875 181.488281 174.246094 180.820312 C 175.066406 181.113281 174.828125 181.929688 175.046875 182.503906 C 175.539062 183.824219 176.351562 184.277344 177.667969 183.65625 C 179.570312 183.53125 181.535156 184.023438 183.363281 183.105469 C 185.746094 183.425781 187.867188 182.292969 190.117188 181.875 C 191.070312 182.230469 191.828125 181.765625 192.589844 181.292969 C 193.515625 181.316406 194.441406 181.339844 195.367188 181.359375 C 197.8125 182.128906 199.945312 180.617188 202.261719 180.429688 C 202.960938 180.371094 203.589844 180.164062 203.605469 179.296875 C 203.625 178.4375 203.175781 177.859375 202.367188 177.625 C 200.890625 177.199219 199.386719 177.351562 197.882812 177.46875 C 197.308594 177.511719 196.648438 177.917969 196.023438 177.195312 C 196.847656 176.816406 197.523438 176.511719 198.199219 176.203125 C 198.835938 175.453125 198.585938 173.46875 200.527344 174.515625 C 200.277344 175.242188 200.324219 175.859375 201.214844 176.042969 C 202.339844 176.277344 203.484375 176.277344 204.601562 176.015625 C 207.015625 175.453125 209.433594 175.195312 211.898438 175.628906 C 213.53125 176.328125 215.023438 175.820312 216.488281 175.085938 C 217.691406 174.144531 219.488281 174.257812 220.429688 172.859375 C 220.660156 172.289062 221.359375 171.859375 220.980469 171.101562 C 220.785156 171.085938 220.589844 171.015625 220.429688 171.066406 C 219.761719 171.269531 218.925781 172.242188 218.464844 171.347656 C 217.972656 170.398438 219.261719 170.402344 219.828125 170.050781 C 219.984375 169.953125 220.171875 169.886719 220.355469 169.855469 C 222.019531 169.550781 221.835938 168.007812 222.109375 166.945312 C 222.394531 165.832031 221.152344 165.480469 220.398438 164.96875 "
            fill-opacity="1" fill-rule="nonzero" />
    </g>
</svg>