<svg xmlns="http://www.w3.org/2000/svg" xmlns:xlink="http://www.w3.org/1999/xlink" width="300" zoomAndPan="magnify" viewBox="0 0 224.87999 225" height="300" preserveAspectRatio="xMidYMid meet" version="1.0"><defs><clipPath id="945bd9659b"><path d="M 74 47 L 106 47 L 106 91 L 74 91 Z M 74 47 " clip-rule="nonzero"/></clipPath><clipPath id="8626ee22c5"><path d="M -15.066406 73.351562 L 193.230469 22.605469 L 221.085938 136.949219 L 12.792969 187.695312 Z M -15.066406 73.351562 " clip-rule="nonzero"/></clipPath><clipPath id="0685d4bef3"><path d="M -15.066406 73.351562 L 193.230469 22.605469 L 221.085938 136.949219 L 12.792969 187.695312 Z M -15.066406 73.351562 " clip-rule="nonzero"/></clipPath><clipPath id="48505bfacc"><path d="M -15.066406 73.351562 L 193.230469 22.605469 L 221.085938 136.949219 L 12.792969 187.695312 Z M -15.066406 73.351562 " clip-rule="nonzero"/></clipPath><clipPath id="71904d36e2"><path d="M 13 88 L 104 88 L 104 184 L 13 184 Z M 13 88 " clip-rule="nonzero"/></clipPath><clipPath id="b3af18bf8d"><path d="M -15.066406 73.351562 L 193.230469 22.605469 L 221.085938 136.949219 L 12.792969 187.695312 Z M -15.066406 73.351562 " clip-rule="nonzero"/></clipPath><clipPath id="7bbf7ce724"><path d="M -15.066406 73.351562 L 193.230469 22.605469 L 221.085938 136.949219 L 12.792969 187.695312 Z M -15.066406 73.351562 " clip-rule="nonzero"/></clipPath><clipPath id="f6230fe557"><path d="M -15.066406 73.351562 L 193.230469 22.605469 L 221.085938 136.949219 L 12.792969 187.695312 Z M -15.066406 73.351562 " clip-rule="nonzero"/></clipPath><clipPath id="04c2272419"><path d="M 98 87 L 218 87 L 218 136 L 98 136 Z M 98 87 " clip-rule="nonzero"/></clipPath><clipPath id="fcc71f3d65"><path d="M -15.066406 73.351562 L 193.230469 22.605469 L 221.085938 136.949219 L 12.792969 187.695312 Z M -15.066406 73.351562 " clip-rule="nonzero"/></clipPath><clipPath id="86e2c47436"><path d="M -15.066406 73.351562 L 193.230469 22.605469 L 221.085938 136.949219 L 12.792969 187.695312 Z M -15.066406 73.351562 " clip-rule="nonzero"/></clipPath><clipPath id="4498394a56"><path d="M -15.066406 73.351562 L 193.230469 22.605469 L 221.085938 136.949219 L 12.792969 187.695312 Z M -15.066406 73.351562 " clip-rule="nonzero"/></clipPath></defs><g clip-path="url(#945bd9659b)"><g clip-path="url(#8626ee22c5)"><g clip-path="url(#0685d4bef3)"><g clip-path="url(#48505bfacc)"><path fill="#000000" d="M 99.390625 90.296875 C 98.375 90.546875 97.363281 89.929688 97.117188 88.914062 L 95.40625 81.894531 C 94.660156 78.84375 95.085938 75.722656 96.601562 73.089844 C 97.730469 71.089844 99.140625 68.484375 100.21875 66.710938 C 101.960938 63.699219 102.332031 60.808594 101.484375 58.210938 C 99.890625 53.429688 94.550781 50.527344 89.796875 51.792969 C 86.871094 52.613281 84.472656 54.707031 83.3125 57.46875 C 83.082031 57.847656 82.953125 58.203125 82.824219 58.554688 C 82.074219 60.785156 80.863281 64.207031 77.070312 65.886719 C 76.101562 66.335938 75.011719 65.847656 74.585938 64.980469 C 74.136719 64.015625 74.625 62.925781 75.492188 62.5 C 77.832031 61.496094 78.503906 59.394531 79.203125 57.390625 C 79.40625 56.910156 79.511719 56.453125 79.640625 56.097656 C 81.367188 52.121094 84.65625 49.273438 88.800781 48.15625 C 95.691406 46.367188 102.800781 50.347656 105.074219 57.015625 C 106.269531 60.605469 105.714844 64.511719 103.558594 68.484375 C 102.503906 70.359375 101.070312 72.863281 99.964844 74.964844 C 98.914062 76.835938 98.59375 79.070312 99.089844 81.105469 L 100.800781 88.125 C 100.921875 89.0625 100.308594 90.074219 99.390625 90.296875 Z M 99.390625 90.296875 " fill-opacity="1" fill-rule="nonzero"/></g></g></g></g><g clip-path="url(#71904d36e2)"><g clip-path="url(#b3af18bf8d)"><g clip-path="url(#7bbf7ce724)"><g clip-path="url(#f6230fe557)"><path fill="#000000" d="M 82.214844 101.597656 C 79.390625 106.808594 76.171875 118.800781 69.535156 125.160156 C 67.261719 127.332031 26.085938 157.300781 22.28125 161.136719 C 12.34375 171.207031 13.417969 178.273438 13.417969 178.273438 C 13.417969 178.273438 13.210938 187.59375 20.101562 181.386719 C 27.785156 174.449219 103.507812 107.183594 103.507812 107.183594 L 98.996094 88.671875 C 91.570312 90.480469 85.628906 95.269531 82.214844 101.597656 Z M 82.214844 101.597656 " fill-opacity="1" fill-rule="nonzero"/></g></g></g></g><g clip-path="url(#04c2272419)"><g clip-path="url(#fcc71f3d65)"><g clip-path="url(#86e2c47436)"><g clip-path="url(#4498394a56)"><path fill="#000000" d="M 119.839844 92.429688 C 124.746094 95.761719 133.121094 104.929688 141.9375 107.519531 C 144.953125 108.402344 195.300781 116.074219 200.445312 117.730469 C 213.925781 122.207031 216.195312 128.871094 216.195312 128.871094 C 216.195312 128.871094 220.664062 137.050781 211.691406 134.710938 C 201.679688 132.085938 103.507812 107.183594 103.507812 107.183594 L 98.996094 88.671875 C 106.519531 86.835938 113.898438 88.378906 119.839844 92.429688 Z M 119.839844 92.429688 " fill-opacity="1" fill-rule="nonzero"/></g></g></g></g></svg>